%TF.GenerationSoftware,KiCad,Pcbnew,7.0.6*%
%TF.CreationDate,2023-11-15T12:58:54-06:00*%
%TF.ProjectId,TorqueSensorAmpifierPCB,546f7271-7565-4536-956e-736f72416d70,rev?*%
%TF.SameCoordinates,Original*%
%TF.FileFunction,Copper,L1,Top*%
%TF.FilePolarity,Positive*%
%FSLAX46Y46*%
G04 Gerber Fmt 4.6, Leading zero omitted, Abs format (unit mm)*
G04 Created by KiCad (PCBNEW 7.0.6) date 2023-11-15 12:58:54*
%MOMM*%
%LPD*%
G01*
G04 APERTURE LIST*
G04 Aperture macros list*
%AMRoundRect*
0 Rectangle with rounded corners*
0 $1 Rounding radius*
0 $2 $3 $4 $5 $6 $7 $8 $9 X,Y pos of 4 corners*
0 Add a 4 corners polygon primitive as box body*
4,1,4,$2,$3,$4,$5,$6,$7,$8,$9,$2,$3,0*
0 Add four circle primitives for the rounded corners*
1,1,$1+$1,$2,$3*
1,1,$1+$1,$4,$5*
1,1,$1+$1,$6,$7*
1,1,$1+$1,$8,$9*
0 Add four rect primitives between the rounded corners*
20,1,$1+$1,$2,$3,$4,$5,0*
20,1,$1+$1,$4,$5,$6,$7,0*
20,1,$1+$1,$6,$7,$8,$9,0*
20,1,$1+$1,$8,$9,$2,$3,0*%
G04 Aperture macros list end*
%TA.AperFunction,ComponentPad*%
%ADD10C,2.800000*%
%TD*%
%TA.AperFunction,SMDPad,CuDef*%
%ADD11RoundRect,0.250000X0.325000X0.450000X-0.325000X0.450000X-0.325000X-0.450000X0.325000X-0.450000X0*%
%TD*%
%TA.AperFunction,ComponentPad*%
%ADD12R,1.700000X1.700000*%
%TD*%
%TA.AperFunction,ComponentPad*%
%ADD13O,1.700000X1.700000*%
%TD*%
%TA.AperFunction,SMDPad,CuDef*%
%ADD14R,1.257300X0.508000*%
%TD*%
%TA.AperFunction,ViaPad*%
%ADD15C,0.800000*%
%TD*%
%TA.AperFunction,Conductor*%
%ADD16C,0.250000*%
%TD*%
%TA.AperFunction,Conductor*%
%ADD17C,0.200000*%
%TD*%
%TA.AperFunction,Conductor*%
%ADD18C,0.500000*%
%TD*%
G04 APERTURE END LIST*
D10*
%TO.P,TP1,1,1*%
%TO.N,/SIG_IN_+*%
X73000000Y-91500000D03*
%TD*%
D11*
%TO.P,D1,1,K*%
%TO.N,GND*%
X66525000Y-96000000D03*
%TO.P,D1,2,A*%
%TO.N,Net-(D1-A)*%
X64475000Y-96000000D03*
%TD*%
D12*
%TO.P,J2,1,Pin_1*%
%TO.N,+5V*%
X80500000Y-96700000D03*
D13*
%TO.P,J2,2,Pin_2*%
%TO.N,GNDS*%
X80500000Y-99240000D03*
%TO.P,J2,3,Pin_3*%
%TO.N,/SIG_OUT_+*%
X80500000Y-101780000D03*
%TO.P,J2,4,Pin_4*%
%TO.N,GND*%
X80500000Y-104320000D03*
%TD*%
D10*
%TO.P,TP4,1,1*%
%TO.N,GNDS*%
X73000000Y-109500000D03*
%TD*%
D14*
%TO.P,U1,1,GAIN*%
%TO.N,Net-(R2-Pad1)*%
X67402450Y-98690000D03*
%TO.P,U1,2,-*%
%TO.N,GNDS*%
X67402450Y-99960000D03*
%TO.P,U1,3,+*%
%TO.N,/SIG_IN_+*%
X67402450Y-101230000D03*
%TO.P,U1,4,GND*%
%TO.N,GND*%
X67402450Y-102500000D03*
%TO.P,U1,5*%
%TO.N,Net-(C3-Pad1)*%
X72647550Y-102500000D03*
%TO.P,U1,6,V+*%
%TO.N,+5V*%
X72647550Y-101230000D03*
%TO.P,U1,7,BYPASS*%
%TO.N,Net-(U1-BYPASS)*%
X72647550Y-99960000D03*
%TO.P,U1,8,GAIN*%
%TO.N,Net-(C2-Pad1)*%
X72647550Y-98690000D03*
%TD*%
D10*
%TO.P,TP2,1,1*%
%TO.N,GNDS*%
X67500000Y-91500000D03*
%TD*%
%TO.P,TP3,1,1*%
%TO.N,/SIG_OUT_+*%
X67500000Y-109500000D03*
%TD*%
D12*
%TO.P,J1,1,Pin_1*%
%TO.N,+5V*%
X59500000Y-96700000D03*
D13*
%TO.P,J1,2,Pin_2*%
%TO.N,GNDS*%
X59500000Y-99240000D03*
%TO.P,J1,3,Pin_3*%
%TO.N,/SIG_IN_+*%
X59500000Y-101780000D03*
%TO.P,J1,4,Pin_4*%
%TO.N,GND*%
X59500000Y-104320000D03*
%TD*%
D15*
%TO.N,Net-(U1-BYPASS)*%
X72550000Y-100376498D03*
%TO.N,Net-(C2-Pad1)*%
X72600000Y-98500000D03*
%TO.N,Net-(C3-Pad1)*%
X72500000Y-102500000D03*
%TO.N,/SIG_OUT_+*%
X74450000Y-102500000D03*
%TO.N,Net-(D1-A)*%
X64412500Y-96000000D03*
%TO.N,Net-(R2-Pad1)*%
X67550000Y-98690000D03*
%TO.N,GNDS*%
X67550000Y-99960000D03*
%TO.N,/SIG_IN_+*%
X67550000Y-101230000D03*
X68107701Y-97107701D03*
%TD*%
D16*
%TO.N,Net-(U1-BYPASS)*%
X72500000Y-100326498D02*
X72500000Y-99960000D01*
X72550000Y-100376498D02*
X72500000Y-100326498D01*
%TO.N,Net-(C2-Pad1)*%
X72500000Y-98600000D02*
X72600000Y-98500000D01*
X72500000Y-98690000D02*
X72500000Y-98600000D01*
%TO.N,/SIG_OUT_+*%
X74450000Y-102550000D02*
X74450000Y-102500000D01*
D17*
X80500000Y-101780000D02*
X75170000Y-101780000D01*
D16*
X67500000Y-109500000D02*
X74450000Y-102550000D01*
D17*
X75170000Y-101780000D02*
X74450000Y-102500000D01*
D16*
%TO.N,Net-(D1-A)*%
X64475000Y-96000000D02*
X64412500Y-96000000D01*
%TO.N,GNDS*%
X67550000Y-99960000D02*
X60220000Y-99960000D01*
X60220000Y-99960000D02*
X59500000Y-99240000D01*
%TO.N,/SIG_IN_+*%
X68107701Y-96392299D02*
X73000000Y-91500000D01*
X68107701Y-97107701D02*
X68107701Y-96392299D01*
D18*
%TO.N,+5V*%
X72500000Y-101230000D02*
X75970000Y-101230000D01*
X75970000Y-101230000D02*
X80500000Y-96700000D01*
%TD*%
%TA.AperFunction,Conductor*%
%TO.N,GND*%
G36*
X79001513Y-88000575D02*
G01*
X79067131Y-88003797D01*
X79152481Y-88007990D01*
X79346607Y-88018164D01*
X79352409Y-88018745D01*
X79521733Y-88043862D01*
X79697594Y-88071716D01*
X79702929Y-88072804D01*
X79872209Y-88115206D01*
X80041341Y-88160525D01*
X80046122Y-88162018D01*
X80211894Y-88221332D01*
X80374263Y-88283660D01*
X80378543Y-88285492D01*
X80464073Y-88325944D01*
X80538476Y-88361134D01*
X80692992Y-88439864D01*
X80696720Y-88441928D01*
X80848967Y-88533180D01*
X80994262Y-88627537D01*
X80997428Y-88629736D01*
X81140323Y-88735714D01*
X81274975Y-88844752D01*
X81277594Y-88846997D01*
X81408517Y-88965658D01*
X81410721Y-88967757D01*
X81532241Y-89089277D01*
X81534340Y-89091481D01*
X81653001Y-89222404D01*
X81655246Y-89225023D01*
X81764285Y-89359676D01*
X81870262Y-89502570D01*
X81872461Y-89505736D01*
X81966822Y-89651038D01*
X82058070Y-89803278D01*
X82060133Y-89807006D01*
X82138868Y-89961529D01*
X82214506Y-90121455D01*
X82216342Y-90125746D01*
X82278672Y-90288120D01*
X82289827Y-90319295D01*
X82337970Y-90453847D01*
X82339479Y-90458678D01*
X82384793Y-90627790D01*
X82427191Y-90797056D01*
X82428286Y-90802424D01*
X82456145Y-90978317D01*
X82481250Y-91147560D01*
X82481836Y-91153416D01*
X82492011Y-91347561D01*
X82499425Y-91498488D01*
X82499500Y-91501530D01*
X82499500Y-109498469D01*
X82499425Y-109501511D01*
X82492011Y-109652438D01*
X82481836Y-109846582D01*
X82481250Y-109852438D01*
X82456145Y-110021682D01*
X82428286Y-110197574D01*
X82427191Y-110202942D01*
X82384793Y-110372209D01*
X82339479Y-110541320D01*
X82337967Y-110546163D01*
X82278672Y-110711879D01*
X82216342Y-110874252D01*
X82214507Y-110878543D01*
X82138868Y-111038470D01*
X82060133Y-111192992D01*
X82058070Y-111196720D01*
X81966822Y-111348961D01*
X81872461Y-111494262D01*
X81870262Y-111497428D01*
X81764285Y-111640323D01*
X81655245Y-111774975D01*
X81653001Y-111777594D01*
X81534340Y-111908517D01*
X81532241Y-111910721D01*
X81410721Y-112032241D01*
X81408517Y-112034340D01*
X81277594Y-112153001D01*
X81274975Y-112155245D01*
X81140323Y-112264285D01*
X80997428Y-112370262D01*
X80994262Y-112372461D01*
X80848961Y-112466822D01*
X80696720Y-112558070D01*
X80692992Y-112560133D01*
X80538470Y-112638868D01*
X80378543Y-112714507D01*
X80374252Y-112716342D01*
X80211879Y-112778672D01*
X80046163Y-112837967D01*
X80041320Y-112839479D01*
X79872209Y-112884793D01*
X79702942Y-112927191D01*
X79697574Y-112928286D01*
X79521682Y-112956145D01*
X79352438Y-112981250D01*
X79346582Y-112981836D01*
X79152438Y-112992011D01*
X79001513Y-112999425D01*
X78998470Y-112999500D01*
X61001530Y-112999500D01*
X60998488Y-112999425D01*
X60847561Y-112992011D01*
X60653416Y-112981836D01*
X60647560Y-112981250D01*
X60478317Y-112956145D01*
X60302424Y-112928286D01*
X60297056Y-112927191D01*
X60127790Y-112884793D01*
X59958678Y-112839479D01*
X59953847Y-112837970D01*
X59847307Y-112799850D01*
X59788120Y-112778672D01*
X59625746Y-112716342D01*
X59621455Y-112714506D01*
X59461529Y-112638868D01*
X59307006Y-112560133D01*
X59303278Y-112558070D01*
X59151038Y-112466822D01*
X59005736Y-112372461D01*
X59002570Y-112370262D01*
X58859676Y-112264285D01*
X58725023Y-112155246D01*
X58722404Y-112153001D01*
X58591481Y-112034340D01*
X58589277Y-112032241D01*
X58467757Y-111910721D01*
X58465658Y-111908517D01*
X58346997Y-111777594D01*
X58344752Y-111774975D01*
X58235714Y-111640323D01*
X58129736Y-111497428D01*
X58127537Y-111494262D01*
X58033177Y-111348961D01*
X58020718Y-111328175D01*
X57963776Y-111233172D01*
X57941928Y-111196720D01*
X57939864Y-111192992D01*
X57861131Y-111038470D01*
X57785492Y-110878543D01*
X57783656Y-110874252D01*
X57735097Y-110747752D01*
X57721327Y-110711879D01*
X57662018Y-110546122D01*
X57660525Y-110541341D01*
X57615206Y-110372209D01*
X57572804Y-110202929D01*
X57571716Y-110197594D01*
X57543854Y-110021682D01*
X57518745Y-109852409D01*
X57518164Y-109846607D01*
X57507989Y-109652438D01*
X57506945Y-109631187D01*
X59249500Y-109631187D01*
X59269794Y-109765823D01*
X59288604Y-109890615D01*
X59288605Y-109890617D01*
X59288606Y-109890623D01*
X59365938Y-110141326D01*
X59479767Y-110377696D01*
X59479768Y-110377697D01*
X59479770Y-110377700D01*
X59479772Y-110377704D01*
X59583679Y-110530107D01*
X59627567Y-110594479D01*
X59806014Y-110786801D01*
X59806018Y-110786804D01*
X59806019Y-110786805D01*
X60011143Y-110950386D01*
X60238357Y-111081568D01*
X60482584Y-111177420D01*
X60738370Y-111235802D01*
X60738376Y-111235802D01*
X60738379Y-111235803D01*
X60934500Y-111250500D01*
X60934506Y-111250500D01*
X61065500Y-111250500D01*
X61261620Y-111235803D01*
X61261622Y-111235802D01*
X61261630Y-111235802D01*
X61517416Y-111177420D01*
X61761643Y-111081568D01*
X61988857Y-110950386D01*
X62193981Y-110786805D01*
X62372433Y-110594479D01*
X62520228Y-110377704D01*
X62634063Y-110141323D01*
X62711396Y-109890615D01*
X62750500Y-109631182D01*
X62750500Y-109500001D01*
X65594645Y-109500001D01*
X65614039Y-109771160D01*
X65614040Y-109771167D01*
X65640025Y-109890617D01*
X65671825Y-110036801D01*
X65731798Y-110197594D01*
X65766830Y-110291519D01*
X65897109Y-110530107D01*
X65897110Y-110530108D01*
X65897113Y-110530113D01*
X66060029Y-110747742D01*
X66060033Y-110747746D01*
X66060038Y-110747752D01*
X66252247Y-110939961D01*
X66252253Y-110939966D01*
X66252258Y-110939971D01*
X66469887Y-111102887D01*
X66469891Y-111102889D01*
X66469892Y-111102890D01*
X66708481Y-111233169D01*
X66708480Y-111233169D01*
X66708484Y-111233170D01*
X66708487Y-111233172D01*
X66963199Y-111328175D01*
X67228840Y-111385961D01*
X67480604Y-111403967D01*
X67499999Y-111405355D01*
X67500000Y-111405355D01*
X67500001Y-111405355D01*
X67518100Y-111404060D01*
X67771160Y-111385961D01*
X68036801Y-111328175D01*
X68291513Y-111233172D01*
X68291517Y-111233169D01*
X68291519Y-111233169D01*
X68444467Y-111149653D01*
X68530113Y-111102887D01*
X68747742Y-110939971D01*
X68939971Y-110747742D01*
X69102887Y-110530113D01*
X69189109Y-110372209D01*
X69233169Y-110291519D01*
X69233169Y-110291517D01*
X69233172Y-110291513D01*
X69328175Y-110036801D01*
X69385961Y-109771160D01*
X69405355Y-109500001D01*
X71094645Y-109500001D01*
X71114039Y-109771160D01*
X71114040Y-109771167D01*
X71140025Y-109890617D01*
X71171825Y-110036801D01*
X71231798Y-110197594D01*
X71266830Y-110291519D01*
X71397109Y-110530107D01*
X71397110Y-110530108D01*
X71397113Y-110530113D01*
X71560029Y-110747742D01*
X71560033Y-110747746D01*
X71560038Y-110747752D01*
X71752247Y-110939961D01*
X71752253Y-110939966D01*
X71752258Y-110939971D01*
X71969887Y-111102887D01*
X71969891Y-111102889D01*
X71969892Y-111102890D01*
X72208481Y-111233169D01*
X72208480Y-111233169D01*
X72208484Y-111233170D01*
X72208487Y-111233172D01*
X72463199Y-111328175D01*
X72728840Y-111385961D01*
X72980605Y-111403967D01*
X72999999Y-111405355D01*
X73000000Y-111405355D01*
X73000001Y-111405355D01*
X73018100Y-111404060D01*
X73271160Y-111385961D01*
X73536801Y-111328175D01*
X73791513Y-111233172D01*
X73791517Y-111233169D01*
X73791519Y-111233169D01*
X73944467Y-111149653D01*
X74030113Y-111102887D01*
X74247742Y-110939971D01*
X74439971Y-110747742D01*
X74602887Y-110530113D01*
X74689109Y-110372209D01*
X74733169Y-110291519D01*
X74733169Y-110291517D01*
X74733172Y-110291513D01*
X74828175Y-110036801D01*
X74885961Y-109771160D01*
X74895972Y-109631187D01*
X77249500Y-109631187D01*
X77269794Y-109765823D01*
X77288604Y-109890615D01*
X77288605Y-109890617D01*
X77288606Y-109890623D01*
X77365938Y-110141326D01*
X77479767Y-110377696D01*
X77479768Y-110377697D01*
X77479770Y-110377700D01*
X77479772Y-110377704D01*
X77583679Y-110530107D01*
X77627567Y-110594479D01*
X77806014Y-110786801D01*
X77806018Y-110786804D01*
X77806019Y-110786805D01*
X78011143Y-110950386D01*
X78238357Y-111081568D01*
X78482584Y-111177420D01*
X78738370Y-111235802D01*
X78738376Y-111235802D01*
X78738379Y-111235803D01*
X78934500Y-111250500D01*
X78934506Y-111250500D01*
X79065500Y-111250500D01*
X79261620Y-111235803D01*
X79261622Y-111235802D01*
X79261630Y-111235802D01*
X79517416Y-111177420D01*
X79761643Y-111081568D01*
X79988857Y-110950386D01*
X80193981Y-110786805D01*
X80372433Y-110594479D01*
X80520228Y-110377704D01*
X80634063Y-110141323D01*
X80711396Y-109890615D01*
X80750500Y-109631182D01*
X80750500Y-109368818D01*
X80711396Y-109109385D01*
X80634063Y-108858677D01*
X80577675Y-108741585D01*
X80520232Y-108622303D01*
X80520231Y-108622302D01*
X80520230Y-108622301D01*
X80520228Y-108622296D01*
X80372433Y-108405521D01*
X80362441Y-108394753D01*
X80193985Y-108213198D01*
X80154533Y-108181736D01*
X79988857Y-108049614D01*
X79761643Y-107918432D01*
X79517416Y-107822580D01*
X79517411Y-107822578D01*
X79517402Y-107822576D01*
X79273161Y-107766830D01*
X79261630Y-107764198D01*
X79261629Y-107764197D01*
X79261625Y-107764197D01*
X79261620Y-107764196D01*
X79065500Y-107749500D01*
X79065494Y-107749500D01*
X78934506Y-107749500D01*
X78934500Y-107749500D01*
X78738379Y-107764196D01*
X78738374Y-107764197D01*
X78482597Y-107822576D01*
X78482578Y-107822582D01*
X78238356Y-107918432D01*
X78011143Y-108049614D01*
X77806014Y-108213198D01*
X77627567Y-108405520D01*
X77479768Y-108622302D01*
X77479767Y-108622303D01*
X77365938Y-108858673D01*
X77288606Y-109109376D01*
X77288605Y-109109381D01*
X77288604Y-109109385D01*
X77273853Y-109207247D01*
X77249500Y-109368812D01*
X77249500Y-109631187D01*
X74895972Y-109631187D01*
X74905355Y-109500000D01*
X74905245Y-109498469D01*
X74902765Y-109463799D01*
X74885961Y-109228840D01*
X74828175Y-108963199D01*
X74733172Y-108708487D01*
X74733170Y-108708484D01*
X74733169Y-108708480D01*
X74602890Y-108469892D01*
X74602889Y-108469891D01*
X74602887Y-108469887D01*
X74439971Y-108252258D01*
X74439966Y-108252253D01*
X74439961Y-108252247D01*
X74247752Y-108060038D01*
X74247746Y-108060033D01*
X74247742Y-108060029D01*
X74030113Y-107897113D01*
X74030108Y-107897110D01*
X74030107Y-107897109D01*
X73791518Y-107766830D01*
X73791519Y-107766830D01*
X73681998Y-107725981D01*
X73536801Y-107671825D01*
X73536794Y-107671823D01*
X73536793Y-107671823D01*
X73271167Y-107614040D01*
X73271160Y-107614039D01*
X73000001Y-107594645D01*
X72999999Y-107594645D01*
X72728839Y-107614039D01*
X72728832Y-107614040D01*
X72463206Y-107671823D01*
X72463202Y-107671824D01*
X72463199Y-107671825D01*
X72335842Y-107719326D01*
X72208480Y-107766830D01*
X71969892Y-107897109D01*
X71969891Y-107897110D01*
X71752259Y-108060028D01*
X71752247Y-108060038D01*
X71560038Y-108252247D01*
X71560028Y-108252259D01*
X71397110Y-108469891D01*
X71397109Y-108469892D01*
X71266830Y-108708480D01*
X71254483Y-108741585D01*
X71171825Y-108963199D01*
X71171824Y-108963202D01*
X71171823Y-108963206D01*
X71114040Y-109228832D01*
X71114039Y-109228839D01*
X71094645Y-109499998D01*
X71094645Y-109500001D01*
X69405355Y-109500001D01*
X69405355Y-109500000D01*
X69405245Y-109498469D01*
X69402765Y-109463799D01*
X69385961Y-109228840D01*
X69328175Y-108963199D01*
X69245517Y-108741585D01*
X69240533Y-108671894D01*
X69274016Y-108610573D01*
X74447771Y-103436819D01*
X74509095Y-103403334D01*
X74535453Y-103400500D01*
X74544644Y-103400500D01*
X74544646Y-103400500D01*
X74729803Y-103361144D01*
X74902730Y-103284151D01*
X75055871Y-103172888D01*
X75182533Y-103032216D01*
X75277179Y-102868284D01*
X75335674Y-102688256D01*
X75355460Y-102500000D01*
X75355459Y-102499998D01*
X75356139Y-102493537D01*
X75358603Y-102493795D01*
X75375145Y-102437461D01*
X75427949Y-102391706D01*
X75479460Y-102380500D01*
X79210909Y-102380500D01*
X79277948Y-102400185D01*
X79323292Y-102452097D01*
X79325965Y-102457830D01*
X79351148Y-102493795D01*
X79461501Y-102651395D01*
X79461506Y-102651402D01*
X79628597Y-102818493D01*
X79628603Y-102818498D01*
X79814594Y-102948730D01*
X79858219Y-103003307D01*
X79865413Y-103072805D01*
X79833890Y-103135160D01*
X79814595Y-103151880D01*
X79628922Y-103281890D01*
X79628920Y-103281891D01*
X79461891Y-103448920D01*
X79461886Y-103448926D01*
X79326400Y-103642420D01*
X79326399Y-103642422D01*
X79226570Y-103856507D01*
X79226567Y-103856513D01*
X79169364Y-104069999D01*
X79169364Y-104070000D01*
X80066314Y-104070000D01*
X80040507Y-104110156D01*
X80000000Y-104248111D01*
X80000000Y-104391889D01*
X80040507Y-104529844D01*
X80066314Y-104570000D01*
X79169364Y-104570000D01*
X79226567Y-104783486D01*
X79226570Y-104783492D01*
X79326399Y-104997578D01*
X79461894Y-105191082D01*
X79628917Y-105358105D01*
X79822421Y-105493600D01*
X80036507Y-105593429D01*
X80036516Y-105593433D01*
X80250000Y-105650634D01*
X80250000Y-104755501D01*
X80357685Y-104804680D01*
X80464237Y-104820000D01*
X80535763Y-104820000D01*
X80642315Y-104804680D01*
X80750000Y-104755501D01*
X80750000Y-105650633D01*
X80963483Y-105593433D01*
X80963492Y-105593429D01*
X81177578Y-105493600D01*
X81371082Y-105358105D01*
X81538105Y-105191082D01*
X81673600Y-104997578D01*
X81773429Y-104783492D01*
X81773432Y-104783486D01*
X81830636Y-104570000D01*
X80933686Y-104570000D01*
X80959493Y-104529844D01*
X81000000Y-104391889D01*
X81000000Y-104248111D01*
X80959493Y-104110156D01*
X80933686Y-104070000D01*
X81830636Y-104070000D01*
X81830635Y-104069999D01*
X81773432Y-103856513D01*
X81773429Y-103856507D01*
X81673600Y-103642422D01*
X81673599Y-103642420D01*
X81538113Y-103448926D01*
X81538108Y-103448920D01*
X81371078Y-103281890D01*
X81185405Y-103151879D01*
X81141780Y-103097302D01*
X81134588Y-103027804D01*
X81166110Y-102965449D01*
X81185406Y-102948730D01*
X81371401Y-102818495D01*
X81538495Y-102651401D01*
X81674035Y-102457830D01*
X81773903Y-102243663D01*
X81835063Y-102015408D01*
X81855659Y-101780000D01*
X81835063Y-101544592D01*
X81773903Y-101316337D01*
X81674035Y-101102171D01*
X81674034Y-101102169D01*
X81538494Y-100908597D01*
X81371402Y-100741506D01*
X81371401Y-100741505D01*
X81247041Y-100654427D01*
X81185841Y-100611574D01*
X81142216Y-100556997D01*
X81135024Y-100487498D01*
X81166546Y-100425144D01*
X81185836Y-100408428D01*
X81371401Y-100278495D01*
X81538495Y-100111401D01*
X81674035Y-99917830D01*
X81773903Y-99703663D01*
X81835063Y-99475408D01*
X81855659Y-99240000D01*
X81835063Y-99004592D01*
X81773903Y-98776337D01*
X81674035Y-98562171D01*
X81552174Y-98388135D01*
X81538496Y-98368600D01*
X81498409Y-98328513D01*
X81416567Y-98246671D01*
X81383084Y-98185351D01*
X81388068Y-98115659D01*
X81429939Y-98059725D01*
X81460915Y-98042810D01*
X81592331Y-97993796D01*
X81707546Y-97907546D01*
X81793796Y-97792331D01*
X81844091Y-97657483D01*
X81850500Y-97597873D01*
X81850499Y-95802128D01*
X81844091Y-95742517D01*
X81837517Y-95724892D01*
X81793797Y-95607671D01*
X81793793Y-95607664D01*
X81707547Y-95492455D01*
X81707544Y-95492452D01*
X81592335Y-95406206D01*
X81592328Y-95406202D01*
X81457482Y-95355908D01*
X81457483Y-95355908D01*
X81397883Y-95349501D01*
X81397881Y-95349500D01*
X81397873Y-95349500D01*
X81397864Y-95349500D01*
X79602129Y-95349500D01*
X79602123Y-95349501D01*
X79542516Y-95355908D01*
X79407671Y-95406202D01*
X79407664Y-95406206D01*
X79292455Y-95492452D01*
X79292452Y-95492455D01*
X79206206Y-95607664D01*
X79206202Y-95607671D01*
X79155908Y-95742517D01*
X79149501Y-95802116D01*
X79149501Y-95802123D01*
X79149500Y-95802135D01*
X79149500Y-96937769D01*
X79129815Y-97004808D01*
X79113181Y-97025450D01*
X75695451Y-100443181D01*
X75634128Y-100476666D01*
X75607770Y-100479500D01*
X73889668Y-100479500D01*
X73822629Y-100459815D01*
X73776874Y-100407011D01*
X73766930Y-100337853D01*
X73768990Y-100326988D01*
X73770287Y-100321492D01*
X73770291Y-100321483D01*
X73776700Y-100261873D01*
X73776699Y-99658128D01*
X73770291Y-99598517D01*
X73724374Y-99475408D01*
X73719997Y-99463671D01*
X73719995Y-99463668D01*
X73671817Y-99399310D01*
X73647400Y-99333846D01*
X73662252Y-99265573D01*
X73671811Y-99250697D01*
X73719996Y-99186331D01*
X73770291Y-99051483D01*
X73776700Y-98991873D01*
X73776699Y-98388128D01*
X73770291Y-98328517D01*
X73719996Y-98193669D01*
X73719995Y-98193668D01*
X73719993Y-98193664D01*
X73633747Y-98078455D01*
X73633744Y-98078452D01*
X73518535Y-97992206D01*
X73518528Y-97992202D01*
X73383682Y-97941908D01*
X73383684Y-97941908D01*
X73348411Y-97938116D01*
X73283860Y-97911377D01*
X73269518Y-97897799D01*
X73205875Y-97827116D01*
X73205869Y-97827110D01*
X73052734Y-97715851D01*
X73052729Y-97715848D01*
X72879807Y-97638857D01*
X72879802Y-97638855D01*
X72734001Y-97607865D01*
X72694646Y-97599500D01*
X72505354Y-97599500D01*
X72472897Y-97606398D01*
X72320197Y-97638855D01*
X72320192Y-97638857D01*
X72147270Y-97715848D01*
X72147265Y-97715851D01*
X71994135Y-97827106D01*
X71994128Y-97827112D01*
X71900659Y-97930918D01*
X71851846Y-97964126D01*
X71776565Y-97992205D01*
X71661355Y-98078452D01*
X71661352Y-98078455D01*
X71575106Y-98193664D01*
X71575102Y-98193671D01*
X71524810Y-98328513D01*
X71524809Y-98328517D01*
X71518400Y-98388127D01*
X71518400Y-98388134D01*
X71518400Y-98388135D01*
X71518400Y-98991870D01*
X71518401Y-98991876D01*
X71524808Y-99051483D01*
X71575102Y-99186328D01*
X71575104Y-99186331D01*
X71623282Y-99250689D01*
X71647699Y-99316154D01*
X71632847Y-99384427D01*
X71623282Y-99399311D01*
X71575104Y-99463668D01*
X71575102Y-99463671D01*
X71524810Y-99598513D01*
X71524809Y-99598517D01*
X71518400Y-99658127D01*
X71518400Y-99658134D01*
X71518400Y-99658135D01*
X71518400Y-100261870D01*
X71518401Y-100261876D01*
X71524808Y-100321483D01*
X71575102Y-100456328D01*
X71575104Y-100456331D01*
X71623282Y-100520689D01*
X71647699Y-100586154D01*
X71632847Y-100654427D01*
X71623282Y-100669311D01*
X71575104Y-100733668D01*
X71575102Y-100733671D01*
X71524810Y-100868513D01*
X71524809Y-100868517D01*
X71518400Y-100928127D01*
X71518400Y-100928134D01*
X71518400Y-100928135D01*
X71518400Y-101531870D01*
X71518401Y-101531876D01*
X71524808Y-101591483D01*
X71575102Y-101726328D01*
X71575104Y-101726331D01*
X71623282Y-101790689D01*
X71647699Y-101856154D01*
X71632847Y-101924427D01*
X71623282Y-101939311D01*
X71575104Y-102003668D01*
X71575102Y-102003671D01*
X71527799Y-102130500D01*
X71524809Y-102138517D01*
X71518400Y-102198127D01*
X71518400Y-102198134D01*
X71518400Y-102198135D01*
X71518400Y-102801870D01*
X71518401Y-102801876D01*
X71524808Y-102861483D01*
X71575102Y-102996328D01*
X71575106Y-102996335D01*
X71661352Y-103111544D01*
X71661355Y-103111547D01*
X71776564Y-103197793D01*
X71776571Y-103197797D01*
X71911416Y-103248091D01*
X71971015Y-103254499D01*
X71971020Y-103254499D01*
X71971027Y-103254500D01*
X71971033Y-103254499D01*
X71972670Y-103254588D01*
X71973034Y-103254716D01*
X71974331Y-103254856D01*
X71974298Y-103255162D01*
X72038563Y-103277826D01*
X72038931Y-103278093D01*
X72047269Y-103284151D01*
X72220192Y-103361142D01*
X72220197Y-103361144D01*
X72405354Y-103400500D01*
X72405355Y-103400500D01*
X72415546Y-103400500D01*
X72482585Y-103420185D01*
X72528340Y-103472989D01*
X72538284Y-103542147D01*
X72509259Y-103605703D01*
X72503227Y-103612181D01*
X68389426Y-107725981D01*
X68328103Y-107759466D01*
X68258412Y-107754482D01*
X68036801Y-107671825D01*
X68036794Y-107671823D01*
X68036793Y-107671823D01*
X67771167Y-107614040D01*
X67771160Y-107614039D01*
X67500001Y-107594645D01*
X67499999Y-107594645D01*
X67228839Y-107614039D01*
X67228832Y-107614040D01*
X66963206Y-107671823D01*
X66963202Y-107671824D01*
X66963199Y-107671825D01*
X66835842Y-107719326D01*
X66708480Y-107766830D01*
X66469892Y-107897109D01*
X66469891Y-107897110D01*
X66252259Y-108060028D01*
X66252247Y-108060038D01*
X66060038Y-108252247D01*
X66060028Y-108252259D01*
X65897110Y-108469891D01*
X65897109Y-108469892D01*
X65766830Y-108708480D01*
X65754483Y-108741585D01*
X65671825Y-108963199D01*
X65671824Y-108963202D01*
X65671823Y-108963206D01*
X65614040Y-109228832D01*
X65614039Y-109228839D01*
X65594645Y-109499998D01*
X65594645Y-109500001D01*
X62750500Y-109500001D01*
X62750500Y-109368818D01*
X62711396Y-109109385D01*
X62634063Y-108858677D01*
X62577675Y-108741585D01*
X62520232Y-108622303D01*
X62520231Y-108622302D01*
X62520230Y-108622301D01*
X62520228Y-108622296D01*
X62372433Y-108405521D01*
X62362441Y-108394753D01*
X62193985Y-108213198D01*
X62154533Y-108181736D01*
X61988857Y-108049614D01*
X61761643Y-107918432D01*
X61517416Y-107822580D01*
X61517411Y-107822578D01*
X61517402Y-107822576D01*
X61273161Y-107766830D01*
X61261630Y-107764198D01*
X61261629Y-107764197D01*
X61261625Y-107764197D01*
X61261620Y-107764196D01*
X61065500Y-107749500D01*
X61065494Y-107749500D01*
X60934506Y-107749500D01*
X60934500Y-107749500D01*
X60738379Y-107764196D01*
X60738374Y-107764197D01*
X60482597Y-107822576D01*
X60482578Y-107822582D01*
X60238356Y-107918432D01*
X60011143Y-108049614D01*
X59806014Y-108213198D01*
X59627567Y-108405520D01*
X59479768Y-108622302D01*
X59479767Y-108622303D01*
X59365938Y-108858673D01*
X59288606Y-109109376D01*
X59288605Y-109109381D01*
X59288604Y-109109385D01*
X59273853Y-109207247D01*
X59249500Y-109368812D01*
X59249500Y-109631187D01*
X57506945Y-109631187D01*
X57503797Y-109567131D01*
X57500575Y-109501513D01*
X57500500Y-109498471D01*
X57500500Y-101780000D01*
X58144341Y-101780000D01*
X58164936Y-102015403D01*
X58164938Y-102015413D01*
X58226094Y-102243655D01*
X58226096Y-102243659D01*
X58226097Y-102243663D01*
X58295131Y-102391706D01*
X58325965Y-102457830D01*
X58325967Y-102457834D01*
X58461501Y-102651395D01*
X58461506Y-102651402D01*
X58628597Y-102818493D01*
X58628603Y-102818498D01*
X58814594Y-102948730D01*
X58858219Y-103003307D01*
X58865413Y-103072805D01*
X58833890Y-103135160D01*
X58814595Y-103151880D01*
X58628922Y-103281890D01*
X58628920Y-103281891D01*
X58461891Y-103448920D01*
X58461886Y-103448926D01*
X58326400Y-103642420D01*
X58326399Y-103642422D01*
X58226570Y-103856507D01*
X58226567Y-103856513D01*
X58169364Y-104069999D01*
X58169364Y-104070000D01*
X59066314Y-104070000D01*
X59040507Y-104110156D01*
X59000000Y-104248111D01*
X59000000Y-104391889D01*
X59040507Y-104529844D01*
X59066314Y-104570000D01*
X58169364Y-104570000D01*
X58226567Y-104783486D01*
X58226570Y-104783492D01*
X58326399Y-104997578D01*
X58461894Y-105191082D01*
X58628917Y-105358105D01*
X58822421Y-105493600D01*
X59036507Y-105593429D01*
X59036516Y-105593433D01*
X59249998Y-105650635D01*
X59249999Y-105650634D01*
X59249999Y-104755501D01*
X59357685Y-104804680D01*
X59464237Y-104820000D01*
X59535763Y-104820000D01*
X59642315Y-104804680D01*
X59750000Y-104755501D01*
X59750000Y-105650633D01*
X59963483Y-105593433D01*
X59963492Y-105593429D01*
X60177578Y-105493600D01*
X60371082Y-105358105D01*
X60538105Y-105191082D01*
X60673600Y-104997578D01*
X60773429Y-104783492D01*
X60773432Y-104783486D01*
X60830636Y-104570000D01*
X59933686Y-104570000D01*
X59959493Y-104529844D01*
X60000000Y-104391889D01*
X60000000Y-104248111D01*
X59959493Y-104110156D01*
X59933686Y-104070000D01*
X60830636Y-104070000D01*
X60830635Y-104069999D01*
X60773432Y-103856513D01*
X60773429Y-103856507D01*
X60673600Y-103642422D01*
X60673599Y-103642420D01*
X60538113Y-103448926D01*
X60538108Y-103448920D01*
X60371078Y-103281890D01*
X60185405Y-103151879D01*
X60141780Y-103097302D01*
X60134588Y-103027804D01*
X60166110Y-102965449D01*
X60185406Y-102948730D01*
X60371401Y-102818495D01*
X60439896Y-102750000D01*
X66273800Y-102750000D01*
X66273800Y-102801844D01*
X66280201Y-102861372D01*
X66280203Y-102861379D01*
X66330445Y-102996086D01*
X66330449Y-102996093D01*
X66416609Y-103111187D01*
X66416612Y-103111190D01*
X66531706Y-103197350D01*
X66531713Y-103197354D01*
X66666420Y-103247596D01*
X66666427Y-103247598D01*
X66725955Y-103253999D01*
X66725972Y-103254000D01*
X67152450Y-103254000D01*
X67152450Y-102750000D01*
X67652450Y-102750000D01*
X67652450Y-103254000D01*
X68078928Y-103254000D01*
X68078944Y-103253999D01*
X68138472Y-103247598D01*
X68138479Y-103247596D01*
X68273186Y-103197354D01*
X68273193Y-103197350D01*
X68388287Y-103111190D01*
X68388290Y-103111187D01*
X68474450Y-102996093D01*
X68474454Y-102996086D01*
X68524696Y-102861379D01*
X68524698Y-102861372D01*
X68531099Y-102801844D01*
X68531100Y-102801827D01*
X68531100Y-102750000D01*
X67652450Y-102750000D01*
X67152450Y-102750000D01*
X66273800Y-102750000D01*
X60439896Y-102750000D01*
X60538495Y-102651401D01*
X60674035Y-102457830D01*
X60773903Y-102243663D01*
X60835063Y-102015408D01*
X60855659Y-101780000D01*
X60835063Y-101544592D01*
X60773903Y-101316337D01*
X60674035Y-101102171D01*
X60674034Y-101102169D01*
X60538496Y-100908600D01*
X60498409Y-100868513D01*
X60427075Y-100797179D01*
X60393592Y-100735859D01*
X60398576Y-100666167D01*
X60440447Y-100610233D01*
X60505911Y-100585816D01*
X60514758Y-100585500D01*
X66206674Y-100585500D01*
X66273713Y-100605185D01*
X66319468Y-100657989D01*
X66329412Y-100727147D01*
X66322856Y-100752833D01*
X66279709Y-100868517D01*
X66273300Y-100928127D01*
X66273300Y-100928134D01*
X66273300Y-100928135D01*
X66273300Y-101531870D01*
X66273301Y-101531876D01*
X66279708Y-101591483D01*
X66330002Y-101726328D01*
X66330003Y-101726330D01*
X66330004Y-101726331D01*
X66378182Y-101790689D01*
X66378494Y-101791105D01*
X66402911Y-101856569D01*
X66388060Y-101924842D01*
X66378494Y-101939726D01*
X66330449Y-102003906D01*
X66330445Y-102003913D01*
X66280203Y-102138620D01*
X66280201Y-102138627D01*
X66273800Y-102198155D01*
X66273800Y-102250000D01*
X68531100Y-102250000D01*
X68531100Y-102198172D01*
X68531099Y-102198155D01*
X68524698Y-102138627D01*
X68524696Y-102138620D01*
X68474454Y-102003913D01*
X68474452Y-102003910D01*
X68426405Y-101939727D01*
X68401988Y-101874263D01*
X68416840Y-101805990D01*
X68426400Y-101791112D01*
X68474896Y-101726331D01*
X68525191Y-101591483D01*
X68531600Y-101531873D01*
X68531599Y-100928128D01*
X68525191Y-100868517D01*
X68474896Y-100733669D01*
X68426717Y-100669311D01*
X68402300Y-100603847D01*
X68417151Y-100535574D01*
X68426716Y-100520691D01*
X68474896Y-100456331D01*
X68525191Y-100321483D01*
X68531600Y-100261873D01*
X68531599Y-99658128D01*
X68525191Y-99598517D01*
X68479274Y-99475408D01*
X68474897Y-99463671D01*
X68474895Y-99463668D01*
X68426718Y-99399312D01*
X68402300Y-99333847D01*
X68417151Y-99265574D01*
X68426716Y-99250691D01*
X68474896Y-99186331D01*
X68525191Y-99051483D01*
X68531600Y-98991873D01*
X68531599Y-98388128D01*
X68525191Y-98328517D01*
X68474896Y-98193669D01*
X68419936Y-98120252D01*
X68395519Y-98054790D01*
X68410370Y-97986516D01*
X68459775Y-97937111D01*
X68468737Y-97932676D01*
X68560431Y-97891852D01*
X68713572Y-97780589D01*
X68840234Y-97639917D01*
X68934880Y-97475985D01*
X68993375Y-97295957D01*
X69013161Y-97107701D01*
X68993375Y-96919445D01*
X68934880Y-96739417D01*
X68876412Y-96638148D01*
X68859940Y-96570250D01*
X68882793Y-96504223D01*
X68896113Y-96488475D01*
X72110573Y-93274015D01*
X72171894Y-93240532D01*
X72241581Y-93245515D01*
X72463199Y-93328175D01*
X72728840Y-93385961D01*
X72980605Y-93403967D01*
X72999999Y-93405355D01*
X73000000Y-93405355D01*
X73000001Y-93405355D01*
X73018100Y-93404060D01*
X73271160Y-93385961D01*
X73536801Y-93328175D01*
X73791513Y-93233172D01*
X73791517Y-93233169D01*
X73791519Y-93233169D01*
X73910812Y-93168029D01*
X74030113Y-93102887D01*
X74247742Y-92939971D01*
X74439971Y-92747742D01*
X74602887Y-92530113D01*
X74713017Y-92328425D01*
X74733169Y-92291519D01*
X74733169Y-92291517D01*
X74733172Y-92291513D01*
X74828175Y-92036801D01*
X74885961Y-91771160D01*
X74895972Y-91631187D01*
X77249500Y-91631187D01*
X77269794Y-91765823D01*
X77288604Y-91890615D01*
X77288605Y-91890617D01*
X77288606Y-91890623D01*
X77365938Y-92141326D01*
X77479767Y-92377696D01*
X77479768Y-92377697D01*
X77479770Y-92377700D01*
X77479772Y-92377704D01*
X77583679Y-92530107D01*
X77627567Y-92594479D01*
X77806014Y-92786801D01*
X77806018Y-92786804D01*
X77806019Y-92786805D01*
X78011143Y-92950386D01*
X78238357Y-93081568D01*
X78482584Y-93177420D01*
X78738370Y-93235802D01*
X78738376Y-93235802D01*
X78738379Y-93235803D01*
X78934500Y-93250500D01*
X78934506Y-93250500D01*
X79065500Y-93250500D01*
X79261620Y-93235803D01*
X79261622Y-93235802D01*
X79261630Y-93235802D01*
X79517416Y-93177420D01*
X79761643Y-93081568D01*
X79988857Y-92950386D01*
X80193981Y-92786805D01*
X80372433Y-92594479D01*
X80520228Y-92377704D01*
X80634063Y-92141323D01*
X80711396Y-91890615D01*
X80750500Y-91631182D01*
X80750500Y-91368818D01*
X80711396Y-91109385D01*
X80634063Y-90858677D01*
X80604388Y-90797056D01*
X80520232Y-90622303D01*
X80520231Y-90622302D01*
X80520230Y-90622301D01*
X80520228Y-90622296D01*
X80372433Y-90405521D01*
X80362441Y-90394753D01*
X80193985Y-90213198D01*
X80154533Y-90181736D01*
X79988857Y-90049614D01*
X79761643Y-89918432D01*
X79517416Y-89822580D01*
X79517411Y-89822578D01*
X79517402Y-89822576D01*
X79273161Y-89766830D01*
X79261630Y-89764198D01*
X79261629Y-89764197D01*
X79261625Y-89764197D01*
X79261620Y-89764196D01*
X79065500Y-89749500D01*
X79065494Y-89749500D01*
X78934506Y-89749500D01*
X78934500Y-89749500D01*
X78738379Y-89764196D01*
X78738374Y-89764197D01*
X78482597Y-89822576D01*
X78482578Y-89822582D01*
X78238356Y-89918432D01*
X78011143Y-90049614D01*
X77806014Y-90213198D01*
X77627567Y-90405520D01*
X77479768Y-90622302D01*
X77479767Y-90622303D01*
X77365938Y-90858673D01*
X77288606Y-91109376D01*
X77288605Y-91109381D01*
X77288604Y-91109385D01*
X77281429Y-91156989D01*
X77249500Y-91368812D01*
X77249500Y-91631187D01*
X74895972Y-91631187D01*
X74905355Y-91500000D01*
X74885961Y-91228840D01*
X74828175Y-90963199D01*
X74733172Y-90708487D01*
X74733170Y-90708484D01*
X74733169Y-90708480D01*
X74602890Y-90469892D01*
X74602889Y-90469891D01*
X74602887Y-90469887D01*
X74439971Y-90252258D01*
X74439966Y-90252253D01*
X74439961Y-90252247D01*
X74247752Y-90060038D01*
X74247746Y-90060033D01*
X74247742Y-90060029D01*
X74030113Y-89897113D01*
X74030108Y-89897110D01*
X74030107Y-89897109D01*
X73791518Y-89766830D01*
X73791519Y-89766830D01*
X73741920Y-89748330D01*
X73536801Y-89671825D01*
X73536794Y-89671823D01*
X73536793Y-89671823D01*
X73271167Y-89614040D01*
X73271160Y-89614039D01*
X73000001Y-89594645D01*
X72999999Y-89594645D01*
X72728839Y-89614039D01*
X72728832Y-89614040D01*
X72463206Y-89671823D01*
X72463202Y-89671824D01*
X72463199Y-89671825D01*
X72335842Y-89719326D01*
X72208480Y-89766830D01*
X71969892Y-89897109D01*
X71969891Y-89897110D01*
X71752259Y-90060028D01*
X71752247Y-90060038D01*
X71560038Y-90252247D01*
X71560028Y-90252259D01*
X71397110Y-90469891D01*
X71397109Y-90469892D01*
X71266830Y-90708480D01*
X71231791Y-90802424D01*
X71171825Y-90963199D01*
X71171824Y-90963202D01*
X71171823Y-90963206D01*
X71114040Y-91228832D01*
X71114039Y-91228839D01*
X71094645Y-91499998D01*
X71094645Y-91500001D01*
X71114039Y-91771160D01*
X71114040Y-91771167D01*
X71140025Y-91890617D01*
X71171825Y-92036801D01*
X71254482Y-92258411D01*
X71259466Y-92328103D01*
X71225981Y-92389426D01*
X67811680Y-95803727D01*
X67750357Y-95837212D01*
X67680665Y-95832228D01*
X67624732Y-95790356D01*
X67600315Y-95724892D01*
X67599999Y-95716046D01*
X67599999Y-95500028D01*
X67599998Y-95500013D01*
X67589505Y-95397302D01*
X67534358Y-95230880D01*
X67534356Y-95230875D01*
X67442315Y-95081654D01*
X67318345Y-94957684D01*
X67169124Y-94865643D01*
X67169119Y-94865641D01*
X67002697Y-94810494D01*
X67002690Y-94810493D01*
X66899986Y-94800000D01*
X66775000Y-94800000D01*
X66774999Y-97199999D01*
X66899972Y-97199999D01*
X66899986Y-97199998D01*
X67002695Y-97189506D01*
X67057609Y-97171309D01*
X67127437Y-97168907D01*
X67187480Y-97204638D01*
X67218673Y-97267158D01*
X67219934Y-97276050D01*
X67222026Y-97295951D01*
X67222028Y-97295961D01*
X67280519Y-97475978D01*
X67280522Y-97475985D01*
X67375518Y-97640524D01*
X67391991Y-97708425D01*
X67369138Y-97774451D01*
X67314217Y-97817642D01*
X67293916Y-97823813D01*
X67270200Y-97828854D01*
X67270192Y-97828857D01*
X67097275Y-97905845D01*
X67097268Y-97905849D01*
X67089049Y-97911821D01*
X67023242Y-97935298D01*
X67016168Y-97935500D01*
X66725930Y-97935500D01*
X66725923Y-97935501D01*
X66666316Y-97941908D01*
X66531471Y-97992202D01*
X66531464Y-97992206D01*
X66416255Y-98078452D01*
X66416252Y-98078455D01*
X66330006Y-98193664D01*
X66330002Y-98193671D01*
X66279710Y-98328513D01*
X66279709Y-98328517D01*
X66273300Y-98388127D01*
X66273300Y-98388134D01*
X66273300Y-98388135D01*
X66273300Y-98991870D01*
X66273301Y-98991876D01*
X66279708Y-99051483D01*
X66322856Y-99167167D01*
X66327840Y-99236859D01*
X66294355Y-99298182D01*
X66233031Y-99331666D01*
X66206674Y-99334500D01*
X60977552Y-99334500D01*
X60910513Y-99314815D01*
X60864758Y-99262011D01*
X60854024Y-99221308D01*
X60839166Y-99051486D01*
X60835063Y-99004592D01*
X60773903Y-98776337D01*
X60674035Y-98562171D01*
X60552174Y-98388135D01*
X60538496Y-98368600D01*
X60498409Y-98328513D01*
X60416567Y-98246671D01*
X60383084Y-98185351D01*
X60388068Y-98115659D01*
X60429939Y-98059725D01*
X60460915Y-98042810D01*
X60592331Y-97993796D01*
X60707546Y-97907546D01*
X60793796Y-97792331D01*
X60844091Y-97657483D01*
X60850500Y-97597873D01*
X60850499Y-96500001D01*
X63399500Y-96500001D01*
X63399501Y-96500019D01*
X63410000Y-96602796D01*
X63410001Y-96602799D01*
X63455272Y-96739416D01*
X63465186Y-96769334D01*
X63557288Y-96918656D01*
X63681344Y-97042712D01*
X63830666Y-97134814D01*
X63997203Y-97189999D01*
X64099991Y-97200500D01*
X64850008Y-97200499D01*
X64850016Y-97200498D01*
X64850019Y-97200498D01*
X64906302Y-97194748D01*
X64952797Y-97189999D01*
X65119334Y-97134814D01*
X65268656Y-97042712D01*
X65392712Y-96918656D01*
X65394752Y-96915347D01*
X65396745Y-96913555D01*
X65397193Y-96912989D01*
X65397289Y-96913065D01*
X65446694Y-96868623D01*
X65515656Y-96857395D01*
X65579740Y-96885234D01*
X65605829Y-96915339D01*
X65607681Y-96918341D01*
X65607683Y-96918344D01*
X65731654Y-97042315D01*
X65880875Y-97134356D01*
X65880880Y-97134358D01*
X66047302Y-97189505D01*
X66047309Y-97189506D01*
X66150019Y-97199999D01*
X66274998Y-97199999D01*
X66274999Y-97199998D01*
X66275000Y-96250000D01*
X66274999Y-94800000D01*
X66150027Y-94800000D01*
X66150012Y-94800001D01*
X66047302Y-94810494D01*
X65880880Y-94865641D01*
X65880875Y-94865643D01*
X65731654Y-94957684D01*
X65607683Y-95081655D01*
X65607679Y-95081660D01*
X65605826Y-95084665D01*
X65604018Y-95086290D01*
X65603202Y-95087323D01*
X65603025Y-95087183D01*
X65553874Y-95131385D01*
X65484911Y-95142601D01*
X65420831Y-95114752D01*
X65394753Y-95084653D01*
X65394737Y-95084628D01*
X65392712Y-95081344D01*
X65268656Y-94957288D01*
X65119334Y-94865186D01*
X64952797Y-94810001D01*
X64952795Y-94810000D01*
X64850010Y-94799500D01*
X64099998Y-94799500D01*
X64099980Y-94799501D01*
X63997203Y-94810000D01*
X63997200Y-94810001D01*
X63830668Y-94865185D01*
X63830663Y-94865187D01*
X63681342Y-94957289D01*
X63557289Y-95081342D01*
X63465187Y-95230663D01*
X63465185Y-95230668D01*
X63465115Y-95230880D01*
X63410001Y-95397203D01*
X63410001Y-95397204D01*
X63410000Y-95397204D01*
X63399500Y-95499983D01*
X63399500Y-96500001D01*
X60850499Y-96500001D01*
X60850499Y-95802128D01*
X60844091Y-95742517D01*
X60837517Y-95724892D01*
X60793797Y-95607671D01*
X60793793Y-95607664D01*
X60707547Y-95492455D01*
X60707544Y-95492452D01*
X60592335Y-95406206D01*
X60592328Y-95406202D01*
X60457482Y-95355908D01*
X60457483Y-95355908D01*
X60397883Y-95349501D01*
X60397881Y-95349500D01*
X60397873Y-95349500D01*
X60397864Y-95349500D01*
X58602129Y-95349500D01*
X58602123Y-95349501D01*
X58542516Y-95355908D01*
X58407671Y-95406202D01*
X58407664Y-95406206D01*
X58292455Y-95492452D01*
X58292452Y-95492455D01*
X58206206Y-95607664D01*
X58206202Y-95607671D01*
X58155908Y-95742517D01*
X58149501Y-95802116D01*
X58149501Y-95802123D01*
X58149500Y-95802135D01*
X58149500Y-97597870D01*
X58149501Y-97597876D01*
X58155908Y-97657483D01*
X58206202Y-97792328D01*
X58206206Y-97792335D01*
X58292452Y-97907544D01*
X58292455Y-97907547D01*
X58407664Y-97993793D01*
X58407671Y-97993797D01*
X58539081Y-98042810D01*
X58595015Y-98084681D01*
X58619432Y-98150145D01*
X58604580Y-98218418D01*
X58583430Y-98246673D01*
X58461503Y-98368600D01*
X58325965Y-98562169D01*
X58325964Y-98562171D01*
X58226098Y-98776335D01*
X58226094Y-98776344D01*
X58164938Y-99004586D01*
X58164936Y-99004596D01*
X58144341Y-99239999D01*
X58144341Y-99240000D01*
X58164936Y-99475403D01*
X58164938Y-99475413D01*
X58226094Y-99703655D01*
X58226096Y-99703659D01*
X58226097Y-99703663D01*
X58325964Y-99917830D01*
X58325965Y-99917830D01*
X58325967Y-99917834D01*
X58461501Y-100111395D01*
X58461506Y-100111402D01*
X58628597Y-100278493D01*
X58628603Y-100278498D01*
X58814158Y-100408425D01*
X58857783Y-100463002D01*
X58864977Y-100532500D01*
X58833454Y-100594855D01*
X58814158Y-100611575D01*
X58628597Y-100741505D01*
X58461505Y-100908597D01*
X58325965Y-101102169D01*
X58325964Y-101102171D01*
X58226098Y-101316335D01*
X58226094Y-101316344D01*
X58164938Y-101544586D01*
X58164936Y-101544596D01*
X58144341Y-101779999D01*
X58144341Y-101780000D01*
X57500500Y-101780000D01*
X57500500Y-91631187D01*
X59249500Y-91631187D01*
X59269794Y-91765823D01*
X59288604Y-91890615D01*
X59288605Y-91890617D01*
X59288606Y-91890623D01*
X59365938Y-92141326D01*
X59479767Y-92377696D01*
X59479768Y-92377697D01*
X59479770Y-92377700D01*
X59479772Y-92377704D01*
X59583679Y-92530107D01*
X59627567Y-92594479D01*
X59806014Y-92786801D01*
X59806018Y-92786804D01*
X59806019Y-92786805D01*
X60011143Y-92950386D01*
X60238357Y-93081568D01*
X60482584Y-93177420D01*
X60738370Y-93235802D01*
X60738376Y-93235802D01*
X60738379Y-93235803D01*
X60934500Y-93250500D01*
X60934506Y-93250500D01*
X61065500Y-93250500D01*
X61261620Y-93235803D01*
X61261622Y-93235802D01*
X61261630Y-93235802D01*
X61517416Y-93177420D01*
X61761643Y-93081568D01*
X61988857Y-92950386D01*
X62193981Y-92786805D01*
X62372433Y-92594479D01*
X62520228Y-92377704D01*
X62634063Y-92141323D01*
X62711396Y-91890615D01*
X62750500Y-91631182D01*
X62750500Y-91500001D01*
X65594645Y-91500001D01*
X65614039Y-91771160D01*
X65614040Y-91771167D01*
X65640025Y-91890617D01*
X65671825Y-92036801D01*
X65710810Y-92141323D01*
X65766830Y-92291519D01*
X65897109Y-92530107D01*
X65897110Y-92530108D01*
X65897113Y-92530113D01*
X66060029Y-92747742D01*
X66060033Y-92747746D01*
X66060038Y-92747752D01*
X66252247Y-92939961D01*
X66252253Y-92939966D01*
X66252258Y-92939971D01*
X66469887Y-93102887D01*
X66469891Y-93102889D01*
X66469892Y-93102890D01*
X66708481Y-93233169D01*
X66708480Y-93233169D01*
X66708484Y-93233170D01*
X66708487Y-93233172D01*
X66963199Y-93328175D01*
X67228840Y-93385961D01*
X67480604Y-93403967D01*
X67499999Y-93405355D01*
X67500000Y-93405355D01*
X67500001Y-93405355D01*
X67518100Y-93404060D01*
X67771160Y-93385961D01*
X68036801Y-93328175D01*
X68291513Y-93233172D01*
X68291517Y-93233169D01*
X68291519Y-93233169D01*
X68410812Y-93168029D01*
X68530113Y-93102887D01*
X68747742Y-92939971D01*
X68939971Y-92747742D01*
X69102887Y-92530113D01*
X69213017Y-92328425D01*
X69233169Y-92291519D01*
X69233169Y-92291517D01*
X69233172Y-92291513D01*
X69328175Y-92036801D01*
X69385961Y-91771160D01*
X69405355Y-91500000D01*
X69385961Y-91228840D01*
X69328175Y-90963199D01*
X69233172Y-90708487D01*
X69233170Y-90708484D01*
X69233169Y-90708480D01*
X69102890Y-90469892D01*
X69102889Y-90469891D01*
X69102887Y-90469887D01*
X68939971Y-90252258D01*
X68939966Y-90252253D01*
X68939961Y-90252247D01*
X68747752Y-90060038D01*
X68747746Y-90060033D01*
X68747742Y-90060029D01*
X68530113Y-89897113D01*
X68530108Y-89897110D01*
X68530107Y-89897109D01*
X68291518Y-89766830D01*
X68291519Y-89766830D01*
X68241920Y-89748330D01*
X68036801Y-89671825D01*
X68036794Y-89671823D01*
X68036793Y-89671823D01*
X67771167Y-89614040D01*
X67771160Y-89614039D01*
X67500001Y-89594645D01*
X67499999Y-89594645D01*
X67228839Y-89614039D01*
X67228832Y-89614040D01*
X66963206Y-89671823D01*
X66963202Y-89671824D01*
X66963199Y-89671825D01*
X66835842Y-89719326D01*
X66708480Y-89766830D01*
X66469892Y-89897109D01*
X66469891Y-89897110D01*
X66252259Y-90060028D01*
X66252247Y-90060038D01*
X66060038Y-90252247D01*
X66060028Y-90252259D01*
X65897110Y-90469891D01*
X65897109Y-90469892D01*
X65766830Y-90708480D01*
X65731791Y-90802424D01*
X65671825Y-90963199D01*
X65671824Y-90963202D01*
X65671823Y-90963206D01*
X65614040Y-91228832D01*
X65614039Y-91228839D01*
X65594645Y-91499998D01*
X65594645Y-91500001D01*
X62750500Y-91500001D01*
X62750500Y-91368818D01*
X62711396Y-91109385D01*
X62634063Y-90858677D01*
X62604388Y-90797056D01*
X62520232Y-90622303D01*
X62520231Y-90622302D01*
X62520230Y-90622301D01*
X62520228Y-90622296D01*
X62372433Y-90405521D01*
X62362441Y-90394753D01*
X62193985Y-90213198D01*
X62154533Y-90181736D01*
X61988857Y-90049614D01*
X61761643Y-89918432D01*
X61517416Y-89822580D01*
X61517411Y-89822578D01*
X61517402Y-89822576D01*
X61273161Y-89766830D01*
X61261630Y-89764198D01*
X61261629Y-89764197D01*
X61261625Y-89764197D01*
X61261620Y-89764196D01*
X61065500Y-89749500D01*
X61065494Y-89749500D01*
X60934506Y-89749500D01*
X60934500Y-89749500D01*
X60738379Y-89764196D01*
X60738374Y-89764197D01*
X60482597Y-89822576D01*
X60482578Y-89822582D01*
X60238356Y-89918432D01*
X60011143Y-90049614D01*
X59806014Y-90213198D01*
X59627567Y-90405520D01*
X59479768Y-90622302D01*
X59479767Y-90622303D01*
X59365938Y-90858673D01*
X59288606Y-91109376D01*
X59288605Y-91109381D01*
X59288604Y-91109385D01*
X59281429Y-91156989D01*
X59249500Y-91368812D01*
X59249500Y-91631187D01*
X57500500Y-91631187D01*
X57500500Y-91501528D01*
X57500575Y-91498486D01*
X57503058Y-91447916D01*
X57507995Y-91347421D01*
X57518164Y-91153388D01*
X57518744Y-91147594D01*
X57543858Y-90978287D01*
X57571717Y-90802396D01*
X57572801Y-90797083D01*
X57615210Y-90627776D01*
X57660529Y-90458644D01*
X57662013Y-90453891D01*
X57721338Y-90288089D01*
X57783668Y-90125717D01*
X57785492Y-90121455D01*
X57814540Y-90060038D01*
X57861145Y-89961499D01*
X57939877Y-89806982D01*
X57941915Y-89803299D01*
X58033192Y-89651013D01*
X58127560Y-89505701D01*
X58129724Y-89502586D01*
X58235718Y-89359670D01*
X58344785Y-89224983D01*
X58346970Y-89222434D01*
X58465703Y-89091433D01*
X58467717Y-89089318D01*
X58589318Y-88967717D01*
X58591433Y-88965703D01*
X58722434Y-88846970D01*
X58724983Y-88844785D01*
X58859656Y-88735728D01*
X59002586Y-88629724D01*
X59005701Y-88627560D01*
X59151013Y-88533192D01*
X59303299Y-88441915D01*
X59306982Y-88439877D01*
X59461499Y-88361145D01*
X59621462Y-88285488D01*
X59625717Y-88283668D01*
X59788089Y-88221338D01*
X59953891Y-88162013D01*
X59958644Y-88160529D01*
X60127776Y-88115210D01*
X60297083Y-88072801D01*
X60302396Y-88071717D01*
X60478287Y-88043858D01*
X60647594Y-88018744D01*
X60653388Y-88018164D01*
X60847421Y-88007995D01*
X60945332Y-88003185D01*
X60998487Y-88000575D01*
X61001529Y-88000500D01*
X78998471Y-88000500D01*
X79001513Y-88000575D01*
G37*
%TD.AperFunction*%
%TD*%
M02*
