%TF.GenerationSoftware,KiCad,Pcbnew,7.0.6*%
%TF.CreationDate,2023-11-15T12:58:54-06:00*%
%TF.ProjectId,TorqueSensorAmpifierPCB,546f7271-7565-4536-956e-736f72416d70,rev?*%
%TF.SameCoordinates,Original*%
%TF.FileFunction,Copper,L2,Bot*%
%TF.FilePolarity,Positive*%
%FSLAX46Y46*%
G04 Gerber Fmt 4.6, Leading zero omitted, Abs format (unit mm)*
G04 Created by KiCad (PCBNEW 7.0.6) date 2023-11-15 12:58:54*
%MOMM*%
%LPD*%
G01*
G04 APERTURE LIST*
G04 Aperture macros list*
%AMRoundRect*
0 Rectangle with rounded corners*
0 $1 Rounding radius*
0 $2 $3 $4 $5 $6 $7 $8 $9 X,Y pos of 4 corners*
0 Add a 4 corners polygon primitive as box body*
4,1,4,$2,$3,$4,$5,$6,$7,$8,$9,$2,$3,0*
0 Add four circle primitives for the rounded corners*
1,1,$1+$1,$2,$3*
1,1,$1+$1,$4,$5*
1,1,$1+$1,$6,$7*
1,1,$1+$1,$8,$9*
0 Add four rect primitives between the rounded corners*
20,1,$1+$1,$2,$3,$4,$5,0*
20,1,$1+$1,$4,$5,$6,$7,0*
20,1,$1+$1,$6,$7,$8,$9,0*
20,1,$1+$1,$8,$9,$2,$3,0*%
G04 Aperture macros list end*
%TA.AperFunction,ComponentPad*%
%ADD10C,2.800000*%
%TD*%
%TA.AperFunction,ComponentPad*%
%ADD11R,1.700000X1.700000*%
%TD*%
%TA.AperFunction,ComponentPad*%
%ADD12O,1.700000X1.700000*%
%TD*%
%TA.AperFunction,SMDPad,CuDef*%
%ADD13RoundRect,0.250000X-0.250000X-0.475000X0.250000X-0.475000X0.250000X0.475000X-0.250000X0.475000X0*%
%TD*%
%TA.AperFunction,SMDPad,CuDef*%
%ADD14RoundRect,0.250000X-0.262500X-0.450000X0.262500X-0.450000X0.262500X0.450000X-0.262500X0.450000X0*%
%TD*%
%TA.AperFunction,ViaPad*%
%ADD15C,0.800000*%
%TD*%
%TA.AperFunction,Conductor*%
%ADD16C,0.250000*%
%TD*%
%TA.AperFunction,Conductor*%
%ADD17C,0.500000*%
%TD*%
G04 APERTURE END LIST*
D10*
%TO.P,TP1,1,1*%
%TO.N,/SIG_IN_+*%
X73000000Y-91500000D03*
%TD*%
D11*
%TO.P,J2,1,Pin_1*%
%TO.N,+5V*%
X80500000Y-96700000D03*
D12*
%TO.P,J2,2,Pin_2*%
%TO.N,GNDS*%
X80500000Y-99240000D03*
%TO.P,J2,3,Pin_3*%
%TO.N,/SIG_OUT_+*%
X80500000Y-101780000D03*
%TO.P,J2,4,Pin_4*%
%TO.N,GND*%
X80500000Y-104320000D03*
%TD*%
D10*
%TO.P,TP4,1,1*%
%TO.N,GNDS*%
X73000000Y-109500000D03*
%TD*%
%TO.P,TP2,1,1*%
%TO.N,GNDS*%
X67500000Y-91500000D03*
%TD*%
%TO.P,TP3,1,1*%
%TO.N,/SIG_OUT_+*%
X67500000Y-109500000D03*
%TD*%
D11*
%TO.P,J1,1,Pin_1*%
%TO.N,+5V*%
X59500000Y-96700000D03*
D12*
%TO.P,J1,2,Pin_2*%
%TO.N,GNDS*%
X59500000Y-99240000D03*
%TO.P,J1,3,Pin_3*%
%TO.N,/SIG_IN_+*%
X59500000Y-101780000D03*
%TO.P,J1,4,Pin_4*%
%TO.N,GND*%
X59500000Y-104320000D03*
%TD*%
D13*
%TO.P,C2,1*%
%TO.N,Net-(C2-Pad1)*%
X72600000Y-98500000D03*
%TO.P,C2,2*%
%TO.N,Net-(C2-Pad2)*%
X74500000Y-98500000D03*
%TD*%
D14*
%TO.P,R2,1*%
%TO.N,Net-(R2-Pad1)*%
X69587500Y-96500000D03*
%TO.P,R2,2*%
%TO.N,Net-(C2-Pad2)*%
X71412500Y-96500000D03*
%TD*%
D13*
%TO.P,C3,1*%
%TO.N,Net-(C3-Pad1)*%
X72550000Y-102500000D03*
%TO.P,C3,2*%
%TO.N,/SIG_OUT_+*%
X74450000Y-102500000D03*
%TD*%
D14*
%TO.P,R1,1*%
%TO.N,+5V*%
X62587500Y-96000000D03*
%TO.P,R1,2*%
%TO.N,Net-(D1-A)*%
X64412500Y-96000000D03*
%TD*%
D13*
%TO.P,C1,1*%
%TO.N,Net-(U1-BYPASS)*%
X72550000Y-100500000D03*
%TO.P,C1,2*%
%TO.N,GND*%
X74450000Y-100500000D03*
%TD*%
D15*
%TO.N,Net-(U1-BYPASS)*%
X72550000Y-100376498D03*
%TO.N,Net-(C2-Pad1)*%
X72600000Y-98500000D03*
%TO.N,Net-(C3-Pad1)*%
X72500000Y-102500000D03*
%TO.N,/SIG_OUT_+*%
X74450000Y-102500000D03*
%TO.N,Net-(D1-A)*%
X64412500Y-96000000D03*
%TO.N,Net-(R2-Pad1)*%
X67550000Y-98690000D03*
%TO.N,GNDS*%
X67550000Y-99960000D03*
%TO.N,/SIG_IN_+*%
X67550000Y-101230000D03*
X68107701Y-97107701D03*
%TD*%
D16*
%TO.N,GND*%
X82065000Y-98065000D02*
X82375000Y-98375000D01*
X82375000Y-98375000D02*
X82375000Y-102445000D01*
X74450000Y-100500000D02*
X76885000Y-98065000D01*
X76885000Y-98065000D02*
X82065000Y-98065000D01*
X82375000Y-102445000D02*
X80500000Y-104320000D01*
%TO.N,Net-(C2-Pad2)*%
X72500000Y-96500000D02*
X71412500Y-96500000D01*
X74500000Y-98500000D02*
X72500000Y-96500000D01*
%TO.N,Net-(C3-Pad1)*%
X72550000Y-102500000D02*
X72500000Y-102500000D01*
%TO.N,Net-(R2-Pad1)*%
X69587500Y-96500000D02*
X69587500Y-96652500D01*
X69587500Y-96652500D02*
X67550000Y-98690000D01*
%TO.N,GNDS*%
X70425000Y-97188173D02*
X67653173Y-99960000D01*
X70425000Y-94425000D02*
X70425000Y-97188173D01*
X67500000Y-91500000D02*
X70425000Y-94425000D01*
X73000000Y-109500000D02*
X73000000Y-106740000D01*
X73000000Y-105410000D02*
X67550000Y-99960000D01*
X73000000Y-109500000D02*
X73000000Y-105410000D01*
X67653173Y-99960000D02*
X67550000Y-99960000D01*
X73000000Y-106740000D02*
X80500000Y-99240000D01*
%TO.N,/SIG_IN_+*%
X59500000Y-101780000D02*
X67000000Y-101780000D01*
X68107701Y-97107701D02*
X66825000Y-98390402D01*
X66825000Y-100505000D02*
X67550000Y-101230000D01*
X66825000Y-98390402D02*
X66825000Y-100505000D01*
X67000000Y-101780000D02*
X67550000Y-101230000D01*
D17*
%TO.N,+5V*%
X61887500Y-96700000D02*
X59500000Y-96700000D01*
X62587500Y-96000000D02*
X61887500Y-96700000D01*
X62587500Y-96000000D02*
X62587500Y-95912500D01*
X77000000Y-93200000D02*
X80500000Y-96700000D01*
X77000000Y-90500000D02*
X77000000Y-93200000D01*
X63500000Y-92383704D02*
X67633704Y-88250000D01*
X63500000Y-95000000D02*
X63650000Y-94850000D01*
X62587500Y-95912500D02*
X63500000Y-95000000D01*
X74750000Y-88250000D02*
X77000000Y-90500000D01*
X63500000Y-95000000D02*
X63500000Y-92383704D01*
X67633704Y-88250000D02*
X74750000Y-88250000D01*
%TD*%
%TA.AperFunction,Conductor*%
%TO.N,GND*%
G36*
X66589513Y-88020185D02*
G01*
X66635268Y-88072989D01*
X66645212Y-88142147D01*
X66616187Y-88205703D01*
X66610155Y-88212181D01*
X63014358Y-91807976D01*
X63000729Y-91819755D01*
X62981469Y-91834094D01*
X62947896Y-91874104D01*
X62944247Y-91878086D01*
X62938766Y-91883569D01*
X62877447Y-91917063D01*
X62807755Y-91912088D01*
X62751815Y-91870224D01*
X62727389Y-91804763D01*
X62728456Y-91777427D01*
X62750500Y-91631182D01*
X62750500Y-91368818D01*
X62711396Y-91109385D01*
X62634063Y-90858677D01*
X62604388Y-90797056D01*
X62520232Y-90622303D01*
X62520231Y-90622302D01*
X62520230Y-90622301D01*
X62520228Y-90622296D01*
X62372433Y-90405521D01*
X62362441Y-90394753D01*
X62193985Y-90213198D01*
X62128384Y-90160883D01*
X61988857Y-90049614D01*
X61761643Y-89918432D01*
X61517416Y-89822580D01*
X61517411Y-89822578D01*
X61517402Y-89822576D01*
X61273161Y-89766830D01*
X61261630Y-89764198D01*
X61261629Y-89764197D01*
X61261625Y-89764197D01*
X61261620Y-89764196D01*
X61065500Y-89749500D01*
X61065494Y-89749500D01*
X60934506Y-89749500D01*
X60934500Y-89749500D01*
X60738379Y-89764196D01*
X60738374Y-89764197D01*
X60482597Y-89822576D01*
X60482578Y-89822582D01*
X60238356Y-89918432D01*
X60011143Y-90049614D01*
X59806014Y-90213198D01*
X59627567Y-90405520D01*
X59479768Y-90622302D01*
X59479767Y-90622303D01*
X59365938Y-90858673D01*
X59288606Y-91109376D01*
X59288605Y-91109381D01*
X59288604Y-91109385D01*
X59281429Y-91156989D01*
X59249500Y-91368812D01*
X59249500Y-91631187D01*
X59249508Y-91631237D01*
X59288604Y-91890615D01*
X59288605Y-91890617D01*
X59288606Y-91890623D01*
X59365938Y-92141326D01*
X59479767Y-92377696D01*
X59479768Y-92377697D01*
X59479770Y-92377700D01*
X59479772Y-92377704D01*
X59583679Y-92530107D01*
X59627567Y-92594479D01*
X59806014Y-92786801D01*
X59806018Y-92786804D01*
X59806019Y-92786805D01*
X60011143Y-92950386D01*
X60238357Y-93081568D01*
X60482584Y-93177420D01*
X60738370Y-93235802D01*
X60738376Y-93235802D01*
X60738379Y-93235803D01*
X60934500Y-93250500D01*
X60934506Y-93250500D01*
X61065500Y-93250500D01*
X61261620Y-93235803D01*
X61261622Y-93235802D01*
X61261630Y-93235802D01*
X61517416Y-93177420D01*
X61761643Y-93081568D01*
X61988857Y-92950386D01*
X62193981Y-92786805D01*
X62372433Y-92594479D01*
X62520228Y-92377704D01*
X62520230Y-92377699D01*
X62522841Y-92373870D01*
X62524686Y-92375128D01*
X62568590Y-92333198D01*
X62637186Y-92319920D01*
X62702072Y-92345835D01*
X62742646Y-92402717D01*
X62749499Y-92443368D01*
X62749499Y-94637769D01*
X62729814Y-94704808D01*
X62713180Y-94725450D01*
X62675449Y-94763181D01*
X62614126Y-94796666D01*
X62587768Y-94799500D01*
X62274999Y-94799500D01*
X62274980Y-94799501D01*
X62172203Y-94810000D01*
X62172200Y-94810001D01*
X62005668Y-94865185D01*
X62005663Y-94865187D01*
X61856342Y-94957289D01*
X61732289Y-95081342D01*
X61640187Y-95230663D01*
X61640185Y-95230668D01*
X61621090Y-95288294D01*
X61585001Y-95397203D01*
X61585001Y-95397204D01*
X61585000Y-95397204D01*
X61574500Y-95499983D01*
X61574500Y-95825500D01*
X61554815Y-95892539D01*
X61502011Y-95938294D01*
X61450500Y-95949500D01*
X60974499Y-95949500D01*
X60907460Y-95929815D01*
X60861705Y-95877011D01*
X60850499Y-95825500D01*
X60850499Y-95802129D01*
X60850498Y-95802123D01*
X60850497Y-95802116D01*
X60844091Y-95742517D01*
X60839672Y-95730670D01*
X60793797Y-95607671D01*
X60793793Y-95607664D01*
X60707547Y-95492455D01*
X60707544Y-95492452D01*
X60592335Y-95406206D01*
X60592328Y-95406202D01*
X60457482Y-95355908D01*
X60457483Y-95355908D01*
X60397883Y-95349501D01*
X60397881Y-95349500D01*
X60397873Y-95349500D01*
X60397864Y-95349500D01*
X58602129Y-95349500D01*
X58602123Y-95349501D01*
X58542516Y-95355908D01*
X58407671Y-95406202D01*
X58407664Y-95406206D01*
X58292455Y-95492452D01*
X58292452Y-95492455D01*
X58206206Y-95607664D01*
X58206202Y-95607671D01*
X58155908Y-95742517D01*
X58151176Y-95786536D01*
X58149501Y-95802123D01*
X58149500Y-95802135D01*
X58149500Y-97597870D01*
X58149501Y-97597876D01*
X58155908Y-97657483D01*
X58206202Y-97792328D01*
X58206206Y-97792335D01*
X58292452Y-97907544D01*
X58292455Y-97907547D01*
X58407664Y-97993793D01*
X58407671Y-97993797D01*
X58539081Y-98042810D01*
X58595015Y-98084681D01*
X58619432Y-98150145D01*
X58604580Y-98218418D01*
X58583430Y-98246673D01*
X58461503Y-98368600D01*
X58325965Y-98562169D01*
X58325964Y-98562171D01*
X58226098Y-98776335D01*
X58226094Y-98776344D01*
X58164938Y-99004586D01*
X58164936Y-99004596D01*
X58144341Y-99239999D01*
X58144341Y-99240000D01*
X58164936Y-99475403D01*
X58164938Y-99475413D01*
X58226094Y-99703655D01*
X58226096Y-99703659D01*
X58226097Y-99703663D01*
X58236280Y-99725500D01*
X58325965Y-99917830D01*
X58325967Y-99917834D01*
X58461501Y-100111395D01*
X58461506Y-100111402D01*
X58628597Y-100278493D01*
X58628603Y-100278498D01*
X58814158Y-100408425D01*
X58857783Y-100463002D01*
X58864977Y-100532500D01*
X58833454Y-100594855D01*
X58814158Y-100611575D01*
X58628597Y-100741505D01*
X58461505Y-100908597D01*
X58325965Y-101102169D01*
X58325964Y-101102171D01*
X58226098Y-101316335D01*
X58226094Y-101316344D01*
X58164938Y-101544586D01*
X58164936Y-101544596D01*
X58144341Y-101779999D01*
X58144341Y-101780000D01*
X58164936Y-102015403D01*
X58164938Y-102015413D01*
X58226094Y-102243655D01*
X58226096Y-102243659D01*
X58226097Y-102243663D01*
X58272630Y-102343453D01*
X58325965Y-102457830D01*
X58325967Y-102457834D01*
X58434281Y-102612521D01*
X58461501Y-102651396D01*
X58461506Y-102651402D01*
X58628597Y-102818493D01*
X58628603Y-102818498D01*
X58814594Y-102948730D01*
X58858219Y-103003307D01*
X58865413Y-103072805D01*
X58833890Y-103135160D01*
X58814595Y-103151880D01*
X58628922Y-103281890D01*
X58628920Y-103281891D01*
X58461891Y-103448920D01*
X58461886Y-103448926D01*
X58326400Y-103642420D01*
X58326399Y-103642422D01*
X58226570Y-103856507D01*
X58226567Y-103856513D01*
X58169364Y-104069999D01*
X58169364Y-104070000D01*
X59066314Y-104070000D01*
X59040507Y-104110156D01*
X59000000Y-104248111D01*
X59000000Y-104391889D01*
X59040507Y-104529844D01*
X59066314Y-104570000D01*
X58169364Y-104570000D01*
X58226567Y-104783486D01*
X58226570Y-104783492D01*
X58326399Y-104997578D01*
X58461894Y-105191082D01*
X58628917Y-105358105D01*
X58822421Y-105493600D01*
X59036507Y-105593429D01*
X59036516Y-105593433D01*
X59249998Y-105650635D01*
X59249999Y-105650634D01*
X59249999Y-104755501D01*
X59357685Y-104804680D01*
X59464237Y-104820000D01*
X59535763Y-104820000D01*
X59642315Y-104804680D01*
X59750000Y-104755501D01*
X59750000Y-105650633D01*
X59963483Y-105593433D01*
X59963492Y-105593429D01*
X60177578Y-105493600D01*
X60371082Y-105358105D01*
X60538105Y-105191082D01*
X60673600Y-104997578D01*
X60773429Y-104783492D01*
X60773432Y-104783486D01*
X60830636Y-104570000D01*
X59933686Y-104570000D01*
X59959493Y-104529844D01*
X60000000Y-104391889D01*
X60000000Y-104248111D01*
X59959493Y-104110156D01*
X59933686Y-104070000D01*
X60830636Y-104070000D01*
X60830635Y-104069999D01*
X60773432Y-103856513D01*
X60773429Y-103856507D01*
X60673600Y-103642422D01*
X60673599Y-103642420D01*
X60538113Y-103448926D01*
X60538108Y-103448920D01*
X60371078Y-103281890D01*
X60185405Y-103151879D01*
X60141780Y-103097302D01*
X60134588Y-103027804D01*
X60166110Y-102965449D01*
X60185406Y-102948730D01*
X60371401Y-102818495D01*
X60538495Y-102651401D01*
X60673651Y-102458377D01*
X60728229Y-102414752D01*
X60775227Y-102405500D01*
X66917257Y-102405500D01*
X66932877Y-102407224D01*
X66932904Y-102406939D01*
X66940660Y-102407671D01*
X66940667Y-102407673D01*
X67009814Y-102405500D01*
X67039350Y-102405500D01*
X67046228Y-102404630D01*
X67052041Y-102404172D01*
X67098627Y-102402709D01*
X67117869Y-102397117D01*
X67136912Y-102393174D01*
X67156792Y-102390664D01*
X67200122Y-102373507D01*
X67205646Y-102371617D01*
X67209396Y-102370527D01*
X67250390Y-102358618D01*
X67267629Y-102348422D01*
X67285103Y-102339862D01*
X67303727Y-102332488D01*
X67303727Y-102332487D01*
X67303732Y-102332486D01*
X67341449Y-102305082D01*
X67346305Y-102301892D01*
X67386420Y-102278170D01*
X67400589Y-102263999D01*
X67415379Y-102251368D01*
X67431587Y-102239594D01*
X67461294Y-102203681D01*
X67465219Y-102199370D01*
X67497772Y-102166817D01*
X67559096Y-102133333D01*
X67585452Y-102130500D01*
X67644644Y-102130500D01*
X67644646Y-102130500D01*
X67829803Y-102091144D01*
X68002730Y-102014151D01*
X68155871Y-101902888D01*
X68282533Y-101762216D01*
X68282536Y-101762210D01*
X68282794Y-101761924D01*
X68342280Y-101725276D01*
X68412137Y-101726605D01*
X68462625Y-101757215D01*
X72338181Y-105632771D01*
X72371666Y-105694094D01*
X72374500Y-105720452D01*
X72374500Y-106681016D01*
X72372973Y-106700415D01*
X72369840Y-106720194D01*
X72369840Y-106720195D01*
X72374225Y-106766583D01*
X72374500Y-106772421D01*
X72374500Y-107618813D01*
X72354815Y-107685852D01*
X72302011Y-107731607D01*
X72293834Y-107734994D01*
X72208493Y-107766825D01*
X72208481Y-107766830D01*
X71969892Y-107897109D01*
X71969891Y-107897110D01*
X71752259Y-108060028D01*
X71752247Y-108060038D01*
X71560038Y-108252247D01*
X71560028Y-108252259D01*
X71397110Y-108469891D01*
X71397109Y-108469892D01*
X71266830Y-108708480D01*
X71219326Y-108835843D01*
X71171825Y-108963199D01*
X71171824Y-108963202D01*
X71171823Y-108963206D01*
X71114040Y-109228832D01*
X71114039Y-109228839D01*
X71094645Y-109499998D01*
X71094645Y-109500001D01*
X71114039Y-109771160D01*
X71114040Y-109771167D01*
X71140025Y-109890617D01*
X71171825Y-110036801D01*
X71231798Y-110197594D01*
X71266830Y-110291519D01*
X71397109Y-110530107D01*
X71397110Y-110530108D01*
X71397113Y-110530113D01*
X71560029Y-110747742D01*
X71560033Y-110747746D01*
X71560038Y-110747752D01*
X71752247Y-110939961D01*
X71752253Y-110939966D01*
X71752258Y-110939971D01*
X71969887Y-111102887D01*
X71969891Y-111102889D01*
X71969892Y-111102890D01*
X72208481Y-111233169D01*
X72208480Y-111233169D01*
X72208484Y-111233170D01*
X72208487Y-111233172D01*
X72463199Y-111328175D01*
X72728840Y-111385961D01*
X72980605Y-111403967D01*
X72999999Y-111405355D01*
X73000000Y-111405355D01*
X73000001Y-111405355D01*
X73018100Y-111404060D01*
X73271160Y-111385961D01*
X73536801Y-111328175D01*
X73791513Y-111233172D01*
X73791517Y-111233169D01*
X73791519Y-111233169D01*
X73944467Y-111149653D01*
X74030113Y-111102887D01*
X74247742Y-110939971D01*
X74439971Y-110747742D01*
X74602887Y-110530113D01*
X74689109Y-110372209D01*
X74733169Y-110291519D01*
X74733169Y-110291517D01*
X74733172Y-110291513D01*
X74828175Y-110036801D01*
X74885961Y-109771160D01*
X74895972Y-109631187D01*
X77249500Y-109631187D01*
X77269794Y-109765823D01*
X77288604Y-109890615D01*
X77288605Y-109890617D01*
X77288606Y-109890623D01*
X77365938Y-110141326D01*
X77479767Y-110377696D01*
X77479768Y-110377697D01*
X77479770Y-110377700D01*
X77479772Y-110377704D01*
X77583679Y-110530107D01*
X77627567Y-110594479D01*
X77806014Y-110786801D01*
X77806018Y-110786804D01*
X77806019Y-110786805D01*
X78011143Y-110950386D01*
X78238357Y-111081568D01*
X78482584Y-111177420D01*
X78738370Y-111235802D01*
X78738376Y-111235802D01*
X78738379Y-111235803D01*
X78934500Y-111250500D01*
X78934506Y-111250500D01*
X79065500Y-111250500D01*
X79261620Y-111235803D01*
X79261622Y-111235802D01*
X79261630Y-111235802D01*
X79517416Y-111177420D01*
X79761643Y-111081568D01*
X79988857Y-110950386D01*
X80193981Y-110786805D01*
X80372433Y-110594479D01*
X80520228Y-110377704D01*
X80634063Y-110141323D01*
X80711396Y-109890615D01*
X80750500Y-109631182D01*
X80750500Y-109368818D01*
X80711396Y-109109385D01*
X80634063Y-108858677D01*
X80622121Y-108833880D01*
X80520232Y-108622303D01*
X80520231Y-108622302D01*
X80520230Y-108622301D01*
X80520228Y-108622296D01*
X80372433Y-108405521D01*
X80362441Y-108394753D01*
X80193985Y-108213198D01*
X80154533Y-108181736D01*
X79988857Y-108049614D01*
X79761643Y-107918432D01*
X79517416Y-107822580D01*
X79517411Y-107822578D01*
X79517402Y-107822576D01*
X79273161Y-107766830D01*
X79261630Y-107764198D01*
X79261629Y-107764197D01*
X79261625Y-107764197D01*
X79261620Y-107764196D01*
X79065500Y-107749500D01*
X79065494Y-107749500D01*
X78934506Y-107749500D01*
X78934500Y-107749500D01*
X78738379Y-107764196D01*
X78738374Y-107764197D01*
X78482597Y-107822576D01*
X78482578Y-107822582D01*
X78238356Y-107918432D01*
X78011143Y-108049614D01*
X77806014Y-108213198D01*
X77627567Y-108405520D01*
X77479768Y-108622302D01*
X77479767Y-108622303D01*
X77365938Y-108858673D01*
X77288606Y-109109376D01*
X77288605Y-109109381D01*
X77288604Y-109109385D01*
X77273853Y-109207247D01*
X77249500Y-109368812D01*
X77249500Y-109631187D01*
X74895972Y-109631187D01*
X74905355Y-109500000D01*
X74905245Y-109498469D01*
X74902765Y-109463799D01*
X74885961Y-109228840D01*
X74828175Y-108963199D01*
X74733172Y-108708487D01*
X74733170Y-108708484D01*
X74733169Y-108708480D01*
X74602890Y-108469892D01*
X74602889Y-108469891D01*
X74602887Y-108469887D01*
X74439971Y-108252258D01*
X74439966Y-108252253D01*
X74439961Y-108252247D01*
X74247752Y-108060038D01*
X74247746Y-108060033D01*
X74247742Y-108060029D01*
X74030113Y-107897113D01*
X74030108Y-107897110D01*
X74030107Y-107897109D01*
X73791518Y-107766830D01*
X73791506Y-107766825D01*
X73706166Y-107734994D01*
X73650232Y-107693123D01*
X73625816Y-107627658D01*
X73625500Y-107618813D01*
X73625500Y-107050451D01*
X73645185Y-106983412D01*
X73661814Y-106962775D01*
X78932660Y-101691928D01*
X78993983Y-101658444D01*
X79063675Y-101663428D01*
X79119608Y-101705300D01*
X79144025Y-101770764D01*
X79144341Y-101779610D01*
X79144341Y-101780000D01*
X79164936Y-102015403D01*
X79164938Y-102015413D01*
X79226094Y-102243655D01*
X79226096Y-102243659D01*
X79226097Y-102243663D01*
X79272630Y-102343453D01*
X79325965Y-102457830D01*
X79325967Y-102457834D01*
X79434281Y-102612521D01*
X79461501Y-102651396D01*
X79461506Y-102651402D01*
X79628597Y-102818493D01*
X79628603Y-102818498D01*
X79814594Y-102948730D01*
X79858219Y-103003307D01*
X79865413Y-103072805D01*
X79833890Y-103135160D01*
X79814595Y-103151880D01*
X79628922Y-103281890D01*
X79628920Y-103281891D01*
X79461891Y-103448920D01*
X79461886Y-103448926D01*
X79326400Y-103642420D01*
X79326399Y-103642422D01*
X79226570Y-103856507D01*
X79226567Y-103856513D01*
X79169364Y-104069999D01*
X79169364Y-104070000D01*
X80066314Y-104070000D01*
X80040507Y-104110156D01*
X80000000Y-104248111D01*
X80000000Y-104391889D01*
X80040507Y-104529844D01*
X80066314Y-104570000D01*
X79169364Y-104570000D01*
X79226567Y-104783486D01*
X79226570Y-104783492D01*
X79326399Y-104997578D01*
X79461894Y-105191082D01*
X79628917Y-105358105D01*
X79822421Y-105493600D01*
X80036507Y-105593429D01*
X80036516Y-105593433D01*
X80250000Y-105650634D01*
X80250000Y-104755501D01*
X80357685Y-104804680D01*
X80464237Y-104820000D01*
X80535763Y-104820000D01*
X80642315Y-104804680D01*
X80750000Y-104755501D01*
X80750000Y-105650633D01*
X80963483Y-105593433D01*
X80963492Y-105593429D01*
X81177578Y-105493600D01*
X81371082Y-105358105D01*
X81538105Y-105191082D01*
X81673600Y-104997578D01*
X81773429Y-104783492D01*
X81773432Y-104783486D01*
X81830636Y-104570000D01*
X80933686Y-104570000D01*
X80959493Y-104529844D01*
X81000000Y-104391889D01*
X81000000Y-104248111D01*
X80959493Y-104110156D01*
X80933686Y-104070000D01*
X81830636Y-104070000D01*
X81830635Y-104069999D01*
X81773432Y-103856513D01*
X81773429Y-103856507D01*
X81673600Y-103642422D01*
X81673599Y-103642420D01*
X81538113Y-103448926D01*
X81538108Y-103448920D01*
X81371078Y-103281890D01*
X81185405Y-103151879D01*
X81141780Y-103097302D01*
X81134588Y-103027804D01*
X81166110Y-102965449D01*
X81185406Y-102948730D01*
X81371401Y-102818495D01*
X81538495Y-102651401D01*
X81674035Y-102457830D01*
X81773903Y-102243663D01*
X81835063Y-102015408D01*
X81855659Y-101780000D01*
X81835063Y-101544592D01*
X81773903Y-101316337D01*
X81674035Y-101102171D01*
X81673652Y-101101623D01*
X81538494Y-100908597D01*
X81371402Y-100741506D01*
X81371401Y-100741505D01*
X81185842Y-100611575D01*
X81185841Y-100611574D01*
X81142216Y-100556997D01*
X81135024Y-100487498D01*
X81166546Y-100425144D01*
X81185836Y-100408428D01*
X81371401Y-100278495D01*
X81538495Y-100111401D01*
X81674035Y-99917830D01*
X81773903Y-99703663D01*
X81835063Y-99475408D01*
X81855659Y-99240000D01*
X81835063Y-99004592D01*
X81773903Y-98776337D01*
X81674035Y-98562171D01*
X81539893Y-98370596D01*
X81538496Y-98368600D01*
X81481270Y-98311374D01*
X81416567Y-98246671D01*
X81383084Y-98185351D01*
X81388068Y-98115659D01*
X81429939Y-98059725D01*
X81460915Y-98042810D01*
X81592331Y-97993796D01*
X81707546Y-97907546D01*
X81793796Y-97792331D01*
X81844091Y-97657483D01*
X81850500Y-97597873D01*
X81850499Y-95802128D01*
X81844091Y-95742517D01*
X81839672Y-95730670D01*
X81793797Y-95607671D01*
X81793793Y-95607664D01*
X81707547Y-95492455D01*
X81707544Y-95492452D01*
X81592335Y-95406206D01*
X81592328Y-95406202D01*
X81457482Y-95355908D01*
X81457483Y-95355908D01*
X81397883Y-95349501D01*
X81397881Y-95349500D01*
X81397873Y-95349500D01*
X81397865Y-95349500D01*
X80262229Y-95349500D01*
X80195190Y-95329815D01*
X80174548Y-95313181D01*
X78172318Y-93310950D01*
X78138833Y-93249627D01*
X78143817Y-93179935D01*
X78185689Y-93124002D01*
X78251153Y-93099585D01*
X78305297Y-93107840D01*
X78482584Y-93177420D01*
X78738370Y-93235802D01*
X78738376Y-93235802D01*
X78738379Y-93235803D01*
X78934500Y-93250500D01*
X78934506Y-93250500D01*
X79065500Y-93250500D01*
X79261620Y-93235803D01*
X79261622Y-93235802D01*
X79261630Y-93235802D01*
X79517416Y-93177420D01*
X79761643Y-93081568D01*
X79988857Y-92950386D01*
X80193981Y-92786805D01*
X80372433Y-92594479D01*
X80520228Y-92377704D01*
X80634063Y-92141323D01*
X80711396Y-91890615D01*
X80750500Y-91631182D01*
X80750500Y-91368818D01*
X80711396Y-91109385D01*
X80634063Y-90858677D01*
X80604388Y-90797056D01*
X80520232Y-90622303D01*
X80520231Y-90622302D01*
X80520230Y-90622301D01*
X80520228Y-90622296D01*
X80372433Y-90405521D01*
X80362441Y-90394753D01*
X80193985Y-90213198D01*
X80128384Y-90160883D01*
X79988857Y-90049614D01*
X79761643Y-89918432D01*
X79517416Y-89822580D01*
X79517411Y-89822578D01*
X79517402Y-89822576D01*
X79273161Y-89766830D01*
X79261630Y-89764198D01*
X79261629Y-89764197D01*
X79261625Y-89764197D01*
X79261620Y-89764196D01*
X79065500Y-89749500D01*
X79065494Y-89749500D01*
X78934506Y-89749500D01*
X78934500Y-89749500D01*
X78738379Y-89764196D01*
X78738374Y-89764197D01*
X78482597Y-89822576D01*
X78482578Y-89822582D01*
X78238356Y-89918432D01*
X78011139Y-90049616D01*
X77849042Y-90178884D01*
X77784356Y-90205293D01*
X77715660Y-90192536D01*
X77668130Y-90150077D01*
X77633029Y-90096708D01*
X77610203Y-90059703D01*
X77592712Y-90031345D01*
X77592710Y-90031343D01*
X77588234Y-90025682D01*
X77588281Y-90025644D01*
X77583519Y-90019799D01*
X77583474Y-90019838D01*
X77578834Y-90014308D01*
X77522964Y-89961596D01*
X75773549Y-88212181D01*
X75740064Y-88150858D01*
X75745048Y-88081166D01*
X75786920Y-88025233D01*
X75852384Y-88000816D01*
X75861230Y-88000500D01*
X78998471Y-88000500D01*
X79001513Y-88000575D01*
X79067131Y-88003797D01*
X79152481Y-88007990D01*
X79346607Y-88018164D01*
X79352409Y-88018745D01*
X79521733Y-88043862D01*
X79697594Y-88071716D01*
X79702929Y-88072804D01*
X79872209Y-88115206D01*
X80041341Y-88160525D01*
X80046122Y-88162018D01*
X80211894Y-88221332D01*
X80374263Y-88283660D01*
X80378543Y-88285492D01*
X80464073Y-88325944D01*
X80538476Y-88361134D01*
X80692992Y-88439864D01*
X80696720Y-88441928D01*
X80848967Y-88533180D01*
X80994262Y-88627537D01*
X80997428Y-88629736D01*
X81140323Y-88735714D01*
X81274975Y-88844752D01*
X81277594Y-88846997D01*
X81408517Y-88965658D01*
X81410721Y-88967757D01*
X81532241Y-89089277D01*
X81534340Y-89091481D01*
X81653001Y-89222404D01*
X81655246Y-89225023D01*
X81764285Y-89359676D01*
X81870262Y-89502570D01*
X81872461Y-89505736D01*
X81966822Y-89651038D01*
X82058070Y-89803278D01*
X82060133Y-89807006D01*
X82138868Y-89961529D01*
X82214506Y-90121455D01*
X82216342Y-90125746D01*
X82278672Y-90288120D01*
X82289827Y-90319295D01*
X82337970Y-90453847D01*
X82339479Y-90458678D01*
X82384793Y-90627790D01*
X82427191Y-90797056D01*
X82428286Y-90802424D01*
X82456145Y-90978317D01*
X82481250Y-91147560D01*
X82481836Y-91153416D01*
X82492011Y-91347561D01*
X82499425Y-91498488D01*
X82499500Y-91501530D01*
X82499500Y-109498469D01*
X82499425Y-109501511D01*
X82492011Y-109652438D01*
X82481836Y-109846582D01*
X82481250Y-109852438D01*
X82456145Y-110021682D01*
X82428286Y-110197574D01*
X82427191Y-110202942D01*
X82384793Y-110372209D01*
X82339479Y-110541320D01*
X82337967Y-110546163D01*
X82278672Y-110711879D01*
X82216342Y-110874252D01*
X82214507Y-110878543D01*
X82138868Y-111038470D01*
X82060133Y-111192992D01*
X82058070Y-111196720D01*
X81966822Y-111348961D01*
X81872461Y-111494262D01*
X81870262Y-111497428D01*
X81764285Y-111640323D01*
X81655245Y-111774975D01*
X81653001Y-111777594D01*
X81534340Y-111908517D01*
X81532241Y-111910721D01*
X81410721Y-112032241D01*
X81408517Y-112034340D01*
X81277594Y-112153001D01*
X81274975Y-112155245D01*
X81140323Y-112264285D01*
X80997428Y-112370262D01*
X80994262Y-112372461D01*
X80848961Y-112466822D01*
X80696720Y-112558070D01*
X80692992Y-112560133D01*
X80538470Y-112638868D01*
X80378543Y-112714507D01*
X80374252Y-112716342D01*
X80211879Y-112778672D01*
X80046163Y-112837967D01*
X80041320Y-112839479D01*
X79872209Y-112884793D01*
X79702942Y-112927191D01*
X79697574Y-112928286D01*
X79521682Y-112956145D01*
X79352438Y-112981250D01*
X79346582Y-112981836D01*
X79152438Y-112992011D01*
X79001513Y-112999425D01*
X78998470Y-112999500D01*
X61001530Y-112999500D01*
X60998488Y-112999425D01*
X60847561Y-112992011D01*
X60653416Y-112981836D01*
X60647560Y-112981250D01*
X60478317Y-112956145D01*
X60302424Y-112928286D01*
X60297056Y-112927191D01*
X60127790Y-112884793D01*
X59958678Y-112839479D01*
X59953847Y-112837970D01*
X59847307Y-112799850D01*
X59788120Y-112778672D01*
X59625746Y-112716342D01*
X59621455Y-112714506D01*
X59461529Y-112638868D01*
X59307006Y-112560133D01*
X59303278Y-112558070D01*
X59151038Y-112466822D01*
X59005736Y-112372461D01*
X59002570Y-112370262D01*
X58859676Y-112264285D01*
X58725023Y-112155246D01*
X58722404Y-112153001D01*
X58591481Y-112034340D01*
X58589277Y-112032241D01*
X58467757Y-111910721D01*
X58465658Y-111908517D01*
X58346997Y-111777594D01*
X58344752Y-111774975D01*
X58235714Y-111640323D01*
X58129736Y-111497428D01*
X58127537Y-111494262D01*
X58033177Y-111348961D01*
X58020718Y-111328175D01*
X57963776Y-111233172D01*
X57941928Y-111196720D01*
X57939864Y-111192992D01*
X57861131Y-111038470D01*
X57785492Y-110878543D01*
X57783656Y-110874252D01*
X57735097Y-110747752D01*
X57721327Y-110711879D01*
X57662018Y-110546122D01*
X57660525Y-110541341D01*
X57615206Y-110372209D01*
X57572804Y-110202929D01*
X57571716Y-110197594D01*
X57543854Y-110021682D01*
X57518745Y-109852409D01*
X57518164Y-109846607D01*
X57507989Y-109652438D01*
X57506945Y-109631187D01*
X59249500Y-109631187D01*
X59269794Y-109765823D01*
X59288604Y-109890615D01*
X59288605Y-109890617D01*
X59288606Y-109890623D01*
X59365938Y-110141326D01*
X59479767Y-110377696D01*
X59479768Y-110377697D01*
X59479770Y-110377700D01*
X59479772Y-110377704D01*
X59583679Y-110530107D01*
X59627567Y-110594479D01*
X59806014Y-110786801D01*
X59806018Y-110786804D01*
X59806019Y-110786805D01*
X60011143Y-110950386D01*
X60238357Y-111081568D01*
X60482584Y-111177420D01*
X60738370Y-111235802D01*
X60738376Y-111235802D01*
X60738379Y-111235803D01*
X60934500Y-111250500D01*
X60934506Y-111250500D01*
X61065500Y-111250500D01*
X61261620Y-111235803D01*
X61261622Y-111235802D01*
X61261630Y-111235802D01*
X61517416Y-111177420D01*
X61761643Y-111081568D01*
X61988857Y-110950386D01*
X62193981Y-110786805D01*
X62372433Y-110594479D01*
X62520228Y-110377704D01*
X62634063Y-110141323D01*
X62711396Y-109890615D01*
X62750500Y-109631182D01*
X62750500Y-109500001D01*
X65594645Y-109500001D01*
X65614039Y-109771160D01*
X65614040Y-109771167D01*
X65640025Y-109890617D01*
X65671825Y-110036801D01*
X65731798Y-110197594D01*
X65766830Y-110291519D01*
X65897109Y-110530107D01*
X65897110Y-110530108D01*
X65897113Y-110530113D01*
X66060029Y-110747742D01*
X66060033Y-110747746D01*
X66060038Y-110747752D01*
X66252247Y-110939961D01*
X66252253Y-110939966D01*
X66252258Y-110939971D01*
X66469887Y-111102887D01*
X66469891Y-111102889D01*
X66469892Y-111102890D01*
X66708481Y-111233169D01*
X66708480Y-111233169D01*
X66708484Y-111233170D01*
X66708487Y-111233172D01*
X66963199Y-111328175D01*
X67228840Y-111385961D01*
X67480604Y-111403967D01*
X67499999Y-111405355D01*
X67500000Y-111405355D01*
X67500001Y-111405355D01*
X67518100Y-111404060D01*
X67771160Y-111385961D01*
X68036801Y-111328175D01*
X68291513Y-111233172D01*
X68291517Y-111233169D01*
X68291519Y-111233169D01*
X68444467Y-111149653D01*
X68530113Y-111102887D01*
X68747742Y-110939971D01*
X68939971Y-110747742D01*
X69102887Y-110530113D01*
X69189109Y-110372209D01*
X69233169Y-110291519D01*
X69233169Y-110291517D01*
X69233172Y-110291513D01*
X69328175Y-110036801D01*
X69385961Y-109771160D01*
X69405355Y-109500000D01*
X69405245Y-109498469D01*
X69402765Y-109463799D01*
X69385961Y-109228840D01*
X69328175Y-108963199D01*
X69233172Y-108708487D01*
X69233170Y-108708484D01*
X69233169Y-108708480D01*
X69102890Y-108469892D01*
X69102889Y-108469891D01*
X69102887Y-108469887D01*
X68939971Y-108252258D01*
X68939966Y-108252253D01*
X68939961Y-108252247D01*
X68747752Y-108060038D01*
X68747746Y-108060033D01*
X68747742Y-108060029D01*
X68530113Y-107897113D01*
X68530108Y-107897110D01*
X68530107Y-107897109D01*
X68291518Y-107766830D01*
X68291519Y-107766830D01*
X68197082Y-107731607D01*
X68036801Y-107671825D01*
X68036794Y-107671823D01*
X68036793Y-107671823D01*
X67771167Y-107614040D01*
X67771160Y-107614039D01*
X67500001Y-107594645D01*
X67499999Y-107594645D01*
X67228839Y-107614039D01*
X67228832Y-107614040D01*
X66963206Y-107671823D01*
X66963202Y-107671824D01*
X66963199Y-107671825D01*
X66835842Y-107719326D01*
X66708480Y-107766830D01*
X66469892Y-107897109D01*
X66469891Y-107897110D01*
X66252259Y-108060028D01*
X66252247Y-108060038D01*
X66060038Y-108252247D01*
X66060028Y-108252259D01*
X65897110Y-108469891D01*
X65897109Y-108469892D01*
X65766830Y-108708480D01*
X65719326Y-108835843D01*
X65671825Y-108963199D01*
X65671824Y-108963202D01*
X65671823Y-108963206D01*
X65614040Y-109228832D01*
X65614039Y-109228839D01*
X65594645Y-109499998D01*
X65594645Y-109500001D01*
X62750500Y-109500001D01*
X62750500Y-109368818D01*
X62711396Y-109109385D01*
X62634063Y-108858677D01*
X62622121Y-108833880D01*
X62520232Y-108622303D01*
X62520231Y-108622302D01*
X62520230Y-108622301D01*
X62520228Y-108622296D01*
X62372433Y-108405521D01*
X62362441Y-108394753D01*
X62193985Y-108213198D01*
X62154533Y-108181736D01*
X61988857Y-108049614D01*
X61761643Y-107918432D01*
X61517416Y-107822580D01*
X61517411Y-107822578D01*
X61517402Y-107822576D01*
X61273161Y-107766830D01*
X61261630Y-107764198D01*
X61261629Y-107764197D01*
X61261625Y-107764197D01*
X61261620Y-107764196D01*
X61065500Y-107749500D01*
X61065494Y-107749500D01*
X60934506Y-107749500D01*
X60934500Y-107749500D01*
X60738379Y-107764196D01*
X60738374Y-107764197D01*
X60482597Y-107822576D01*
X60482578Y-107822582D01*
X60238356Y-107918432D01*
X60011143Y-108049614D01*
X59806014Y-108213198D01*
X59627567Y-108405520D01*
X59479768Y-108622302D01*
X59479767Y-108622303D01*
X59365938Y-108858673D01*
X59288606Y-109109376D01*
X59288605Y-109109381D01*
X59288604Y-109109385D01*
X59273853Y-109207247D01*
X59249500Y-109368812D01*
X59249500Y-109631187D01*
X57506945Y-109631187D01*
X57503797Y-109567131D01*
X57500575Y-109501513D01*
X57500500Y-109498471D01*
X57500500Y-91501528D01*
X57500575Y-91498486D01*
X57503058Y-91447916D01*
X57507995Y-91347421D01*
X57518164Y-91153388D01*
X57518744Y-91147594D01*
X57543858Y-90978287D01*
X57571717Y-90802396D01*
X57572801Y-90797083D01*
X57615210Y-90627776D01*
X57660529Y-90458644D01*
X57662013Y-90453891D01*
X57721338Y-90288089D01*
X57783668Y-90125717D01*
X57785492Y-90121455D01*
X57861145Y-89961499D01*
X57939877Y-89806982D01*
X57941915Y-89803299D01*
X58033192Y-89651013D01*
X58127560Y-89505701D01*
X58129724Y-89502586D01*
X58235718Y-89359670D01*
X58344785Y-89224983D01*
X58346970Y-89222434D01*
X58465703Y-89091433D01*
X58467717Y-89089318D01*
X58589318Y-88967717D01*
X58591433Y-88965703D01*
X58722434Y-88846970D01*
X58724983Y-88844785D01*
X58859656Y-88735728D01*
X59002586Y-88629724D01*
X59005701Y-88627560D01*
X59151013Y-88533192D01*
X59303299Y-88441915D01*
X59306982Y-88439877D01*
X59461499Y-88361145D01*
X59621462Y-88285488D01*
X59625717Y-88283668D01*
X59788089Y-88221338D01*
X59953891Y-88162013D01*
X59958644Y-88160529D01*
X60127776Y-88115210D01*
X60297083Y-88072801D01*
X60302396Y-88071717D01*
X60478287Y-88043858D01*
X60647594Y-88018744D01*
X60653388Y-88018164D01*
X60847421Y-88007995D01*
X60945332Y-88003185D01*
X60998487Y-88000575D01*
X61001529Y-88000500D01*
X66522474Y-88000500D01*
X66589513Y-88020185D01*
G37*
%TD.AperFunction*%
%TA.AperFunction,Conductor*%
G36*
X74454809Y-89020185D02*
G01*
X74475451Y-89036819D01*
X76213181Y-90774548D01*
X76246666Y-90835871D01*
X76249500Y-90862229D01*
X76249500Y-93136294D01*
X76248191Y-93154263D01*
X76244710Y-93178025D01*
X76249264Y-93230064D01*
X76249500Y-93235470D01*
X76249500Y-93243709D01*
X76253306Y-93276274D01*
X76260000Y-93352791D01*
X76261461Y-93359867D01*
X76261403Y-93359878D01*
X76263034Y-93367237D01*
X76263092Y-93367224D01*
X76264757Y-93374250D01*
X76291025Y-93446424D01*
X76315185Y-93519331D01*
X76318236Y-93525874D01*
X76318182Y-93525898D01*
X76321470Y-93532688D01*
X76321521Y-93532663D01*
X76324761Y-93539113D01*
X76324762Y-93539114D01*
X76324763Y-93539117D01*
X76366965Y-93603282D01*
X76366965Y-93603283D01*
X76407287Y-93668655D01*
X76411766Y-93674319D01*
X76411719Y-93674356D01*
X76416482Y-93680202D01*
X76416528Y-93680164D01*
X76421173Y-93685700D01*
X76477018Y-93738386D01*
X79113181Y-96374548D01*
X79146666Y-96435871D01*
X79149500Y-96462229D01*
X79149500Y-97597870D01*
X79149501Y-97597876D01*
X79155908Y-97657483D01*
X79206202Y-97792328D01*
X79206206Y-97792335D01*
X79292452Y-97907544D01*
X79292455Y-97907547D01*
X79407664Y-97993793D01*
X79407671Y-97993797D01*
X79539081Y-98042810D01*
X79595015Y-98084681D01*
X79619432Y-98150145D01*
X79604580Y-98218418D01*
X79583430Y-98246673D01*
X79461503Y-98368600D01*
X79325965Y-98562169D01*
X79325964Y-98562171D01*
X79226098Y-98776335D01*
X79226094Y-98776344D01*
X79164938Y-99004586D01*
X79164936Y-99004596D01*
X79144341Y-99239999D01*
X79144341Y-99240000D01*
X79164936Y-99475403D01*
X79164938Y-99475413D01*
X79191856Y-99575872D01*
X79190193Y-99645722D01*
X79159762Y-99695646D01*
X75653735Y-103201672D01*
X75592412Y-103235157D01*
X75522720Y-103230173D01*
X75466787Y-103188301D01*
X75442370Y-103122837D01*
X75442695Y-103101399D01*
X75450500Y-103025009D01*
X75450499Y-101974992D01*
X75439999Y-101872203D01*
X75384814Y-101705666D01*
X75297815Y-101564618D01*
X75279376Y-101497227D01*
X75297817Y-101434426D01*
X75384353Y-101294130D01*
X75384358Y-101294119D01*
X75439505Y-101127697D01*
X75439506Y-101127690D01*
X75449999Y-101024986D01*
X75450000Y-101024973D01*
X75450000Y-100750000D01*
X74324000Y-100750000D01*
X74256961Y-100730315D01*
X74211206Y-100677511D01*
X74200000Y-100626000D01*
X74200000Y-100374000D01*
X74219685Y-100306961D01*
X74272489Y-100261206D01*
X74324000Y-100250000D01*
X75449999Y-100250000D01*
X75449999Y-99975028D01*
X75449998Y-99975013D01*
X75439505Y-99872302D01*
X75384358Y-99705880D01*
X75384353Y-99705869D01*
X75319905Y-99601383D01*
X75301464Y-99533991D01*
X75322386Y-99467327D01*
X75337760Y-99448607D01*
X75342712Y-99443656D01*
X75434814Y-99294334D01*
X75489999Y-99127797D01*
X75500500Y-99025009D01*
X75500499Y-97974992D01*
X75493609Y-97907547D01*
X75489999Y-97872203D01*
X75489998Y-97872200D01*
X75439624Y-97720183D01*
X75434814Y-97705666D01*
X75342712Y-97556344D01*
X75218656Y-97432288D01*
X75069334Y-97340186D01*
X74902797Y-97285001D01*
X74902795Y-97285000D01*
X74800016Y-97274500D01*
X74210453Y-97274500D01*
X74143414Y-97254815D01*
X74122772Y-97238181D01*
X73000803Y-96116212D01*
X72990980Y-96103950D01*
X72990759Y-96104134D01*
X72985786Y-96098123D01*
X72935364Y-96050773D01*
X72924919Y-96040328D01*
X72914475Y-96029883D01*
X72908986Y-96025625D01*
X72904561Y-96021847D01*
X72870582Y-95989938D01*
X72870580Y-95989936D01*
X72870577Y-95989935D01*
X72853029Y-95980288D01*
X72836763Y-95969604D01*
X72820933Y-95957325D01*
X72778168Y-95938818D01*
X72772922Y-95936248D01*
X72732093Y-95913803D01*
X72732092Y-95913802D01*
X72712693Y-95908822D01*
X72694281Y-95902518D01*
X72675898Y-95894562D01*
X72675892Y-95894560D01*
X72629874Y-95887272D01*
X72624152Y-95886087D01*
X72579021Y-95874500D01*
X72579019Y-95874500D01*
X72558984Y-95874500D01*
X72539586Y-95872973D01*
X72527021Y-95870983D01*
X72519805Y-95869840D01*
X72519797Y-95869839D01*
X72507696Y-95870983D01*
X72439102Y-95857691D01*
X72388584Y-95809425D01*
X72378329Y-95786540D01*
X72359814Y-95730666D01*
X72267712Y-95581344D01*
X72143656Y-95457288D01*
X71994334Y-95365186D01*
X71827797Y-95310001D01*
X71827795Y-95310000D01*
X71725016Y-95299500D01*
X71174500Y-95299500D01*
X71107461Y-95279815D01*
X71061706Y-95227011D01*
X71050500Y-95175500D01*
X71050500Y-94507742D01*
X71052224Y-94492122D01*
X71051939Y-94492095D01*
X71052673Y-94484333D01*
X71050500Y-94415172D01*
X71050500Y-94385656D01*
X71050500Y-94385650D01*
X71049631Y-94378779D01*
X71049173Y-94372952D01*
X71048651Y-94356335D01*
X71047710Y-94326373D01*
X71042119Y-94307130D01*
X71038173Y-94288078D01*
X71035664Y-94268208D01*
X71018504Y-94224867D01*
X71016624Y-94219379D01*
X71003618Y-94174610D01*
X70993422Y-94157370D01*
X70984861Y-94139894D01*
X70977487Y-94121270D01*
X70977486Y-94121268D01*
X70950079Y-94083545D01*
X70946888Y-94078686D01*
X70923172Y-94038583D01*
X70923165Y-94038574D01*
X70909006Y-94024415D01*
X70896368Y-94009619D01*
X70884594Y-93993413D01*
X70848688Y-93963709D01*
X70844376Y-93959786D01*
X69274018Y-92389427D01*
X69240533Y-92328104D01*
X69245516Y-92258415D01*
X69328175Y-92036801D01*
X69385961Y-91771160D01*
X69405355Y-91500001D01*
X71094645Y-91500001D01*
X71114039Y-91771160D01*
X71114040Y-91771167D01*
X71160997Y-91987027D01*
X71171825Y-92036801D01*
X71210810Y-92141323D01*
X71266830Y-92291519D01*
X71397109Y-92530107D01*
X71397110Y-92530108D01*
X71397113Y-92530113D01*
X71560029Y-92747742D01*
X71560033Y-92747746D01*
X71560038Y-92747752D01*
X71752247Y-92939961D01*
X71752253Y-92939966D01*
X71752258Y-92939971D01*
X71969887Y-93102887D01*
X71969891Y-93102889D01*
X71969892Y-93102890D01*
X72208481Y-93233169D01*
X72208480Y-93233169D01*
X72208484Y-93233170D01*
X72208487Y-93233172D01*
X72463199Y-93328175D01*
X72728840Y-93385961D01*
X72980605Y-93403967D01*
X72999999Y-93405355D01*
X73000000Y-93405355D01*
X73000001Y-93405355D01*
X73018100Y-93404060D01*
X73271160Y-93385961D01*
X73536801Y-93328175D01*
X73791513Y-93233172D01*
X73791517Y-93233169D01*
X73791519Y-93233169D01*
X73910812Y-93168029D01*
X74030113Y-93102887D01*
X74247742Y-92939971D01*
X74439971Y-92747742D01*
X74602887Y-92530113D01*
X74703510Y-92345835D01*
X74733169Y-92291519D01*
X74733169Y-92291517D01*
X74733172Y-92291513D01*
X74828175Y-92036801D01*
X74885961Y-91771160D01*
X74905355Y-91500000D01*
X74885961Y-91228840D01*
X74828175Y-90963199D01*
X74733172Y-90708487D01*
X74733170Y-90708484D01*
X74733169Y-90708480D01*
X74602890Y-90469892D01*
X74602889Y-90469891D01*
X74602887Y-90469887D01*
X74439971Y-90252258D01*
X74439966Y-90252253D01*
X74439961Y-90252247D01*
X74247752Y-90060038D01*
X74247746Y-90060033D01*
X74247742Y-90060029D01*
X74030113Y-89897113D01*
X74030108Y-89897110D01*
X74030107Y-89897109D01*
X73791518Y-89766830D01*
X73791519Y-89766830D01*
X73741920Y-89748330D01*
X73536801Y-89671825D01*
X73536794Y-89671823D01*
X73536793Y-89671823D01*
X73271167Y-89614040D01*
X73271160Y-89614039D01*
X73000001Y-89594645D01*
X72999999Y-89594645D01*
X72728839Y-89614039D01*
X72728832Y-89614040D01*
X72463206Y-89671823D01*
X72463202Y-89671824D01*
X72463199Y-89671825D01*
X72335842Y-89719326D01*
X72208480Y-89766830D01*
X71969892Y-89897109D01*
X71969891Y-89897110D01*
X71752259Y-90060028D01*
X71752247Y-90060038D01*
X71560038Y-90252247D01*
X71560028Y-90252259D01*
X71397110Y-90469891D01*
X71397109Y-90469892D01*
X71266830Y-90708480D01*
X71231791Y-90802424D01*
X71171825Y-90963199D01*
X71171824Y-90963202D01*
X71171823Y-90963206D01*
X71114040Y-91228832D01*
X71114039Y-91228839D01*
X71094645Y-91499998D01*
X71094645Y-91500001D01*
X69405355Y-91500001D01*
X69405355Y-91500000D01*
X69385961Y-91228840D01*
X69328175Y-90963199D01*
X69233172Y-90708487D01*
X69233170Y-90708484D01*
X69233169Y-90708480D01*
X69102890Y-90469892D01*
X69102889Y-90469891D01*
X69102887Y-90469887D01*
X68939971Y-90252258D01*
X68939966Y-90252253D01*
X68939961Y-90252247D01*
X68747752Y-90060038D01*
X68747746Y-90060033D01*
X68747742Y-90060029D01*
X68530113Y-89897113D01*
X68530108Y-89897110D01*
X68530107Y-89897109D01*
X68291518Y-89766830D01*
X68291519Y-89766830D01*
X68241920Y-89748330D01*
X68036801Y-89671825D01*
X68036794Y-89671823D01*
X68036793Y-89671823D01*
X67771167Y-89614040D01*
X67771161Y-89614039D01*
X67631237Y-89604031D01*
X67565773Y-89579614D01*
X67523902Y-89523680D01*
X67518918Y-89453988D01*
X67552401Y-89392668D01*
X67908251Y-89036819D01*
X67969575Y-89003334D01*
X67995933Y-89000500D01*
X74387770Y-89000500D01*
X74454809Y-89020185D01*
G37*
%TD.AperFunction*%
%TD*%
M02*
