%TF.GenerationSoftware,KiCad,Pcbnew,7.0.6*%
%TF.CreationDate,2023-11-15T13:56:34-06:00*%
%TF.ProjectId,TorqueSensorAmpifierPCB,546f7271-7565-4536-956e-736f72416d70,rev?*%
%TF.SameCoordinates,Original*%
%TF.FileFunction,Legend,Top*%
%TF.FilePolarity,Positive*%
%FSLAX46Y46*%
G04 Gerber Fmt 4.6, Leading zero omitted, Abs format (unit mm)*
G04 Created by KiCad (PCBNEW 7.0.6) date 2023-11-15 13:56:34*
%MOMM*%
%LPD*%
G01*
G04 APERTURE LIST*
G04 Aperture macros list*
%AMRoundRect*
0 Rectangle with rounded corners*
0 $1 Rounding radius*
0 $2 $3 $4 $5 $6 $7 $8 $9 X,Y pos of 4 corners*
0 Add a 4 corners polygon primitive as box body*
4,1,4,$2,$3,$4,$5,$6,$7,$8,$9,$2,$3,0*
0 Add four circle primitives for the rounded corners*
1,1,$1+$1,$2,$3*
1,1,$1+$1,$4,$5*
1,1,$1+$1,$6,$7*
1,1,$1+$1,$8,$9*
0 Add four rect primitives between the rounded corners*
20,1,$1+$1,$2,$3,$4,$5,0*
20,1,$1+$1,$4,$5,$6,$7,0*
20,1,$1+$1,$6,$7,$8,$9,0*
20,1,$1+$1,$8,$9,$2,$3,0*%
G04 Aperture macros list end*
%ADD10C,0.150000*%
%ADD11C,0.120000*%
%ADD12C,0.152400*%
%ADD13C,3.000000*%
%ADD14C,2.800000*%
%ADD15RoundRect,0.250000X0.325000X0.450000X-0.325000X0.450000X-0.325000X-0.450000X0.325000X-0.450000X0*%
%ADD16R,1.700000X1.700000*%
%ADD17O,1.700000X1.700000*%
%ADD18R,1.257300X0.508000*%
%ADD19RoundRect,0.250000X-0.250000X-0.475000X0.250000X-0.475000X0.250000X0.475000X-0.250000X0.475000X0*%
%ADD20RoundRect,0.250000X0.262500X0.450000X-0.262500X0.450000X-0.262500X-0.450000X0.262500X-0.450000X0*%
%ADD21RoundRect,0.250000X-0.262500X-0.450000X0.262500X-0.450000X0.262500X0.450000X-0.262500X0.450000X0*%
%ADD22C,0.800000*%
G04 APERTURE END LIST*
D10*
X69789160Y-95072200D02*
X69932017Y-95119819D01*
X69932017Y-95119819D02*
X70170112Y-95119819D01*
X70170112Y-95119819D02*
X70265350Y-95072200D01*
X70265350Y-95072200D02*
X70312969Y-95024580D01*
X70312969Y-95024580D02*
X70360588Y-94929342D01*
X70360588Y-94929342D02*
X70360588Y-94834104D01*
X70360588Y-94834104D02*
X70312969Y-94738866D01*
X70312969Y-94738866D02*
X70265350Y-94691247D01*
X70265350Y-94691247D02*
X70170112Y-94643628D01*
X70170112Y-94643628D02*
X69979636Y-94596009D01*
X69979636Y-94596009D02*
X69884398Y-94548390D01*
X69884398Y-94548390D02*
X69836779Y-94500771D01*
X69836779Y-94500771D02*
X69789160Y-94405533D01*
X69789160Y-94405533D02*
X69789160Y-94310295D01*
X69789160Y-94310295D02*
X69836779Y-94215057D01*
X69836779Y-94215057D02*
X69884398Y-94167438D01*
X69884398Y-94167438D02*
X69979636Y-94119819D01*
X69979636Y-94119819D02*
X70217731Y-94119819D01*
X70217731Y-94119819D02*
X70360588Y-94167438D01*
X70789160Y-95119819D02*
X70789160Y-94119819D01*
X71789159Y-94167438D02*
X71693921Y-94119819D01*
X71693921Y-94119819D02*
X71551064Y-94119819D01*
X71551064Y-94119819D02*
X71408207Y-94167438D01*
X71408207Y-94167438D02*
X71312969Y-94262676D01*
X71312969Y-94262676D02*
X71265350Y-94357914D01*
X71265350Y-94357914D02*
X71217731Y-94548390D01*
X71217731Y-94548390D02*
X71217731Y-94691247D01*
X71217731Y-94691247D02*
X71265350Y-94881723D01*
X71265350Y-94881723D02*
X71312969Y-94976961D01*
X71312969Y-94976961D02*
X71408207Y-95072200D01*
X71408207Y-95072200D02*
X71551064Y-95119819D01*
X71551064Y-95119819D02*
X71646302Y-95119819D01*
X71646302Y-95119819D02*
X71789159Y-95072200D01*
X71789159Y-95072200D02*
X71836778Y-95024580D01*
X71836778Y-95024580D02*
X71836778Y-94691247D01*
X71836778Y-94691247D02*
X71646302Y-94691247D01*
X72027255Y-95215057D02*
X72789159Y-95215057D01*
X73027255Y-95119819D02*
X73027255Y-94119819D01*
X73503445Y-95119819D02*
X73503445Y-94119819D01*
X73503445Y-94119819D02*
X74074873Y-95119819D01*
X74074873Y-95119819D02*
X74074873Y-94119819D01*
X74312969Y-95215057D02*
X75074873Y-95215057D01*
X75312969Y-94738866D02*
X76074874Y-94738866D01*
X75693921Y-95119819D02*
X75693921Y-94357914D01*
X62312969Y-96869819D02*
X61836779Y-96869819D01*
X61836779Y-96869819D02*
X61789160Y-97346009D01*
X61789160Y-97346009D02*
X61836779Y-97298390D01*
X61836779Y-97298390D02*
X61932017Y-97250771D01*
X61932017Y-97250771D02*
X62170112Y-97250771D01*
X62170112Y-97250771D02*
X62265350Y-97298390D01*
X62265350Y-97298390D02*
X62312969Y-97346009D01*
X62312969Y-97346009D02*
X62360588Y-97441247D01*
X62360588Y-97441247D02*
X62360588Y-97679342D01*
X62360588Y-97679342D02*
X62312969Y-97774580D01*
X62312969Y-97774580D02*
X62265350Y-97822200D01*
X62265350Y-97822200D02*
X62170112Y-97869819D01*
X62170112Y-97869819D02*
X61932017Y-97869819D01*
X61932017Y-97869819D02*
X61836779Y-97822200D01*
X61836779Y-97822200D02*
X61789160Y-97774580D01*
X62646303Y-96869819D02*
X62979636Y-97869819D01*
X62979636Y-97869819D02*
X63312969Y-96869819D01*
X61296779Y-100199819D02*
X61296779Y-99199819D01*
X61772969Y-99533152D02*
X61772969Y-100199819D01*
X61772969Y-99628390D02*
X61820588Y-99580771D01*
X61820588Y-99580771D02*
X61915826Y-99533152D01*
X61915826Y-99533152D02*
X62058683Y-99533152D01*
X62058683Y-99533152D02*
X62153921Y-99580771D01*
X62153921Y-99580771D02*
X62201540Y-99676009D01*
X62201540Y-99676009D02*
X62201540Y-100199819D01*
X62439636Y-100295057D02*
X63201540Y-100295057D01*
X63439636Y-99818866D02*
X64201541Y-99818866D01*
X61296779Y-102739819D02*
X61296779Y-101739819D01*
X61772969Y-102073152D02*
X61772969Y-102739819D01*
X61772969Y-102168390D02*
X61820588Y-102120771D01*
X61820588Y-102120771D02*
X61915826Y-102073152D01*
X61915826Y-102073152D02*
X62058683Y-102073152D01*
X62058683Y-102073152D02*
X62153921Y-102120771D01*
X62153921Y-102120771D02*
X62201540Y-102216009D01*
X62201540Y-102216009D02*
X62201540Y-102739819D01*
X62439636Y-102835057D02*
X63201540Y-102835057D01*
X63439636Y-102358866D02*
X64201541Y-102358866D01*
X63820588Y-102739819D02*
X63820588Y-101977914D01*
X63789160Y-112852200D02*
X63932017Y-112899819D01*
X63932017Y-112899819D02*
X64170112Y-112899819D01*
X64170112Y-112899819D02*
X64265350Y-112852200D01*
X64265350Y-112852200D02*
X64312969Y-112804580D01*
X64312969Y-112804580D02*
X64360588Y-112709342D01*
X64360588Y-112709342D02*
X64360588Y-112614104D01*
X64360588Y-112614104D02*
X64312969Y-112518866D01*
X64312969Y-112518866D02*
X64265350Y-112471247D01*
X64265350Y-112471247D02*
X64170112Y-112423628D01*
X64170112Y-112423628D02*
X63979636Y-112376009D01*
X63979636Y-112376009D02*
X63884398Y-112328390D01*
X63884398Y-112328390D02*
X63836779Y-112280771D01*
X63836779Y-112280771D02*
X63789160Y-112185533D01*
X63789160Y-112185533D02*
X63789160Y-112090295D01*
X63789160Y-112090295D02*
X63836779Y-111995057D01*
X63836779Y-111995057D02*
X63884398Y-111947438D01*
X63884398Y-111947438D02*
X63979636Y-111899819D01*
X63979636Y-111899819D02*
X64217731Y-111899819D01*
X64217731Y-111899819D02*
X64360588Y-111947438D01*
X64789160Y-112899819D02*
X64789160Y-111899819D01*
X65789159Y-111947438D02*
X65693921Y-111899819D01*
X65693921Y-111899819D02*
X65551064Y-111899819D01*
X65551064Y-111899819D02*
X65408207Y-111947438D01*
X65408207Y-111947438D02*
X65312969Y-112042676D01*
X65312969Y-112042676D02*
X65265350Y-112137914D01*
X65265350Y-112137914D02*
X65217731Y-112328390D01*
X65217731Y-112328390D02*
X65217731Y-112471247D01*
X65217731Y-112471247D02*
X65265350Y-112661723D01*
X65265350Y-112661723D02*
X65312969Y-112756961D01*
X65312969Y-112756961D02*
X65408207Y-112852200D01*
X65408207Y-112852200D02*
X65551064Y-112899819D01*
X65551064Y-112899819D02*
X65646302Y-112899819D01*
X65646302Y-112899819D02*
X65789159Y-112852200D01*
X65789159Y-112852200D02*
X65836778Y-112804580D01*
X65836778Y-112804580D02*
X65836778Y-112471247D01*
X65836778Y-112471247D02*
X65646302Y-112471247D01*
X66027255Y-112995057D02*
X66789159Y-112995057D01*
X67217731Y-111899819D02*
X67408207Y-111899819D01*
X67408207Y-111899819D02*
X67503445Y-111947438D01*
X67503445Y-111947438D02*
X67598683Y-112042676D01*
X67598683Y-112042676D02*
X67646302Y-112233152D01*
X67646302Y-112233152D02*
X67646302Y-112566485D01*
X67646302Y-112566485D02*
X67598683Y-112756961D01*
X67598683Y-112756961D02*
X67503445Y-112852200D01*
X67503445Y-112852200D02*
X67408207Y-112899819D01*
X67408207Y-112899819D02*
X67217731Y-112899819D01*
X67217731Y-112899819D02*
X67122493Y-112852200D01*
X67122493Y-112852200D02*
X67027255Y-112756961D01*
X67027255Y-112756961D02*
X66979636Y-112566485D01*
X66979636Y-112566485D02*
X66979636Y-112233152D01*
X66979636Y-112233152D02*
X67027255Y-112042676D01*
X67027255Y-112042676D02*
X67122493Y-111947438D01*
X67122493Y-111947438D02*
X67217731Y-111899819D01*
X68074874Y-111899819D02*
X68074874Y-112709342D01*
X68074874Y-112709342D02*
X68122493Y-112804580D01*
X68122493Y-112804580D02*
X68170112Y-112852200D01*
X68170112Y-112852200D02*
X68265350Y-112899819D01*
X68265350Y-112899819D02*
X68455826Y-112899819D01*
X68455826Y-112899819D02*
X68551064Y-112852200D01*
X68551064Y-112852200D02*
X68598683Y-112804580D01*
X68598683Y-112804580D02*
X68646302Y-112709342D01*
X68646302Y-112709342D02*
X68646302Y-111899819D01*
X68979636Y-111899819D02*
X69551064Y-111899819D01*
X69265350Y-112899819D02*
X69265350Y-111899819D01*
X69646303Y-112995057D02*
X70408207Y-112995057D01*
X70646303Y-112518866D02*
X71408208Y-112518866D01*
X71027255Y-112899819D02*
X71027255Y-112137914D01*
X61820588Y-104327438D02*
X61725350Y-104279819D01*
X61725350Y-104279819D02*
X61582493Y-104279819D01*
X61582493Y-104279819D02*
X61439636Y-104327438D01*
X61439636Y-104327438D02*
X61344398Y-104422676D01*
X61344398Y-104422676D02*
X61296779Y-104517914D01*
X61296779Y-104517914D02*
X61249160Y-104708390D01*
X61249160Y-104708390D02*
X61249160Y-104851247D01*
X61249160Y-104851247D02*
X61296779Y-105041723D01*
X61296779Y-105041723D02*
X61344398Y-105136961D01*
X61344398Y-105136961D02*
X61439636Y-105232200D01*
X61439636Y-105232200D02*
X61582493Y-105279819D01*
X61582493Y-105279819D02*
X61677731Y-105279819D01*
X61677731Y-105279819D02*
X61820588Y-105232200D01*
X61820588Y-105232200D02*
X61868207Y-105184580D01*
X61868207Y-105184580D02*
X61868207Y-104851247D01*
X61868207Y-104851247D02*
X61677731Y-104851247D01*
X62296779Y-105279819D02*
X62296779Y-104279819D01*
X62296779Y-104279819D02*
X62868207Y-105279819D01*
X62868207Y-105279819D02*
X62868207Y-104279819D01*
X63344398Y-105279819D02*
X63344398Y-104279819D01*
X63344398Y-104279819D02*
X63582493Y-104279819D01*
X63582493Y-104279819D02*
X63725350Y-104327438D01*
X63725350Y-104327438D02*
X63820588Y-104422676D01*
X63820588Y-104422676D02*
X63868207Y-104517914D01*
X63868207Y-104517914D02*
X63915826Y-104708390D01*
X63915826Y-104708390D02*
X63915826Y-104851247D01*
X63915826Y-104851247D02*
X63868207Y-105041723D01*
X63868207Y-105041723D02*
X63820588Y-105136961D01*
X63820588Y-105136961D02*
X63725350Y-105232200D01*
X63725350Y-105232200D02*
X63582493Y-105279819D01*
X63582493Y-105279819D02*
X63344398Y-105279819D01*
X78238095Y-91954819D02*
X78238095Y-90954819D01*
X78238095Y-91431009D02*
X78809523Y-91431009D01*
X78809523Y-91954819D02*
X78809523Y-90954819D01*
X79190476Y-90954819D02*
X79809523Y-90954819D01*
X79809523Y-90954819D02*
X79476190Y-91335771D01*
X79476190Y-91335771D02*
X79619047Y-91335771D01*
X79619047Y-91335771D02*
X79714285Y-91383390D01*
X79714285Y-91383390D02*
X79761904Y-91431009D01*
X79761904Y-91431009D02*
X79809523Y-91526247D01*
X79809523Y-91526247D02*
X79809523Y-91764342D01*
X79809523Y-91764342D02*
X79761904Y-91859580D01*
X79761904Y-91859580D02*
X79714285Y-91907200D01*
X79714285Y-91907200D02*
X79619047Y-91954819D01*
X79619047Y-91954819D02*
X79333333Y-91954819D01*
X79333333Y-91954819D02*
X79238095Y-91907200D01*
X79238095Y-91907200D02*
X79190476Y-91859580D01*
X71738095Y-88204819D02*
X72309523Y-88204819D01*
X72023809Y-89204819D02*
X72023809Y-88204819D01*
X72642857Y-89204819D02*
X72642857Y-88204819D01*
X72642857Y-88204819D02*
X73023809Y-88204819D01*
X73023809Y-88204819D02*
X73119047Y-88252438D01*
X73119047Y-88252438D02*
X73166666Y-88300057D01*
X73166666Y-88300057D02*
X73214285Y-88395295D01*
X73214285Y-88395295D02*
X73214285Y-88538152D01*
X73214285Y-88538152D02*
X73166666Y-88633390D01*
X73166666Y-88633390D02*
X73119047Y-88681009D01*
X73119047Y-88681009D02*
X73023809Y-88728628D01*
X73023809Y-88728628D02*
X72642857Y-88728628D01*
X74166666Y-89204819D02*
X73595238Y-89204819D01*
X73880952Y-89204819D02*
X73880952Y-88204819D01*
X73880952Y-88204819D02*
X73785714Y-88347676D01*
X73785714Y-88347676D02*
X73690476Y-88442914D01*
X73690476Y-88442914D02*
X73595238Y-88490533D01*
X60198095Y-109674819D02*
X60198095Y-108674819D01*
X60198095Y-109151009D02*
X60769523Y-109151009D01*
X60769523Y-109674819D02*
X60769523Y-108674819D01*
X61198095Y-108770057D02*
X61245714Y-108722438D01*
X61245714Y-108722438D02*
X61340952Y-108674819D01*
X61340952Y-108674819D02*
X61579047Y-108674819D01*
X61579047Y-108674819D02*
X61674285Y-108722438D01*
X61674285Y-108722438D02*
X61721904Y-108770057D01*
X61721904Y-108770057D02*
X61769523Y-108865295D01*
X61769523Y-108865295D02*
X61769523Y-108960533D01*
X61769523Y-108960533D02*
X61721904Y-109103390D01*
X61721904Y-109103390D02*
X61150476Y-109674819D01*
X61150476Y-109674819D02*
X61769523Y-109674819D01*
X66761905Y-94454819D02*
X66761905Y-93454819D01*
X66761905Y-93454819D02*
X67000000Y-93454819D01*
X67000000Y-93454819D02*
X67142857Y-93502438D01*
X67142857Y-93502438D02*
X67238095Y-93597676D01*
X67238095Y-93597676D02*
X67285714Y-93692914D01*
X67285714Y-93692914D02*
X67333333Y-93883390D01*
X67333333Y-93883390D02*
X67333333Y-94026247D01*
X67333333Y-94026247D02*
X67285714Y-94216723D01*
X67285714Y-94216723D02*
X67238095Y-94311961D01*
X67238095Y-94311961D02*
X67142857Y-94407200D01*
X67142857Y-94407200D02*
X67000000Y-94454819D01*
X67000000Y-94454819D02*
X66761905Y-94454819D01*
X68285714Y-94454819D02*
X67714286Y-94454819D01*
X68000000Y-94454819D02*
X68000000Y-93454819D01*
X68000000Y-93454819D02*
X67904762Y-93597676D01*
X67904762Y-93597676D02*
X67809524Y-93692914D01*
X67809524Y-93692914D02*
X67714286Y-93740533D01*
X80166666Y-93824819D02*
X80166666Y-94539104D01*
X80166666Y-94539104D02*
X80119047Y-94681961D01*
X80119047Y-94681961D02*
X80023809Y-94777200D01*
X80023809Y-94777200D02*
X79880952Y-94824819D01*
X79880952Y-94824819D02*
X79785714Y-94824819D01*
X80595238Y-93920057D02*
X80642857Y-93872438D01*
X80642857Y-93872438D02*
X80738095Y-93824819D01*
X80738095Y-93824819D02*
X80976190Y-93824819D01*
X80976190Y-93824819D02*
X81071428Y-93872438D01*
X81071428Y-93872438D02*
X81119047Y-93920057D01*
X81119047Y-93920057D02*
X81166666Y-94015295D01*
X81166666Y-94015295D02*
X81166666Y-94110533D01*
X81166666Y-94110533D02*
X81119047Y-94253390D01*
X81119047Y-94253390D02*
X80547619Y-94824819D01*
X80547619Y-94824819D02*
X81166666Y-94824819D01*
X71738095Y-106204819D02*
X72309523Y-106204819D01*
X72023809Y-107204819D02*
X72023809Y-106204819D01*
X72642857Y-107204819D02*
X72642857Y-106204819D01*
X72642857Y-106204819D02*
X73023809Y-106204819D01*
X73023809Y-106204819D02*
X73119047Y-106252438D01*
X73119047Y-106252438D02*
X73166666Y-106300057D01*
X73166666Y-106300057D02*
X73214285Y-106395295D01*
X73214285Y-106395295D02*
X73214285Y-106538152D01*
X73214285Y-106538152D02*
X73166666Y-106633390D01*
X73166666Y-106633390D02*
X73119047Y-106681009D01*
X73119047Y-106681009D02*
X73023809Y-106728628D01*
X73023809Y-106728628D02*
X72642857Y-106728628D01*
X74071428Y-106538152D02*
X74071428Y-107204819D01*
X73833333Y-106157200D02*
X73595238Y-106871485D01*
X73595238Y-106871485D02*
X74214285Y-106871485D01*
X69263095Y-100049819D02*
X69263095Y-100859342D01*
X69263095Y-100859342D02*
X69310714Y-100954580D01*
X69310714Y-100954580D02*
X69358333Y-101002200D01*
X69358333Y-101002200D02*
X69453571Y-101049819D01*
X69453571Y-101049819D02*
X69644047Y-101049819D01*
X69644047Y-101049819D02*
X69739285Y-101002200D01*
X69739285Y-101002200D02*
X69786904Y-100954580D01*
X69786904Y-100954580D02*
X69834523Y-100859342D01*
X69834523Y-100859342D02*
X69834523Y-100049819D01*
X70834523Y-101049819D02*
X70263095Y-101049819D01*
X70548809Y-101049819D02*
X70548809Y-100049819D01*
X70548809Y-100049819D02*
X70453571Y-100192676D01*
X70453571Y-100192676D02*
X70358333Y-100287914D01*
X70358333Y-100287914D02*
X70263095Y-100335533D01*
X66238095Y-88204819D02*
X66809523Y-88204819D01*
X66523809Y-89204819D02*
X66523809Y-88204819D01*
X67142857Y-89204819D02*
X67142857Y-88204819D01*
X67142857Y-88204819D02*
X67523809Y-88204819D01*
X67523809Y-88204819D02*
X67619047Y-88252438D01*
X67619047Y-88252438D02*
X67666666Y-88300057D01*
X67666666Y-88300057D02*
X67714285Y-88395295D01*
X67714285Y-88395295D02*
X67714285Y-88538152D01*
X67714285Y-88538152D02*
X67666666Y-88633390D01*
X67666666Y-88633390D02*
X67619047Y-88681009D01*
X67619047Y-88681009D02*
X67523809Y-88728628D01*
X67523809Y-88728628D02*
X67142857Y-88728628D01*
X68095238Y-88300057D02*
X68142857Y-88252438D01*
X68142857Y-88252438D02*
X68238095Y-88204819D01*
X68238095Y-88204819D02*
X68476190Y-88204819D01*
X68476190Y-88204819D02*
X68571428Y-88252438D01*
X68571428Y-88252438D02*
X68619047Y-88300057D01*
X68619047Y-88300057D02*
X68666666Y-88395295D01*
X68666666Y-88395295D02*
X68666666Y-88490533D01*
X68666666Y-88490533D02*
X68619047Y-88633390D01*
X68619047Y-88633390D02*
X68047619Y-89204819D01*
X68047619Y-89204819D02*
X68666666Y-89204819D01*
X66238095Y-106204819D02*
X66809523Y-106204819D01*
X66523809Y-107204819D02*
X66523809Y-106204819D01*
X67142857Y-107204819D02*
X67142857Y-106204819D01*
X67142857Y-106204819D02*
X67523809Y-106204819D01*
X67523809Y-106204819D02*
X67619047Y-106252438D01*
X67619047Y-106252438D02*
X67666666Y-106300057D01*
X67666666Y-106300057D02*
X67714285Y-106395295D01*
X67714285Y-106395295D02*
X67714285Y-106538152D01*
X67714285Y-106538152D02*
X67666666Y-106633390D01*
X67666666Y-106633390D02*
X67619047Y-106681009D01*
X67619047Y-106681009D02*
X67523809Y-106728628D01*
X67523809Y-106728628D02*
X67142857Y-106728628D01*
X68047619Y-106204819D02*
X68666666Y-106204819D01*
X68666666Y-106204819D02*
X68333333Y-106585771D01*
X68333333Y-106585771D02*
X68476190Y-106585771D01*
X68476190Y-106585771D02*
X68571428Y-106633390D01*
X68571428Y-106633390D02*
X68619047Y-106681009D01*
X68619047Y-106681009D02*
X68666666Y-106776247D01*
X68666666Y-106776247D02*
X68666666Y-107014342D01*
X68666666Y-107014342D02*
X68619047Y-107109580D01*
X68619047Y-107109580D02*
X68571428Y-107157200D01*
X68571428Y-107157200D02*
X68476190Y-107204819D01*
X68476190Y-107204819D02*
X68190476Y-107204819D01*
X68190476Y-107204819D02*
X68095238Y-107157200D01*
X68095238Y-107157200D02*
X68047619Y-107109580D01*
X63666666Y-105954819D02*
X63666666Y-106669104D01*
X63666666Y-106669104D02*
X63619047Y-106811961D01*
X63619047Y-106811961D02*
X63523809Y-106907200D01*
X63523809Y-106907200D02*
X63380952Y-106954819D01*
X63380952Y-106954819D02*
X63285714Y-106954819D01*
X64666666Y-106954819D02*
X64095238Y-106954819D01*
X64380952Y-106954819D02*
X64380952Y-105954819D01*
X64380952Y-105954819D02*
X64285714Y-106097676D01*
X64285714Y-106097676D02*
X64190476Y-106192914D01*
X64190476Y-106192914D02*
X64095238Y-106240533D01*
X60238095Y-91954819D02*
X60238095Y-90954819D01*
X60238095Y-91431009D02*
X60809523Y-91431009D01*
X60809523Y-91954819D02*
X60809523Y-90954819D01*
X61809523Y-91954819D02*
X61238095Y-91954819D01*
X61523809Y-91954819D02*
X61523809Y-90954819D01*
X61523809Y-90954819D02*
X61428571Y-91097676D01*
X61428571Y-91097676D02*
X61333333Y-91192914D01*
X61333333Y-91192914D02*
X61238095Y-91240533D01*
X78238095Y-109674819D02*
X78238095Y-108674819D01*
X78238095Y-109151009D02*
X78809523Y-109151009D01*
X78809523Y-109674819D02*
X78809523Y-108674819D01*
X79714285Y-109008152D02*
X79714285Y-109674819D01*
X79476190Y-108627200D02*
X79238095Y-109341485D01*
X79238095Y-109341485D02*
X79857142Y-109341485D01*
X78333333Y-98859580D02*
X78285714Y-98907200D01*
X78285714Y-98907200D02*
X78142857Y-98954819D01*
X78142857Y-98954819D02*
X78047619Y-98954819D01*
X78047619Y-98954819D02*
X77904762Y-98907200D01*
X77904762Y-98907200D02*
X77809524Y-98811961D01*
X77809524Y-98811961D02*
X77761905Y-98716723D01*
X77761905Y-98716723D02*
X77714286Y-98526247D01*
X77714286Y-98526247D02*
X77714286Y-98383390D01*
X77714286Y-98383390D02*
X77761905Y-98192914D01*
X77761905Y-98192914D02*
X77809524Y-98097676D01*
X77809524Y-98097676D02*
X77904762Y-98002438D01*
X77904762Y-98002438D02*
X78047619Y-97954819D01*
X78047619Y-97954819D02*
X78142857Y-97954819D01*
X78142857Y-97954819D02*
X78285714Y-98002438D01*
X78285714Y-98002438D02*
X78333333Y-98050057D01*
X78714286Y-98050057D02*
X78761905Y-98002438D01*
X78761905Y-98002438D02*
X78857143Y-97954819D01*
X78857143Y-97954819D02*
X79095238Y-97954819D01*
X79095238Y-97954819D02*
X79190476Y-98002438D01*
X79190476Y-98002438D02*
X79238095Y-98050057D01*
X79238095Y-98050057D02*
X79285714Y-98145295D01*
X79285714Y-98145295D02*
X79285714Y-98240533D01*
X79285714Y-98240533D02*
X79238095Y-98383390D01*
X79238095Y-98383390D02*
X78666667Y-98954819D01*
X78666667Y-98954819D02*
X79285714Y-98954819D01*
X73833333Y-97454819D02*
X73500000Y-96978628D01*
X73261905Y-97454819D02*
X73261905Y-96454819D01*
X73261905Y-96454819D02*
X73642857Y-96454819D01*
X73642857Y-96454819D02*
X73738095Y-96502438D01*
X73738095Y-96502438D02*
X73785714Y-96550057D01*
X73785714Y-96550057D02*
X73833333Y-96645295D01*
X73833333Y-96645295D02*
X73833333Y-96788152D01*
X73833333Y-96788152D02*
X73785714Y-96883390D01*
X73785714Y-96883390D02*
X73738095Y-96931009D01*
X73738095Y-96931009D02*
X73642857Y-96978628D01*
X73642857Y-96978628D02*
X73261905Y-96978628D01*
X74214286Y-96550057D02*
X74261905Y-96502438D01*
X74261905Y-96502438D02*
X74357143Y-96454819D01*
X74357143Y-96454819D02*
X74595238Y-96454819D01*
X74595238Y-96454819D02*
X74690476Y-96502438D01*
X74690476Y-96502438D02*
X74738095Y-96550057D01*
X74738095Y-96550057D02*
X74785714Y-96645295D01*
X74785714Y-96645295D02*
X74785714Y-96740533D01*
X74785714Y-96740533D02*
X74738095Y-96883390D01*
X74738095Y-96883390D02*
X74166667Y-97454819D01*
X74166667Y-97454819D02*
X74785714Y-97454819D01*
X78333333Y-102859580D02*
X78285714Y-102907200D01*
X78285714Y-102907200D02*
X78142857Y-102954819D01*
X78142857Y-102954819D02*
X78047619Y-102954819D01*
X78047619Y-102954819D02*
X77904762Y-102907200D01*
X77904762Y-102907200D02*
X77809524Y-102811961D01*
X77809524Y-102811961D02*
X77761905Y-102716723D01*
X77761905Y-102716723D02*
X77714286Y-102526247D01*
X77714286Y-102526247D02*
X77714286Y-102383390D01*
X77714286Y-102383390D02*
X77761905Y-102192914D01*
X77761905Y-102192914D02*
X77809524Y-102097676D01*
X77809524Y-102097676D02*
X77904762Y-102002438D01*
X77904762Y-102002438D02*
X78047619Y-101954819D01*
X78047619Y-101954819D02*
X78142857Y-101954819D01*
X78142857Y-101954819D02*
X78285714Y-102002438D01*
X78285714Y-102002438D02*
X78333333Y-102050057D01*
X78666667Y-101954819D02*
X79285714Y-101954819D01*
X79285714Y-101954819D02*
X78952381Y-102335771D01*
X78952381Y-102335771D02*
X79095238Y-102335771D01*
X79095238Y-102335771D02*
X79190476Y-102383390D01*
X79190476Y-102383390D02*
X79238095Y-102431009D01*
X79238095Y-102431009D02*
X79285714Y-102526247D01*
X79285714Y-102526247D02*
X79285714Y-102764342D01*
X79285714Y-102764342D02*
X79238095Y-102859580D01*
X79238095Y-102859580D02*
X79190476Y-102907200D01*
X79190476Y-102907200D02*
X79095238Y-102954819D01*
X79095238Y-102954819D02*
X78809524Y-102954819D01*
X78809524Y-102954819D02*
X78714286Y-102907200D01*
X78714286Y-102907200D02*
X78666667Y-102859580D01*
X64833333Y-94804819D02*
X64500000Y-94328628D01*
X64261905Y-94804819D02*
X64261905Y-93804819D01*
X64261905Y-93804819D02*
X64642857Y-93804819D01*
X64642857Y-93804819D02*
X64738095Y-93852438D01*
X64738095Y-93852438D02*
X64785714Y-93900057D01*
X64785714Y-93900057D02*
X64833333Y-93995295D01*
X64833333Y-93995295D02*
X64833333Y-94138152D01*
X64833333Y-94138152D02*
X64785714Y-94233390D01*
X64785714Y-94233390D02*
X64738095Y-94281009D01*
X64738095Y-94281009D02*
X64642857Y-94328628D01*
X64642857Y-94328628D02*
X64261905Y-94328628D01*
X65785714Y-94804819D02*
X65214286Y-94804819D01*
X65500000Y-94804819D02*
X65500000Y-93804819D01*
X65500000Y-93804819D02*
X65404762Y-93947676D01*
X65404762Y-93947676D02*
X65309524Y-94042914D01*
X65309524Y-94042914D02*
X65214286Y-94090533D01*
X78333333Y-100859580D02*
X78285714Y-100907200D01*
X78285714Y-100907200D02*
X78142857Y-100954819D01*
X78142857Y-100954819D02*
X78047619Y-100954819D01*
X78047619Y-100954819D02*
X77904762Y-100907200D01*
X77904762Y-100907200D02*
X77809524Y-100811961D01*
X77809524Y-100811961D02*
X77761905Y-100716723D01*
X77761905Y-100716723D02*
X77714286Y-100526247D01*
X77714286Y-100526247D02*
X77714286Y-100383390D01*
X77714286Y-100383390D02*
X77761905Y-100192914D01*
X77761905Y-100192914D02*
X77809524Y-100097676D01*
X77809524Y-100097676D02*
X77904762Y-100002438D01*
X77904762Y-100002438D02*
X78047619Y-99954819D01*
X78047619Y-99954819D02*
X78142857Y-99954819D01*
X78142857Y-99954819D02*
X78285714Y-100002438D01*
X78285714Y-100002438D02*
X78333333Y-100050057D01*
X79285714Y-100954819D02*
X78714286Y-100954819D01*
X79000000Y-100954819D02*
X79000000Y-99954819D01*
X79000000Y-99954819D02*
X78904762Y-100097676D01*
X78904762Y-100097676D02*
X78809524Y-100192914D01*
X78809524Y-100192914D02*
X78714286Y-100240533D01*
%TO.C,TP1*%
X74750000Y-91500000D02*
G75*
G03*
X74750000Y-91500000I-1750000J0D01*
G01*
D11*
%TO.C,D1*%
X69360000Y-96960000D02*
X69360000Y-95040000D01*
X69360000Y-95040000D02*
X66500000Y-95040000D01*
X66500000Y-96960000D02*
X69360000Y-96960000D01*
%TO.C,J2*%
X79170000Y-95370000D02*
X80500000Y-95370000D01*
X79170000Y-96700000D02*
X79170000Y-95370000D01*
X79170000Y-97970000D02*
X79170000Y-105650000D01*
X79170000Y-97970000D02*
X81830000Y-97970000D01*
X79170000Y-105650000D02*
X81830000Y-105650000D01*
X81830000Y-97970000D02*
X81830000Y-105650000D01*
D10*
%TO.C,TP4*%
X74750000Y-109500000D02*
G75*
G03*
X74750000Y-109500000I-1750000J0D01*
G01*
D12*
%TO.C,U1*%
X67904100Y-103223900D02*
X72145900Y-103223900D01*
X72145900Y-97966100D02*
X67904100Y-97966100D01*
D10*
%TO.C,TP2*%
X69250000Y-91500000D02*
G75*
G03*
X69250000Y-91500000I-1750000J0D01*
G01*
%TO.C,TP3*%
X69250000Y-109500000D02*
G75*
G03*
X69250000Y-109500000I-1750000J0D01*
G01*
D11*
%TO.C,J1*%
X58170000Y-95370000D02*
X59500000Y-95370000D01*
X58170000Y-96700000D02*
X58170000Y-95370000D01*
X58170000Y-97970000D02*
X58170000Y-105650000D01*
X58170000Y-97970000D02*
X60830000Y-97970000D01*
X58170000Y-105650000D02*
X60830000Y-105650000D01*
X60830000Y-97970000D02*
X60830000Y-105650000D01*
%TO.C,C2*%
X75738748Y-99235000D02*
X76261252Y-99235000D01*
X75738748Y-97765000D02*
X76261252Y-97765000D01*
%TO.C,R2*%
X71727064Y-97235000D02*
X71272936Y-97235000D01*
X71727064Y-95765000D02*
X71272936Y-95765000D01*
%TO.C,C3*%
X75688748Y-103235000D02*
X76211252Y-103235000D01*
X75688748Y-101765000D02*
X76211252Y-101765000D01*
%TO.C,R1*%
X63272936Y-96735000D02*
X63727064Y-96735000D01*
X63272936Y-95265000D02*
X63727064Y-95265000D01*
%TO.C,C1*%
X75688748Y-99765000D02*
X76211252Y-99765000D01*
X75688748Y-101235000D02*
X76211252Y-101235000D01*
%TD*%
%LPC*%
D13*
%TO.C,H3*%
X79000000Y-91500000D03*
%TD*%
D14*
%TO.C,TP1*%
X73000000Y-91500000D03*
%TD*%
D13*
%TO.C,H2*%
X61000000Y-109500000D03*
%TD*%
D15*
%TO.C,D1*%
X68525000Y-96000000D03*
X66475000Y-96000000D03*
%TD*%
D16*
%TO.C,J2*%
X80500000Y-96700000D03*
D17*
X80500000Y-99240000D03*
X80500000Y-101780000D03*
X80500000Y-104320000D03*
%TD*%
D14*
%TO.C,TP4*%
X73000000Y-109500000D03*
%TD*%
D18*
%TO.C,U1*%
X67402450Y-98690000D03*
X67402450Y-99960000D03*
X67402450Y-101230000D03*
X67402450Y-102500000D03*
X72647550Y-102500000D03*
X72647550Y-101230000D03*
X72647550Y-99960000D03*
X72647550Y-98690000D03*
%TD*%
D14*
%TO.C,TP2*%
X67500000Y-91500000D03*
%TD*%
%TO.C,TP3*%
X67500000Y-109500000D03*
%TD*%
D16*
%TO.C,J1*%
X59500000Y-96700000D03*
D17*
X59500000Y-99240000D03*
X59500000Y-101780000D03*
X59500000Y-104320000D03*
%TD*%
D13*
%TO.C,H1*%
X61000000Y-91500000D03*
%TD*%
%TO.C,H4*%
X79000000Y-109500000D03*
%TD*%
D19*
%TO.C,C2*%
X75050000Y-98500000D03*
X76950000Y-98500000D03*
%TD*%
D20*
%TO.C,R2*%
X70587500Y-96500000D03*
X72412500Y-96500000D03*
%TD*%
D19*
%TO.C,C3*%
X75000000Y-102500000D03*
X76900000Y-102500000D03*
%TD*%
D21*
%TO.C,R1*%
X62587500Y-96000000D03*
X64412500Y-96000000D03*
%TD*%
D19*
%TO.C,C1*%
X76900000Y-100500000D03*
X75000000Y-100500000D03*
%TD*%
D22*
X72412500Y-96500000D03*
X67500000Y-98275500D03*
X62587500Y-96000000D03*
X72647550Y-101230000D03*
X67550000Y-99960000D03*
X67550000Y-101230000D03*
%LPD*%
M02*
