%TF.GenerationSoftware,KiCad,Pcbnew,7.0.6*%
%TF.CreationDate,2023-11-15T13:56:34-06:00*%
%TF.ProjectId,TorqueSensorAmpifierPCB,546f7271-7565-4536-956e-736f72416d70,rev?*%
%TF.SameCoordinates,Original*%
%TF.FileFunction,Copper,L2,Bot*%
%TF.FilePolarity,Positive*%
%FSLAX46Y46*%
G04 Gerber Fmt 4.6, Leading zero omitted, Abs format (unit mm)*
G04 Created by KiCad (PCBNEW 7.0.6) date 2023-11-15 13:56:34*
%MOMM*%
%LPD*%
G01*
G04 APERTURE LIST*
%TA.AperFunction,ComponentPad*%
%ADD10C,2.800000*%
%TD*%
%TA.AperFunction,ComponentPad*%
%ADD11R,1.700000X1.700000*%
%TD*%
%TA.AperFunction,ComponentPad*%
%ADD12O,1.700000X1.700000*%
%TD*%
%TA.AperFunction,ViaPad*%
%ADD13C,0.800000*%
%TD*%
%TA.AperFunction,Conductor*%
%ADD14C,0.250000*%
%TD*%
G04 APERTURE END LIST*
D10*
%TO.P,TP1,1,1*%
%TO.N,/SIG_IN_+*%
X73000000Y-91500000D03*
%TD*%
D11*
%TO.P,J2,1,Pin_1*%
%TO.N,+5V*%
X80500000Y-96700000D03*
D12*
%TO.P,J2,2,Pin_2*%
%TO.N,GNDS*%
X80500000Y-99240000D03*
%TO.P,J2,3,Pin_3*%
%TO.N,/SIG_OUT_+*%
X80500000Y-101780000D03*
%TO.P,J2,4,Pin_4*%
%TO.N,GND*%
X80500000Y-104320000D03*
%TD*%
D10*
%TO.P,TP4,1,1*%
%TO.N,GNDS*%
X73000000Y-109500000D03*
%TD*%
%TO.P,TP2,1,1*%
%TO.N,GNDS*%
X67500000Y-91500000D03*
%TD*%
%TO.P,TP3,1,1*%
%TO.N,/SIG_OUT_+*%
X67500000Y-109500000D03*
%TD*%
D11*
%TO.P,J1,1,Pin_1*%
%TO.N,+5V*%
X59500000Y-96700000D03*
D12*
%TO.P,J1,2,Pin_2*%
%TO.N,GNDS*%
X59500000Y-99240000D03*
%TO.P,J1,3,Pin_3*%
%TO.N,/SIG_IN_+*%
X59500000Y-101780000D03*
%TO.P,J1,4,Pin_4*%
%TO.N,GND*%
X59500000Y-104320000D03*
%TD*%
D13*
%TO.N,Net-(R2-Pad1)*%
X72412500Y-96500000D03*
X67500000Y-98275500D03*
%TO.N,+5V*%
X62587500Y-96000000D03*
X72647550Y-101230000D03*
%TO.N,GNDS*%
X67550000Y-99960000D03*
%TO.N,/SIG_IN_+*%
X67550000Y-101230000D03*
%TD*%
D14*
%TO.N,+5V*%
X72647550Y-101230000D02*
X70417550Y-99000000D01*
X62587500Y-96587500D02*
X62587500Y-96000000D01*
X70417550Y-99000000D02*
X65000000Y-99000000D01*
X65000000Y-99000000D02*
X62587500Y-96587500D01*
%TO.N,Net-(R2-Pad1)*%
X70637000Y-98275500D02*
X72412500Y-96500000D01*
X67500000Y-98275500D02*
X70637000Y-98275500D01*
%TO.N,GNDS*%
X79000000Y-107500000D02*
X73000000Y-107500000D01*
X80500000Y-99240000D02*
X81675000Y-100415000D01*
X81675000Y-100415000D02*
X81675000Y-104825000D01*
X73000000Y-107500000D02*
X73000000Y-105410000D01*
X73000000Y-109500000D02*
X73000000Y-107500000D01*
X81675000Y-104825000D02*
X79000000Y-107500000D01*
%TO.N,+5V*%
X72877550Y-101000000D02*
X72647550Y-101230000D01*
X77500000Y-101000000D02*
X72877550Y-101000000D01*
X78500000Y-100000000D02*
X77500000Y-101000000D01*
X78500000Y-98700000D02*
X78500000Y-100000000D01*
X80500000Y-96700000D02*
X78500000Y-98700000D01*
%TO.N,GNDS*%
X73000000Y-105410000D02*
X67550000Y-99960000D01*
%TO.N,/SIG_IN_+*%
X59500000Y-101780000D02*
X67000000Y-101780000D01*
X67000000Y-101780000D02*
X67550000Y-101230000D01*
%TD*%
%TA.AperFunction,Conductor*%
%TO.N,GND*%
G36*
X79001513Y-88000575D02*
G01*
X79067131Y-88003797D01*
X79152481Y-88007990D01*
X79346607Y-88018164D01*
X79352409Y-88018745D01*
X79521733Y-88043862D01*
X79697594Y-88071716D01*
X79702929Y-88072804D01*
X79872209Y-88115206D01*
X80041341Y-88160525D01*
X80046122Y-88162018D01*
X80211894Y-88221332D01*
X80374263Y-88283660D01*
X80378543Y-88285492D01*
X80464073Y-88325944D01*
X80538476Y-88361134D01*
X80692992Y-88439864D01*
X80696720Y-88441928D01*
X80848967Y-88533180D01*
X80994262Y-88627537D01*
X80997428Y-88629736D01*
X81140323Y-88735714D01*
X81274975Y-88844752D01*
X81277594Y-88846997D01*
X81408517Y-88965658D01*
X81410721Y-88967757D01*
X81532241Y-89089277D01*
X81534340Y-89091481D01*
X81653001Y-89222404D01*
X81655246Y-89225023D01*
X81764285Y-89359676D01*
X81870262Y-89502570D01*
X81872461Y-89505736D01*
X81966822Y-89651038D01*
X82058070Y-89803278D01*
X82060133Y-89807006D01*
X82138868Y-89961529D01*
X82214506Y-90121455D01*
X82216342Y-90125746D01*
X82278672Y-90288120D01*
X82289827Y-90319295D01*
X82337970Y-90453847D01*
X82339479Y-90458678D01*
X82384793Y-90627790D01*
X82427191Y-90797056D01*
X82428286Y-90802424D01*
X82456145Y-90978317D01*
X82481250Y-91147560D01*
X82481836Y-91153416D01*
X82492011Y-91347561D01*
X82499425Y-91498488D01*
X82499500Y-91501530D01*
X82499500Y-100139671D01*
X82479815Y-100206710D01*
X82427011Y-100252465D01*
X82357853Y-100262409D01*
X82294297Y-100233384D01*
X82256523Y-100174606D01*
X82256424Y-100174268D01*
X82253617Y-100164608D01*
X82253616Y-100164606D01*
X82243423Y-100147371D01*
X82234861Y-100129894D01*
X82227487Y-100111270D01*
X82227486Y-100111268D01*
X82200079Y-100073545D01*
X82196888Y-100068686D01*
X82173172Y-100028583D01*
X82173165Y-100028574D01*
X82159006Y-100014415D01*
X82146368Y-99999619D01*
X82134594Y-99983413D01*
X82129119Y-99978884D01*
X82098688Y-99953709D01*
X82094376Y-99949786D01*
X81840236Y-99695647D01*
X81806752Y-99634324D01*
X81808143Y-99575872D01*
X81835063Y-99475408D01*
X81855659Y-99240000D01*
X81835063Y-99004592D01*
X81773903Y-98776337D01*
X81674035Y-98562171D01*
X81647380Y-98524104D01*
X81538496Y-98368600D01*
X81497972Y-98328076D01*
X81416567Y-98246671D01*
X81383084Y-98185351D01*
X81388068Y-98115659D01*
X81429939Y-98059725D01*
X81460915Y-98042810D01*
X81592331Y-97993796D01*
X81707546Y-97907546D01*
X81793796Y-97792331D01*
X81844091Y-97657483D01*
X81850500Y-97597873D01*
X81850499Y-95802128D01*
X81844091Y-95742517D01*
X81834145Y-95715851D01*
X81793797Y-95607671D01*
X81793793Y-95607664D01*
X81707547Y-95492455D01*
X81707544Y-95492452D01*
X81592335Y-95406206D01*
X81592328Y-95406202D01*
X81457482Y-95355908D01*
X81457483Y-95355908D01*
X81397883Y-95349501D01*
X81397881Y-95349500D01*
X81397873Y-95349500D01*
X81397864Y-95349500D01*
X79602129Y-95349500D01*
X79602123Y-95349501D01*
X79542516Y-95355908D01*
X79407671Y-95406202D01*
X79407664Y-95406206D01*
X79292455Y-95492452D01*
X79292452Y-95492455D01*
X79206206Y-95607664D01*
X79206202Y-95607671D01*
X79155908Y-95742517D01*
X79149501Y-95802116D01*
X79149501Y-95802123D01*
X79149500Y-95802135D01*
X79149500Y-97114546D01*
X79129815Y-97181585D01*
X79113181Y-97202227D01*
X78116208Y-98199199D01*
X78103951Y-98209020D01*
X78104134Y-98209241D01*
X78098123Y-98214213D01*
X78050772Y-98264636D01*
X78029889Y-98285519D01*
X78029877Y-98285532D01*
X78025621Y-98291017D01*
X78021837Y-98295447D01*
X77989937Y-98329418D01*
X77989936Y-98329420D01*
X77980284Y-98346976D01*
X77969610Y-98363226D01*
X77957329Y-98379061D01*
X77957324Y-98379068D01*
X77938815Y-98421838D01*
X77936245Y-98427084D01*
X77913803Y-98467906D01*
X77908822Y-98487307D01*
X77902521Y-98505710D01*
X77894562Y-98524102D01*
X77894561Y-98524105D01*
X77887271Y-98570127D01*
X77886087Y-98575846D01*
X77874501Y-98620972D01*
X77874500Y-98620982D01*
X77874500Y-98641016D01*
X77872973Y-98660415D01*
X77869840Y-98680194D01*
X77869840Y-98680195D01*
X77874225Y-98726583D01*
X77874500Y-98732421D01*
X77874500Y-99689547D01*
X77854815Y-99756586D01*
X77838181Y-99777228D01*
X77277228Y-100338181D01*
X77215905Y-100371666D01*
X77189547Y-100374500D01*
X72964363Y-100374500D01*
X72933823Y-100369662D01*
X72933708Y-100370206D01*
X72742196Y-100329500D01*
X72683003Y-100329500D01*
X72615964Y-100309815D01*
X72595322Y-100293181D01*
X71137296Y-98835155D01*
X71103811Y-98773832D01*
X71108795Y-98704140D01*
X71137296Y-98659793D01*
X71428490Y-98368600D01*
X72360271Y-97436819D01*
X72421595Y-97403334D01*
X72447953Y-97400500D01*
X72507144Y-97400500D01*
X72507146Y-97400500D01*
X72692303Y-97361144D01*
X72865230Y-97284151D01*
X73018371Y-97172888D01*
X73145033Y-97032216D01*
X73239679Y-96868284D01*
X73298174Y-96688256D01*
X73317960Y-96500000D01*
X73298174Y-96311744D01*
X73239679Y-96131716D01*
X73145033Y-95967784D01*
X73018371Y-95827112D01*
X72997219Y-95811744D01*
X72865234Y-95715851D01*
X72865229Y-95715848D01*
X72692307Y-95638857D01*
X72692302Y-95638855D01*
X72545555Y-95607664D01*
X72507146Y-95599500D01*
X72317854Y-95599500D01*
X72285397Y-95606398D01*
X72132697Y-95638855D01*
X72132692Y-95638857D01*
X71959770Y-95715848D01*
X71959765Y-95715851D01*
X71806629Y-95827111D01*
X71679966Y-95967785D01*
X71585321Y-96131715D01*
X71585318Y-96131722D01*
X71526827Y-96311740D01*
X71526826Y-96311744D01*
X71516801Y-96407128D01*
X71509179Y-96479649D01*
X71482594Y-96544263D01*
X71473539Y-96554368D01*
X70414228Y-97613681D01*
X70352905Y-97647166D01*
X70326547Y-97650000D01*
X68203748Y-97650000D01*
X68136709Y-97630315D01*
X68111600Y-97608974D01*
X68105873Y-97602614D01*
X68105869Y-97602610D01*
X67952734Y-97491351D01*
X67952729Y-97491348D01*
X67779807Y-97414357D01*
X67779802Y-97414355D01*
X67634001Y-97383365D01*
X67594646Y-97375000D01*
X67405354Y-97375000D01*
X67372897Y-97381898D01*
X67220197Y-97414355D01*
X67220192Y-97414357D01*
X67047270Y-97491348D01*
X67047265Y-97491351D01*
X66894129Y-97602611D01*
X66767466Y-97743285D01*
X66672821Y-97907215D01*
X66672818Y-97907222D01*
X66614327Y-98087240D01*
X66614326Y-98087244D01*
X66595805Y-98263463D01*
X66569222Y-98328076D01*
X66511924Y-98368061D01*
X66472485Y-98374500D01*
X65310453Y-98374500D01*
X65243414Y-98354815D01*
X65222772Y-98338181D01*
X63422734Y-96538143D01*
X63389249Y-96476820D01*
X63394233Y-96407128D01*
X63403026Y-96388465D01*
X63414679Y-96368284D01*
X63473174Y-96188256D01*
X63492960Y-96000000D01*
X63473174Y-95811744D01*
X63414679Y-95631716D01*
X63320033Y-95467784D01*
X63193371Y-95327112D01*
X63193370Y-95327111D01*
X63040234Y-95215851D01*
X63040229Y-95215848D01*
X62867307Y-95138857D01*
X62867302Y-95138855D01*
X62721501Y-95107865D01*
X62682146Y-95099500D01*
X62492854Y-95099500D01*
X62460397Y-95106398D01*
X62307697Y-95138855D01*
X62307692Y-95138857D01*
X62134770Y-95215848D01*
X62134765Y-95215851D01*
X61981629Y-95327111D01*
X61854966Y-95467785D01*
X61760321Y-95631715D01*
X61760318Y-95631722D01*
X61704950Y-95802128D01*
X61701826Y-95811744D01*
X61682040Y-96000000D01*
X61701826Y-96188256D01*
X61701827Y-96188259D01*
X61760318Y-96368277D01*
X61760320Y-96368282D01*
X61760321Y-96368284D01*
X61854967Y-96532216D01*
X61874913Y-96554368D01*
X61934075Y-96620074D01*
X61962231Y-96678745D01*
X61962614Y-96678634D01*
X61963282Y-96680933D01*
X61964305Y-96683065D01*
X61964399Y-96683652D01*
X61964790Y-96686125D01*
X61970379Y-96705359D01*
X61974324Y-96724411D01*
X61976836Y-96744292D01*
X61993990Y-96787619D01*
X61995882Y-96793147D01*
X62008881Y-96837888D01*
X62019080Y-96855134D01*
X62027638Y-96872603D01*
X62035014Y-96891232D01*
X62062398Y-96928923D01*
X62065606Y-96933807D01*
X62089327Y-96973916D01*
X62089333Y-96973924D01*
X62103490Y-96988080D01*
X62116127Y-97002875D01*
X62127906Y-97019087D01*
X62143776Y-97032216D01*
X62163809Y-97048788D01*
X62168120Y-97052710D01*
X63950564Y-98835155D01*
X64499197Y-99383788D01*
X64509022Y-99396051D01*
X64509243Y-99395869D01*
X64514214Y-99401878D01*
X64540217Y-99426295D01*
X64564635Y-99449226D01*
X64585529Y-99470120D01*
X64591011Y-99474373D01*
X64595443Y-99478157D01*
X64629418Y-99510062D01*
X64646976Y-99519714D01*
X64663235Y-99530395D01*
X64679064Y-99542673D01*
X64721838Y-99561182D01*
X64727056Y-99563738D01*
X64767908Y-99586197D01*
X64787316Y-99591180D01*
X64805717Y-99597480D01*
X64824104Y-99605437D01*
X64867488Y-99612308D01*
X64870119Y-99612725D01*
X64875839Y-99613909D01*
X64920981Y-99625500D01*
X64941016Y-99625500D01*
X64960414Y-99627026D01*
X64980194Y-99630159D01*
X64980195Y-99630160D01*
X64980195Y-99630159D01*
X64980196Y-99630160D01*
X65026583Y-99625775D01*
X65032422Y-99625500D01*
X66542284Y-99625500D01*
X66609323Y-99645185D01*
X66655078Y-99697989D01*
X66664749Y-99765254D01*
X66665006Y-99765281D01*
X66664899Y-99766294D01*
X66665022Y-99767147D01*
X66664503Y-99770061D01*
X66664326Y-99771743D01*
X66664326Y-99771744D01*
X66644540Y-99960000D01*
X66664326Y-100148256D01*
X66664327Y-100148259D01*
X66722818Y-100328277D01*
X66722821Y-100328284D01*
X66817467Y-100492216D01*
X66827806Y-100503699D01*
X66835307Y-100512030D01*
X66865535Y-100575022D01*
X66856909Y-100644357D01*
X66835307Y-100677970D01*
X66817466Y-100697785D01*
X66722821Y-100861715D01*
X66722818Y-100861722D01*
X66664326Y-101041742D01*
X66664325Y-101041745D01*
X66664145Y-101043465D01*
X66663763Y-101044392D01*
X66662976Y-101048097D01*
X66662298Y-101047952D01*
X66637559Y-101108079D01*
X66580261Y-101148062D01*
X66540825Y-101154500D01*
X60775227Y-101154500D01*
X60708188Y-101134815D01*
X60673652Y-101101623D01*
X60538494Y-100908597D01*
X60371402Y-100741506D01*
X60371396Y-100741501D01*
X60185842Y-100611575D01*
X60142217Y-100556998D01*
X60135023Y-100487500D01*
X60166546Y-100425145D01*
X60185842Y-100408425D01*
X60277169Y-100344477D01*
X60371401Y-100278495D01*
X60538495Y-100111401D01*
X60674035Y-99917830D01*
X60773903Y-99703663D01*
X60835063Y-99475408D01*
X60855659Y-99240000D01*
X60835063Y-99004592D01*
X60773903Y-98776337D01*
X60674035Y-98562171D01*
X60647380Y-98524104D01*
X60538496Y-98368600D01*
X60497972Y-98328076D01*
X60416567Y-98246671D01*
X60383084Y-98185351D01*
X60388068Y-98115659D01*
X60429939Y-98059725D01*
X60460915Y-98042810D01*
X60592331Y-97993796D01*
X60707546Y-97907546D01*
X60793796Y-97792331D01*
X60844091Y-97657483D01*
X60850500Y-97597873D01*
X60850499Y-95802128D01*
X60844091Y-95742517D01*
X60834145Y-95715851D01*
X60793797Y-95607671D01*
X60793793Y-95607664D01*
X60707547Y-95492455D01*
X60707544Y-95492452D01*
X60592335Y-95406206D01*
X60592328Y-95406202D01*
X60457482Y-95355908D01*
X60457483Y-95355908D01*
X60397883Y-95349501D01*
X60397881Y-95349500D01*
X60397873Y-95349500D01*
X60397864Y-95349500D01*
X58602129Y-95349500D01*
X58602123Y-95349501D01*
X58542516Y-95355908D01*
X58407671Y-95406202D01*
X58407664Y-95406206D01*
X58292455Y-95492452D01*
X58292452Y-95492455D01*
X58206206Y-95607664D01*
X58206202Y-95607671D01*
X58155908Y-95742517D01*
X58149501Y-95802116D01*
X58149501Y-95802123D01*
X58149500Y-95802135D01*
X58149500Y-97597870D01*
X58149501Y-97597876D01*
X58155908Y-97657483D01*
X58206202Y-97792328D01*
X58206206Y-97792335D01*
X58292452Y-97907544D01*
X58292455Y-97907547D01*
X58407664Y-97993793D01*
X58407671Y-97993797D01*
X58539081Y-98042810D01*
X58595015Y-98084681D01*
X58619432Y-98150145D01*
X58604580Y-98218418D01*
X58583430Y-98246673D01*
X58461503Y-98368600D01*
X58325965Y-98562169D01*
X58325964Y-98562171D01*
X58226098Y-98776335D01*
X58226094Y-98776344D01*
X58164938Y-99004586D01*
X58164936Y-99004596D01*
X58144341Y-99239999D01*
X58144341Y-99240000D01*
X58164936Y-99475403D01*
X58164938Y-99475413D01*
X58226094Y-99703655D01*
X58226096Y-99703659D01*
X58226097Y-99703663D01*
X58257059Y-99770061D01*
X58325965Y-99917830D01*
X58325967Y-99917834D01*
X58424801Y-100058983D01*
X58461504Y-100111400D01*
X58461506Y-100111402D01*
X58628597Y-100278493D01*
X58628603Y-100278498D01*
X58814158Y-100408425D01*
X58857783Y-100463002D01*
X58864977Y-100532500D01*
X58833454Y-100594855D01*
X58814158Y-100611575D01*
X58628597Y-100741505D01*
X58461505Y-100908597D01*
X58325965Y-101102169D01*
X58325964Y-101102171D01*
X58226098Y-101316335D01*
X58226094Y-101316344D01*
X58164938Y-101544586D01*
X58164936Y-101544596D01*
X58144341Y-101779999D01*
X58144341Y-101780000D01*
X58164936Y-102015403D01*
X58164938Y-102015413D01*
X58226094Y-102243655D01*
X58226096Y-102243659D01*
X58226097Y-102243663D01*
X58272630Y-102343453D01*
X58325965Y-102457830D01*
X58325967Y-102457834D01*
X58434281Y-102612521D01*
X58461501Y-102651396D01*
X58461506Y-102651402D01*
X58628597Y-102818493D01*
X58628603Y-102818498D01*
X58814594Y-102948730D01*
X58858219Y-103003307D01*
X58865413Y-103072805D01*
X58833890Y-103135160D01*
X58814595Y-103151880D01*
X58628922Y-103281890D01*
X58628920Y-103281891D01*
X58461891Y-103448920D01*
X58461886Y-103448926D01*
X58326400Y-103642420D01*
X58326399Y-103642422D01*
X58226570Y-103856507D01*
X58226567Y-103856513D01*
X58169364Y-104069999D01*
X58169364Y-104070000D01*
X59066314Y-104070000D01*
X59040507Y-104110156D01*
X59000000Y-104248111D01*
X59000000Y-104391889D01*
X59040507Y-104529844D01*
X59066314Y-104570000D01*
X58169364Y-104570000D01*
X58226567Y-104783486D01*
X58226570Y-104783492D01*
X58326399Y-104997578D01*
X58461894Y-105191082D01*
X58628917Y-105358105D01*
X58822421Y-105493600D01*
X59036507Y-105593429D01*
X59036516Y-105593433D01*
X59249998Y-105650635D01*
X59249999Y-105650634D01*
X59249999Y-104755501D01*
X59357685Y-104804680D01*
X59464237Y-104820000D01*
X59535763Y-104820000D01*
X59642315Y-104804680D01*
X59750000Y-104755501D01*
X59750000Y-105650633D01*
X59963483Y-105593433D01*
X59963492Y-105593429D01*
X60177578Y-105493600D01*
X60371082Y-105358105D01*
X60538105Y-105191082D01*
X60673600Y-104997578D01*
X60773429Y-104783492D01*
X60773432Y-104783486D01*
X60830636Y-104570000D01*
X59933686Y-104570000D01*
X59959493Y-104529844D01*
X60000000Y-104391889D01*
X60000000Y-104248111D01*
X59959493Y-104110156D01*
X59933686Y-104070000D01*
X60830636Y-104070000D01*
X60830635Y-104069999D01*
X60773432Y-103856513D01*
X60773429Y-103856507D01*
X60673600Y-103642422D01*
X60673599Y-103642420D01*
X60538113Y-103448926D01*
X60538108Y-103448920D01*
X60371078Y-103281890D01*
X60185405Y-103151879D01*
X60141780Y-103097302D01*
X60134588Y-103027804D01*
X60166110Y-102965449D01*
X60185406Y-102948730D01*
X60371401Y-102818495D01*
X60538495Y-102651401D01*
X60673651Y-102458377D01*
X60728229Y-102414752D01*
X60775227Y-102405500D01*
X66917257Y-102405500D01*
X66932877Y-102407224D01*
X66932904Y-102406939D01*
X66940660Y-102407671D01*
X66940667Y-102407673D01*
X67009814Y-102405500D01*
X67039350Y-102405500D01*
X67046228Y-102404630D01*
X67052041Y-102404172D01*
X67098627Y-102402709D01*
X67117869Y-102397117D01*
X67136912Y-102393174D01*
X67156792Y-102390664D01*
X67200122Y-102373507D01*
X67205646Y-102371617D01*
X67209396Y-102370527D01*
X67250390Y-102358618D01*
X67267629Y-102348422D01*
X67285103Y-102339862D01*
X67303727Y-102332488D01*
X67303727Y-102332487D01*
X67303732Y-102332486D01*
X67341449Y-102305082D01*
X67346305Y-102301892D01*
X67386420Y-102278170D01*
X67400589Y-102263999D01*
X67415379Y-102251368D01*
X67431587Y-102239594D01*
X67461294Y-102203681D01*
X67465219Y-102199370D01*
X67497772Y-102166817D01*
X67559096Y-102133333D01*
X67585452Y-102130500D01*
X67644644Y-102130500D01*
X67644646Y-102130500D01*
X67829803Y-102091144D01*
X68002730Y-102014151D01*
X68155871Y-101902888D01*
X68282533Y-101762216D01*
X68282536Y-101762210D01*
X68282794Y-101761924D01*
X68342280Y-101725276D01*
X68412137Y-101726605D01*
X68462625Y-101757215D01*
X72338181Y-105632771D01*
X72371666Y-105694094D01*
X72374500Y-105720452D01*
X72374500Y-107429152D01*
X72372305Y-107452379D01*
X72370773Y-107460412D01*
X72374378Y-107517724D01*
X72374500Y-107521595D01*
X72374500Y-107618813D01*
X72354815Y-107685852D01*
X72302011Y-107731607D01*
X72293834Y-107734994D01*
X72208493Y-107766825D01*
X72208481Y-107766830D01*
X71969892Y-107897109D01*
X71969891Y-107897110D01*
X71752259Y-108060028D01*
X71752247Y-108060038D01*
X71560038Y-108252247D01*
X71560028Y-108252259D01*
X71397110Y-108469891D01*
X71397109Y-108469892D01*
X71266830Y-108708480D01*
X71219326Y-108835843D01*
X71171825Y-108963199D01*
X71171824Y-108963202D01*
X71171823Y-108963206D01*
X71114040Y-109228832D01*
X71114039Y-109228839D01*
X71094645Y-109499998D01*
X71094645Y-109500001D01*
X71114039Y-109771160D01*
X71114040Y-109771167D01*
X71140025Y-109890617D01*
X71171825Y-110036801D01*
X71231798Y-110197594D01*
X71266830Y-110291519D01*
X71397109Y-110530107D01*
X71397110Y-110530108D01*
X71397113Y-110530113D01*
X71560029Y-110747742D01*
X71560033Y-110747746D01*
X71560038Y-110747752D01*
X71752247Y-110939961D01*
X71752253Y-110939966D01*
X71752258Y-110939971D01*
X71969887Y-111102887D01*
X71969891Y-111102889D01*
X71969892Y-111102890D01*
X72208481Y-111233169D01*
X72208480Y-111233169D01*
X72208484Y-111233170D01*
X72208487Y-111233172D01*
X72463199Y-111328175D01*
X72728840Y-111385961D01*
X72980605Y-111403967D01*
X72999999Y-111405355D01*
X73000000Y-111405355D01*
X73000001Y-111405355D01*
X73018100Y-111404060D01*
X73271160Y-111385961D01*
X73536801Y-111328175D01*
X73791513Y-111233172D01*
X73791517Y-111233169D01*
X73791519Y-111233169D01*
X73944467Y-111149653D01*
X74030113Y-111102887D01*
X74247742Y-110939971D01*
X74439971Y-110747742D01*
X74602887Y-110530113D01*
X74689109Y-110372209D01*
X74733169Y-110291519D01*
X74733169Y-110291517D01*
X74733172Y-110291513D01*
X74828175Y-110036801D01*
X74885961Y-109771160D01*
X74905355Y-109500000D01*
X74905245Y-109498469D01*
X74902765Y-109463799D01*
X74885961Y-109228840D01*
X74828175Y-108963199D01*
X74733172Y-108708487D01*
X74733170Y-108708484D01*
X74733169Y-108708480D01*
X74602890Y-108469892D01*
X74602889Y-108469891D01*
X74602887Y-108469887D01*
X74493534Y-108323810D01*
X74469118Y-108258346D01*
X74483970Y-108190073D01*
X74533375Y-108140668D01*
X74592802Y-108125500D01*
X77603177Y-108125500D01*
X77670216Y-108145185D01*
X77715971Y-108197989D01*
X77725915Y-108267147D01*
X77696890Y-108330703D01*
X77694076Y-108333841D01*
X77627567Y-108405520D01*
X77479768Y-108622302D01*
X77479767Y-108622303D01*
X77365938Y-108858673D01*
X77288606Y-109109376D01*
X77288605Y-109109381D01*
X77288604Y-109109385D01*
X77273853Y-109207247D01*
X77249500Y-109368812D01*
X77249500Y-109631187D01*
X77269794Y-109765823D01*
X77288604Y-109890615D01*
X77288605Y-109890617D01*
X77288606Y-109890623D01*
X77365938Y-110141326D01*
X77479767Y-110377696D01*
X77479768Y-110377697D01*
X77479770Y-110377700D01*
X77479772Y-110377704D01*
X77583679Y-110530107D01*
X77627567Y-110594479D01*
X77806014Y-110786801D01*
X77806018Y-110786804D01*
X77806019Y-110786805D01*
X78011143Y-110950386D01*
X78238357Y-111081568D01*
X78482584Y-111177420D01*
X78738370Y-111235802D01*
X78738376Y-111235802D01*
X78738379Y-111235803D01*
X78934500Y-111250500D01*
X78934506Y-111250500D01*
X79065500Y-111250500D01*
X79261620Y-111235803D01*
X79261622Y-111235802D01*
X79261630Y-111235802D01*
X79517416Y-111177420D01*
X79761643Y-111081568D01*
X79988857Y-110950386D01*
X80193981Y-110786805D01*
X80372433Y-110594479D01*
X80520228Y-110377704D01*
X80634063Y-110141323D01*
X80711396Y-109890615D01*
X80750500Y-109631182D01*
X80750500Y-109368818D01*
X80711396Y-109109385D01*
X80634063Y-108858677D01*
X80622121Y-108833880D01*
X80520232Y-108622303D01*
X80520231Y-108622302D01*
X80520230Y-108622301D01*
X80520228Y-108622296D01*
X80372433Y-108405521D01*
X80305924Y-108333841D01*
X80193985Y-108213198D01*
X80084015Y-108125500D01*
X79988857Y-108049614D01*
X79761643Y-107918432D01*
X79761641Y-107918431D01*
X79725736Y-107904339D01*
X79670522Y-107861522D01*
X79647222Y-107795652D01*
X79663233Y-107727642D01*
X79683354Y-107701234D01*
X82058788Y-105325801D01*
X82071042Y-105315986D01*
X82070859Y-105315764D01*
X82076866Y-105310792D01*
X82076877Y-105310786D01*
X82107775Y-105277882D01*
X82124227Y-105260364D01*
X82134671Y-105249918D01*
X82145120Y-105239471D01*
X82149379Y-105233978D01*
X82153152Y-105229561D01*
X82185062Y-105195582D01*
X82194713Y-105178024D01*
X82205396Y-105161761D01*
X82217673Y-105145936D01*
X82236185Y-105103153D01*
X82238738Y-105097941D01*
X82261197Y-105057092D01*
X82261197Y-105057091D01*
X82264957Y-105050253D01*
X82266733Y-105051229D01*
X82303181Y-105004510D01*
X82369119Y-104981401D01*
X82437082Y-104997610D01*
X82485494Y-105047989D01*
X82499500Y-105105237D01*
X82499500Y-109498469D01*
X82499425Y-109501511D01*
X82492011Y-109652438D01*
X82481836Y-109846582D01*
X82481250Y-109852438D01*
X82456145Y-110021682D01*
X82428286Y-110197574D01*
X82427191Y-110202942D01*
X82384793Y-110372209D01*
X82339479Y-110541320D01*
X82337967Y-110546163D01*
X82278672Y-110711879D01*
X82216342Y-110874252D01*
X82214507Y-110878543D01*
X82138868Y-111038470D01*
X82060133Y-111192992D01*
X82058070Y-111196720D01*
X81966822Y-111348961D01*
X81872461Y-111494262D01*
X81870262Y-111497428D01*
X81764285Y-111640323D01*
X81655245Y-111774975D01*
X81653001Y-111777594D01*
X81534340Y-111908517D01*
X81532241Y-111910721D01*
X81410721Y-112032241D01*
X81408517Y-112034340D01*
X81277594Y-112153001D01*
X81274975Y-112155245D01*
X81140323Y-112264285D01*
X80997428Y-112370262D01*
X80994262Y-112372461D01*
X80848961Y-112466822D01*
X80696720Y-112558070D01*
X80692992Y-112560133D01*
X80538470Y-112638868D01*
X80378543Y-112714507D01*
X80374252Y-112716342D01*
X80211879Y-112778672D01*
X80046163Y-112837967D01*
X80041320Y-112839479D01*
X79872209Y-112884793D01*
X79702942Y-112927191D01*
X79697574Y-112928286D01*
X79521682Y-112956145D01*
X79352438Y-112981250D01*
X79346582Y-112981836D01*
X79152438Y-112992011D01*
X79001513Y-112999425D01*
X78998470Y-112999500D01*
X61001530Y-112999500D01*
X60998488Y-112999425D01*
X60847561Y-112992011D01*
X60653416Y-112981836D01*
X60647560Y-112981250D01*
X60478317Y-112956145D01*
X60302424Y-112928286D01*
X60297056Y-112927191D01*
X60127790Y-112884793D01*
X59958678Y-112839479D01*
X59953847Y-112837970D01*
X59847307Y-112799850D01*
X59788120Y-112778672D01*
X59625746Y-112716342D01*
X59621455Y-112714506D01*
X59461529Y-112638868D01*
X59307006Y-112560133D01*
X59303278Y-112558070D01*
X59151038Y-112466822D01*
X59005736Y-112372461D01*
X59002570Y-112370262D01*
X58859676Y-112264285D01*
X58725023Y-112155246D01*
X58722404Y-112153001D01*
X58591481Y-112034340D01*
X58589277Y-112032241D01*
X58467757Y-111910721D01*
X58465658Y-111908517D01*
X58346997Y-111777594D01*
X58344752Y-111774975D01*
X58235714Y-111640323D01*
X58129736Y-111497428D01*
X58127537Y-111494262D01*
X58033177Y-111348961D01*
X58020718Y-111328175D01*
X57963776Y-111233172D01*
X57941928Y-111196720D01*
X57939864Y-111192992D01*
X57861131Y-111038470D01*
X57785492Y-110878543D01*
X57783656Y-110874252D01*
X57735097Y-110747752D01*
X57721327Y-110711879D01*
X57662018Y-110546122D01*
X57660525Y-110541341D01*
X57615206Y-110372209D01*
X57572804Y-110202929D01*
X57571716Y-110197594D01*
X57543854Y-110021682D01*
X57518745Y-109852409D01*
X57518164Y-109846607D01*
X57507989Y-109652438D01*
X57506945Y-109631187D01*
X59249500Y-109631187D01*
X59269794Y-109765823D01*
X59288604Y-109890615D01*
X59288605Y-109890617D01*
X59288606Y-109890623D01*
X59365938Y-110141326D01*
X59479767Y-110377696D01*
X59479768Y-110377697D01*
X59479770Y-110377700D01*
X59479772Y-110377704D01*
X59583679Y-110530107D01*
X59627567Y-110594479D01*
X59806014Y-110786801D01*
X59806018Y-110786804D01*
X59806019Y-110786805D01*
X60011143Y-110950386D01*
X60238357Y-111081568D01*
X60482584Y-111177420D01*
X60738370Y-111235802D01*
X60738376Y-111235802D01*
X60738379Y-111235803D01*
X60934500Y-111250500D01*
X60934506Y-111250500D01*
X61065500Y-111250500D01*
X61261620Y-111235803D01*
X61261622Y-111235802D01*
X61261630Y-111235802D01*
X61517416Y-111177420D01*
X61761643Y-111081568D01*
X61988857Y-110950386D01*
X62193981Y-110786805D01*
X62372433Y-110594479D01*
X62520228Y-110377704D01*
X62634063Y-110141323D01*
X62711396Y-109890615D01*
X62750500Y-109631182D01*
X62750500Y-109500001D01*
X65594645Y-109500001D01*
X65614039Y-109771160D01*
X65614040Y-109771167D01*
X65640025Y-109890617D01*
X65671825Y-110036801D01*
X65731798Y-110197594D01*
X65766830Y-110291519D01*
X65897109Y-110530107D01*
X65897110Y-110530108D01*
X65897113Y-110530113D01*
X66060029Y-110747742D01*
X66060033Y-110747746D01*
X66060038Y-110747752D01*
X66252247Y-110939961D01*
X66252253Y-110939966D01*
X66252258Y-110939971D01*
X66469887Y-111102887D01*
X66469891Y-111102889D01*
X66469892Y-111102890D01*
X66708481Y-111233169D01*
X66708480Y-111233169D01*
X66708484Y-111233170D01*
X66708487Y-111233172D01*
X66963199Y-111328175D01*
X67228840Y-111385961D01*
X67480604Y-111403967D01*
X67499999Y-111405355D01*
X67500000Y-111405355D01*
X67500001Y-111405355D01*
X67518100Y-111404060D01*
X67771160Y-111385961D01*
X68036801Y-111328175D01*
X68291513Y-111233172D01*
X68291517Y-111233169D01*
X68291519Y-111233169D01*
X68444467Y-111149653D01*
X68530113Y-111102887D01*
X68747742Y-110939971D01*
X68939971Y-110747742D01*
X69102887Y-110530113D01*
X69189109Y-110372209D01*
X69233169Y-110291519D01*
X69233169Y-110291517D01*
X69233172Y-110291513D01*
X69328175Y-110036801D01*
X69385961Y-109771160D01*
X69405355Y-109500000D01*
X69405245Y-109498469D01*
X69402765Y-109463799D01*
X69385961Y-109228840D01*
X69328175Y-108963199D01*
X69233172Y-108708487D01*
X69233170Y-108708484D01*
X69233169Y-108708480D01*
X69102890Y-108469892D01*
X69102889Y-108469891D01*
X69102887Y-108469887D01*
X68939971Y-108252258D01*
X68939966Y-108252253D01*
X68939961Y-108252247D01*
X68747752Y-108060038D01*
X68747746Y-108060033D01*
X68747742Y-108060029D01*
X68530113Y-107897113D01*
X68530108Y-107897110D01*
X68530107Y-107897109D01*
X68291518Y-107766830D01*
X68291519Y-107766830D01*
X68197082Y-107731607D01*
X68036801Y-107671825D01*
X68036794Y-107671823D01*
X68036793Y-107671823D01*
X67771167Y-107614040D01*
X67771160Y-107614039D01*
X67500001Y-107594645D01*
X67499999Y-107594645D01*
X67228839Y-107614039D01*
X67228832Y-107614040D01*
X66963206Y-107671823D01*
X66963202Y-107671824D01*
X66963199Y-107671825D01*
X66835842Y-107719326D01*
X66708480Y-107766830D01*
X66469892Y-107897109D01*
X66469891Y-107897110D01*
X66252259Y-108060028D01*
X66252247Y-108060038D01*
X66060038Y-108252247D01*
X66060028Y-108252259D01*
X65897110Y-108469891D01*
X65897109Y-108469892D01*
X65766830Y-108708480D01*
X65719326Y-108835843D01*
X65671825Y-108963199D01*
X65671824Y-108963202D01*
X65671823Y-108963206D01*
X65614040Y-109228832D01*
X65614039Y-109228839D01*
X65594645Y-109499998D01*
X65594645Y-109500001D01*
X62750500Y-109500001D01*
X62750500Y-109368818D01*
X62711396Y-109109385D01*
X62634063Y-108858677D01*
X62622121Y-108833880D01*
X62520232Y-108622303D01*
X62520231Y-108622302D01*
X62520230Y-108622301D01*
X62520228Y-108622296D01*
X62372433Y-108405521D01*
X62305924Y-108333841D01*
X62193985Y-108213198D01*
X62084015Y-108125500D01*
X61988857Y-108049614D01*
X61761643Y-107918432D01*
X61517416Y-107822580D01*
X61517411Y-107822578D01*
X61517402Y-107822576D01*
X61273161Y-107766830D01*
X61261630Y-107764198D01*
X61261629Y-107764197D01*
X61261625Y-107764197D01*
X61261620Y-107764196D01*
X61065500Y-107749500D01*
X61065494Y-107749500D01*
X60934506Y-107749500D01*
X60934500Y-107749500D01*
X60738379Y-107764196D01*
X60738374Y-107764197D01*
X60482597Y-107822576D01*
X60482578Y-107822582D01*
X60238356Y-107918432D01*
X60011143Y-108049614D01*
X59806014Y-108213198D01*
X59627567Y-108405520D01*
X59479768Y-108622302D01*
X59479767Y-108622303D01*
X59365938Y-108858673D01*
X59288606Y-109109376D01*
X59288605Y-109109381D01*
X59288604Y-109109385D01*
X59273853Y-109207247D01*
X59249500Y-109368812D01*
X59249500Y-109631187D01*
X57506945Y-109631187D01*
X57503797Y-109567131D01*
X57500575Y-109501513D01*
X57500500Y-109498471D01*
X57500500Y-91631187D01*
X59249500Y-91631187D01*
X59269794Y-91765823D01*
X59288604Y-91890615D01*
X59288605Y-91890617D01*
X59288606Y-91890623D01*
X59365938Y-92141326D01*
X59479767Y-92377696D01*
X59479768Y-92377697D01*
X59479770Y-92377700D01*
X59479772Y-92377704D01*
X59583679Y-92530107D01*
X59627567Y-92594479D01*
X59806014Y-92786801D01*
X59806018Y-92786804D01*
X59806019Y-92786805D01*
X60011143Y-92950386D01*
X60238357Y-93081568D01*
X60482584Y-93177420D01*
X60738370Y-93235802D01*
X60738376Y-93235802D01*
X60738379Y-93235803D01*
X60934500Y-93250500D01*
X60934506Y-93250500D01*
X61065500Y-93250500D01*
X61261620Y-93235803D01*
X61261622Y-93235802D01*
X61261630Y-93235802D01*
X61517416Y-93177420D01*
X61761643Y-93081568D01*
X61988857Y-92950386D01*
X62193981Y-92786805D01*
X62372433Y-92594479D01*
X62520228Y-92377704D01*
X62634063Y-92141323D01*
X62711396Y-91890615D01*
X62750500Y-91631182D01*
X62750500Y-91500001D01*
X65594645Y-91500001D01*
X65614039Y-91771160D01*
X65614040Y-91771167D01*
X65640025Y-91890617D01*
X65671825Y-92036801D01*
X65710810Y-92141323D01*
X65766830Y-92291519D01*
X65897109Y-92530107D01*
X65897110Y-92530108D01*
X65897113Y-92530113D01*
X66060029Y-92747742D01*
X66060033Y-92747746D01*
X66060038Y-92747752D01*
X66252247Y-92939961D01*
X66252253Y-92939966D01*
X66252258Y-92939971D01*
X66469887Y-93102887D01*
X66469891Y-93102889D01*
X66469892Y-93102890D01*
X66708481Y-93233169D01*
X66708480Y-93233169D01*
X66708484Y-93233170D01*
X66708487Y-93233172D01*
X66963199Y-93328175D01*
X67228840Y-93385961D01*
X67480604Y-93403967D01*
X67499999Y-93405355D01*
X67500000Y-93405355D01*
X67500001Y-93405355D01*
X67518100Y-93404060D01*
X67771160Y-93385961D01*
X68036801Y-93328175D01*
X68291513Y-93233172D01*
X68291517Y-93233169D01*
X68291519Y-93233169D01*
X68410812Y-93168029D01*
X68530113Y-93102887D01*
X68747742Y-92939971D01*
X68939971Y-92747742D01*
X69102887Y-92530113D01*
X69233172Y-92291513D01*
X69328175Y-92036801D01*
X69385961Y-91771160D01*
X69405355Y-91500001D01*
X71094645Y-91500001D01*
X71114039Y-91771160D01*
X71114040Y-91771167D01*
X71140025Y-91890617D01*
X71171825Y-92036801D01*
X71210810Y-92141323D01*
X71266830Y-92291519D01*
X71397109Y-92530107D01*
X71397110Y-92530108D01*
X71397113Y-92530113D01*
X71560029Y-92747742D01*
X71560033Y-92747746D01*
X71560038Y-92747752D01*
X71752247Y-92939961D01*
X71752253Y-92939966D01*
X71752258Y-92939971D01*
X71969887Y-93102887D01*
X71969891Y-93102889D01*
X71969892Y-93102890D01*
X72208481Y-93233169D01*
X72208480Y-93233169D01*
X72208484Y-93233170D01*
X72208487Y-93233172D01*
X72463199Y-93328175D01*
X72728840Y-93385961D01*
X72980605Y-93403967D01*
X72999999Y-93405355D01*
X73000000Y-93405355D01*
X73000001Y-93405355D01*
X73018100Y-93404060D01*
X73271160Y-93385961D01*
X73536801Y-93328175D01*
X73791513Y-93233172D01*
X73791517Y-93233169D01*
X73791519Y-93233169D01*
X73910812Y-93168029D01*
X74030113Y-93102887D01*
X74247742Y-92939971D01*
X74439971Y-92747742D01*
X74602887Y-92530113D01*
X74733172Y-92291513D01*
X74828175Y-92036801D01*
X74885961Y-91771160D01*
X74895972Y-91631187D01*
X77249500Y-91631187D01*
X77269794Y-91765823D01*
X77288604Y-91890615D01*
X77288605Y-91890617D01*
X77288606Y-91890623D01*
X77365938Y-92141326D01*
X77479767Y-92377696D01*
X77479768Y-92377697D01*
X77479770Y-92377700D01*
X77479772Y-92377704D01*
X77583679Y-92530107D01*
X77627567Y-92594479D01*
X77806014Y-92786801D01*
X77806018Y-92786804D01*
X77806019Y-92786805D01*
X78011143Y-92950386D01*
X78238357Y-93081568D01*
X78482584Y-93177420D01*
X78738370Y-93235802D01*
X78738376Y-93235802D01*
X78738379Y-93235803D01*
X78934500Y-93250500D01*
X78934506Y-93250500D01*
X79065500Y-93250500D01*
X79261620Y-93235803D01*
X79261622Y-93235802D01*
X79261630Y-93235802D01*
X79517416Y-93177420D01*
X79761643Y-93081568D01*
X79988857Y-92950386D01*
X80193981Y-92786805D01*
X80372433Y-92594479D01*
X80520228Y-92377704D01*
X80634063Y-92141323D01*
X80711396Y-91890615D01*
X80750500Y-91631182D01*
X80750500Y-91368818D01*
X80711396Y-91109385D01*
X80634063Y-90858677D01*
X80604388Y-90797056D01*
X80520232Y-90622303D01*
X80520231Y-90622302D01*
X80520230Y-90622301D01*
X80520228Y-90622296D01*
X80372433Y-90405521D01*
X80362441Y-90394753D01*
X80193985Y-90213198D01*
X80154533Y-90181736D01*
X79988857Y-90049614D01*
X79761643Y-89918432D01*
X79517416Y-89822580D01*
X79517411Y-89822578D01*
X79517402Y-89822576D01*
X79273161Y-89766830D01*
X79261630Y-89764198D01*
X79261629Y-89764197D01*
X79261625Y-89764197D01*
X79261620Y-89764196D01*
X79065500Y-89749500D01*
X79065494Y-89749500D01*
X78934506Y-89749500D01*
X78934500Y-89749500D01*
X78738379Y-89764196D01*
X78738374Y-89764197D01*
X78482597Y-89822576D01*
X78482578Y-89822582D01*
X78238356Y-89918432D01*
X78011143Y-90049614D01*
X77806014Y-90213198D01*
X77627567Y-90405520D01*
X77479768Y-90622302D01*
X77479767Y-90622303D01*
X77365938Y-90858673D01*
X77288606Y-91109376D01*
X77288605Y-91109381D01*
X77288604Y-91109385D01*
X77281429Y-91156989D01*
X77249500Y-91368812D01*
X77249500Y-91631187D01*
X74895972Y-91631187D01*
X74905355Y-91500000D01*
X74885961Y-91228840D01*
X74828175Y-90963199D01*
X74733172Y-90708487D01*
X74733170Y-90708484D01*
X74733169Y-90708480D01*
X74602890Y-90469892D01*
X74602889Y-90469891D01*
X74602887Y-90469887D01*
X74439971Y-90252258D01*
X74439966Y-90252253D01*
X74439961Y-90252247D01*
X74247752Y-90060038D01*
X74247746Y-90060033D01*
X74247742Y-90060029D01*
X74030113Y-89897113D01*
X74030108Y-89897110D01*
X74030107Y-89897109D01*
X73791518Y-89766830D01*
X73791519Y-89766830D01*
X73741920Y-89748330D01*
X73536801Y-89671825D01*
X73536794Y-89671823D01*
X73536793Y-89671823D01*
X73271167Y-89614040D01*
X73271160Y-89614039D01*
X73000001Y-89594645D01*
X72999999Y-89594645D01*
X72728839Y-89614039D01*
X72728832Y-89614040D01*
X72463206Y-89671823D01*
X72463202Y-89671824D01*
X72463199Y-89671825D01*
X72335842Y-89719326D01*
X72208480Y-89766830D01*
X71969892Y-89897109D01*
X71969891Y-89897110D01*
X71752259Y-90060028D01*
X71752247Y-90060038D01*
X71560038Y-90252247D01*
X71560028Y-90252259D01*
X71397110Y-90469891D01*
X71397109Y-90469892D01*
X71266830Y-90708480D01*
X71231791Y-90802424D01*
X71171825Y-90963199D01*
X71171824Y-90963202D01*
X71171823Y-90963206D01*
X71114040Y-91228832D01*
X71114039Y-91228839D01*
X71094645Y-91499998D01*
X71094645Y-91500001D01*
X69405355Y-91500001D01*
X69405355Y-91500000D01*
X69385961Y-91228840D01*
X69328175Y-90963199D01*
X69233172Y-90708487D01*
X69233170Y-90708484D01*
X69233169Y-90708480D01*
X69102890Y-90469892D01*
X69102889Y-90469891D01*
X69102887Y-90469887D01*
X68939971Y-90252258D01*
X68939966Y-90252253D01*
X68939961Y-90252247D01*
X68747752Y-90060038D01*
X68747746Y-90060033D01*
X68747742Y-90060029D01*
X68530113Y-89897113D01*
X68530108Y-89897110D01*
X68530107Y-89897109D01*
X68291518Y-89766830D01*
X68291519Y-89766830D01*
X68241920Y-89748330D01*
X68036801Y-89671825D01*
X68036794Y-89671823D01*
X68036793Y-89671823D01*
X67771167Y-89614040D01*
X67771160Y-89614039D01*
X67500001Y-89594645D01*
X67499999Y-89594645D01*
X67228839Y-89614039D01*
X67228832Y-89614040D01*
X66963206Y-89671823D01*
X66963202Y-89671824D01*
X66963199Y-89671825D01*
X66835842Y-89719326D01*
X66708480Y-89766830D01*
X66469892Y-89897109D01*
X66469891Y-89897110D01*
X66252259Y-90060028D01*
X66252247Y-90060038D01*
X66060038Y-90252247D01*
X66060028Y-90252259D01*
X65897110Y-90469891D01*
X65897109Y-90469892D01*
X65766830Y-90708480D01*
X65731791Y-90802424D01*
X65671825Y-90963199D01*
X65671824Y-90963202D01*
X65671823Y-90963206D01*
X65614040Y-91228832D01*
X65614039Y-91228839D01*
X65594645Y-91499998D01*
X65594645Y-91500001D01*
X62750500Y-91500001D01*
X62750500Y-91368818D01*
X62711396Y-91109385D01*
X62634063Y-90858677D01*
X62604388Y-90797056D01*
X62520232Y-90622303D01*
X62520231Y-90622302D01*
X62520230Y-90622301D01*
X62520228Y-90622296D01*
X62372433Y-90405521D01*
X62362441Y-90394753D01*
X62193985Y-90213198D01*
X62154533Y-90181736D01*
X61988857Y-90049614D01*
X61761643Y-89918432D01*
X61517416Y-89822580D01*
X61517411Y-89822578D01*
X61517402Y-89822576D01*
X61273161Y-89766830D01*
X61261630Y-89764198D01*
X61261629Y-89764197D01*
X61261625Y-89764197D01*
X61261620Y-89764196D01*
X61065500Y-89749500D01*
X61065494Y-89749500D01*
X60934506Y-89749500D01*
X60934500Y-89749500D01*
X60738379Y-89764196D01*
X60738374Y-89764197D01*
X60482597Y-89822576D01*
X60482578Y-89822582D01*
X60238356Y-89918432D01*
X60011143Y-90049614D01*
X59806014Y-90213198D01*
X59627567Y-90405520D01*
X59479768Y-90622302D01*
X59479767Y-90622303D01*
X59365938Y-90858673D01*
X59288606Y-91109376D01*
X59288605Y-91109381D01*
X59288604Y-91109385D01*
X59281429Y-91156989D01*
X59249500Y-91368812D01*
X59249500Y-91631187D01*
X57500500Y-91631187D01*
X57500500Y-91501528D01*
X57500575Y-91498486D01*
X57503058Y-91447916D01*
X57507995Y-91347421D01*
X57518164Y-91153388D01*
X57518744Y-91147594D01*
X57543858Y-90978287D01*
X57571717Y-90802396D01*
X57572801Y-90797083D01*
X57615210Y-90627776D01*
X57660529Y-90458644D01*
X57662013Y-90453891D01*
X57721338Y-90288089D01*
X57783668Y-90125717D01*
X57785492Y-90121455D01*
X57814540Y-90060038D01*
X57861145Y-89961499D01*
X57939877Y-89806982D01*
X57941915Y-89803299D01*
X58033192Y-89651013D01*
X58127560Y-89505701D01*
X58129724Y-89502586D01*
X58235718Y-89359670D01*
X58344785Y-89224983D01*
X58346970Y-89222434D01*
X58465703Y-89091433D01*
X58467717Y-89089318D01*
X58589318Y-88967717D01*
X58591433Y-88965703D01*
X58722434Y-88846970D01*
X58724983Y-88844785D01*
X58859656Y-88735728D01*
X59002586Y-88629724D01*
X59005701Y-88627560D01*
X59151013Y-88533192D01*
X59303299Y-88441915D01*
X59306982Y-88439877D01*
X59461499Y-88361145D01*
X59621462Y-88285488D01*
X59625717Y-88283668D01*
X59788089Y-88221338D01*
X59953891Y-88162013D01*
X59958644Y-88160529D01*
X60127776Y-88115210D01*
X60297083Y-88072801D01*
X60302396Y-88071717D01*
X60478287Y-88043858D01*
X60647594Y-88018744D01*
X60653388Y-88018164D01*
X60847421Y-88007995D01*
X60945332Y-88003185D01*
X60998487Y-88000575D01*
X61001529Y-88000500D01*
X78998471Y-88000500D01*
X79001513Y-88000575D01*
G37*
%TD.AperFunction*%
%TA.AperFunction,Conductor*%
G36*
X70174137Y-99645185D02*
G01*
X70194779Y-99661819D01*
X71708588Y-101175629D01*
X71742073Y-101236952D01*
X71744228Y-101250348D01*
X71751164Y-101316335D01*
X71761876Y-101418256D01*
X71761877Y-101418259D01*
X71820368Y-101598277D01*
X71820371Y-101598284D01*
X71915017Y-101762216D01*
X72041679Y-101902888D01*
X72194815Y-102014148D01*
X72194820Y-102014151D01*
X72367742Y-102091142D01*
X72367747Y-102091144D01*
X72552904Y-102130500D01*
X72552905Y-102130500D01*
X72742194Y-102130500D01*
X72742196Y-102130500D01*
X72927353Y-102091144D01*
X73100280Y-102014151D01*
X73253421Y-101902888D01*
X73380083Y-101762216D01*
X73423220Y-101687499D01*
X73473786Y-101639285D01*
X73530607Y-101625500D01*
X77417257Y-101625500D01*
X77432877Y-101627224D01*
X77432904Y-101626939D01*
X77440660Y-101627671D01*
X77440667Y-101627673D01*
X77509814Y-101625500D01*
X77539350Y-101625500D01*
X77546228Y-101624630D01*
X77552041Y-101624172D01*
X77598627Y-101622709D01*
X77617869Y-101617117D01*
X77636912Y-101613174D01*
X77656792Y-101610664D01*
X77700122Y-101593507D01*
X77705646Y-101591617D01*
X77709396Y-101590527D01*
X77750390Y-101578618D01*
X77767629Y-101568422D01*
X77785103Y-101559862D01*
X77803727Y-101552488D01*
X77803727Y-101552487D01*
X77803732Y-101552486D01*
X77841449Y-101525082D01*
X77846305Y-101521892D01*
X77886420Y-101498170D01*
X77900589Y-101483999D01*
X77915379Y-101471368D01*
X77931587Y-101459594D01*
X77961299Y-101423676D01*
X77965212Y-101419376D01*
X78883786Y-100500802D01*
X78896048Y-100490980D01*
X78895865Y-100490759D01*
X78901867Y-100485792D01*
X78901877Y-100485786D01*
X78949241Y-100435348D01*
X78970120Y-100414470D01*
X78974373Y-100408986D01*
X78978150Y-100404563D01*
X79010062Y-100370582D01*
X79019714Y-100353023D01*
X79030389Y-100336772D01*
X79042674Y-100320936D01*
X79061186Y-100278152D01*
X79063742Y-100272935D01*
X79086197Y-100232092D01*
X79091180Y-100212680D01*
X79097477Y-100194291D01*
X79105438Y-100175895D01*
X79112729Y-100129853D01*
X79113908Y-100124162D01*
X79125500Y-100079019D01*
X79125500Y-100058982D01*
X79127027Y-100039582D01*
X79128770Y-100028583D01*
X79130160Y-100019804D01*
X79130159Y-100019803D01*
X79131381Y-100012096D01*
X79134740Y-100012628D01*
X79151554Y-99960995D01*
X79205671Y-99916802D01*
X79275091Y-99908882D01*
X79337772Y-99939750D01*
X79355442Y-99959928D01*
X79371885Y-99983411D01*
X79461505Y-100111401D01*
X79461506Y-100111402D01*
X79628597Y-100278493D01*
X79628603Y-100278498D01*
X79814158Y-100408425D01*
X79857783Y-100463002D01*
X79864977Y-100532500D01*
X79833454Y-100594855D01*
X79814158Y-100611575D01*
X79628597Y-100741505D01*
X79461505Y-100908597D01*
X79325965Y-101102169D01*
X79325964Y-101102171D01*
X79226098Y-101316335D01*
X79226094Y-101316344D01*
X79164938Y-101544586D01*
X79164936Y-101544596D01*
X79144341Y-101779999D01*
X79144341Y-101780000D01*
X79164936Y-102015403D01*
X79164938Y-102015413D01*
X79226094Y-102243655D01*
X79226096Y-102243659D01*
X79226097Y-102243663D01*
X79272630Y-102343453D01*
X79325965Y-102457830D01*
X79325967Y-102457834D01*
X79434281Y-102612521D01*
X79461501Y-102651396D01*
X79461506Y-102651402D01*
X79628597Y-102818493D01*
X79628603Y-102818498D01*
X79814594Y-102948730D01*
X79858219Y-103003307D01*
X79865413Y-103072805D01*
X79833890Y-103135160D01*
X79814595Y-103151880D01*
X79628922Y-103281890D01*
X79628920Y-103281891D01*
X79461891Y-103448920D01*
X79461886Y-103448926D01*
X79326400Y-103642420D01*
X79326399Y-103642422D01*
X79226570Y-103856507D01*
X79226567Y-103856513D01*
X79169364Y-104069999D01*
X79169364Y-104070000D01*
X80066314Y-104070000D01*
X80040507Y-104110156D01*
X80000000Y-104248111D01*
X80000000Y-104391889D01*
X80040507Y-104529844D01*
X80066314Y-104570000D01*
X79169364Y-104570000D01*
X79226567Y-104783486D01*
X79226570Y-104783492D01*
X79326399Y-104997578D01*
X79461894Y-105191082D01*
X79628917Y-105358105D01*
X79822420Y-105493599D01*
X79866099Y-105513966D01*
X79918539Y-105560137D01*
X79937692Y-105627331D01*
X79917477Y-105694212D01*
X79901377Y-105714030D01*
X78777228Y-106838181D01*
X78715905Y-106871666D01*
X78689547Y-106874500D01*
X73749500Y-106874500D01*
X73682461Y-106854815D01*
X73636706Y-106802011D01*
X73625500Y-106750500D01*
X73625500Y-105492742D01*
X73627224Y-105477122D01*
X73626939Y-105477096D01*
X73627671Y-105469340D01*
X73627673Y-105469333D01*
X73625500Y-105400185D01*
X73625500Y-105370650D01*
X73624631Y-105363772D01*
X73624172Y-105357943D01*
X73622709Y-105311372D01*
X73617122Y-105292144D01*
X73613174Y-105273084D01*
X73610664Y-105253208D01*
X73610663Y-105253206D01*
X73610663Y-105253204D01*
X73593512Y-105209887D01*
X73591619Y-105204358D01*
X73578618Y-105159609D01*
X73578616Y-105159606D01*
X73568423Y-105142371D01*
X73559861Y-105124894D01*
X73552487Y-105106270D01*
X73552486Y-105106268D01*
X73525079Y-105068545D01*
X73521888Y-105063686D01*
X73517988Y-105057092D01*
X73498170Y-105023580D01*
X73498168Y-105023578D01*
X73498165Y-105023574D01*
X73484006Y-105009415D01*
X73471368Y-104994619D01*
X73459594Y-104978413D01*
X73427651Y-104951988D01*
X73423688Y-104948709D01*
X73419376Y-104944786D01*
X68488960Y-100014369D01*
X68455475Y-99953046D01*
X68453323Y-99939668D01*
X68435674Y-99771744D01*
X68435672Y-99771740D01*
X68434994Y-99765281D01*
X68437202Y-99765048D01*
X68441748Y-99705598D01*
X68483893Y-99649870D01*
X68549476Y-99625774D01*
X68557716Y-99625500D01*
X70107098Y-99625500D01*
X70174137Y-99645185D01*
G37*
%TD.AperFunction*%
%TD*%
M02*
