%TF.GenerationSoftware,KiCad,Pcbnew,7.0.6*%
%TF.CreationDate,2023-11-15T13:44:32-06:00*%
%TF.ProjectId,TorqueSensorAmpifierPCB,546f7271-7565-4536-956e-736f72416d70,rev?*%
%TF.SameCoordinates,Original*%
%TF.FileFunction,Copper,L1,Top*%
%TF.FilePolarity,Positive*%
%FSLAX46Y46*%
G04 Gerber Fmt 4.6, Leading zero omitted, Abs format (unit mm)*
G04 Created by KiCad (PCBNEW 7.0.6) date 2023-11-15 13:44:32*
%MOMM*%
%LPD*%
G01*
G04 APERTURE LIST*
G04 Aperture macros list*
%AMRoundRect*
0 Rectangle with rounded corners*
0 $1 Rounding radius*
0 $2 $3 $4 $5 $6 $7 $8 $9 X,Y pos of 4 corners*
0 Add a 4 corners polygon primitive as box body*
4,1,4,$2,$3,$4,$5,$6,$7,$8,$9,$2,$3,0*
0 Add four circle primitives for the rounded corners*
1,1,$1+$1,$2,$3*
1,1,$1+$1,$4,$5*
1,1,$1+$1,$6,$7*
1,1,$1+$1,$8,$9*
0 Add four rect primitives between the rounded corners*
20,1,$1+$1,$2,$3,$4,$5,0*
20,1,$1+$1,$4,$5,$6,$7,0*
20,1,$1+$1,$6,$7,$8,$9,0*
20,1,$1+$1,$8,$9,$2,$3,0*%
G04 Aperture macros list end*
%TA.AperFunction,ComponentPad*%
%ADD10C,2.800000*%
%TD*%
%TA.AperFunction,SMDPad,CuDef*%
%ADD11RoundRect,0.250000X0.325000X0.450000X-0.325000X0.450000X-0.325000X-0.450000X0.325000X-0.450000X0*%
%TD*%
%TA.AperFunction,ComponentPad*%
%ADD12R,1.700000X1.700000*%
%TD*%
%TA.AperFunction,ComponentPad*%
%ADD13O,1.700000X1.700000*%
%TD*%
%TA.AperFunction,SMDPad,CuDef*%
%ADD14R,1.257300X0.508000*%
%TD*%
%TA.AperFunction,SMDPad,CuDef*%
%ADD15RoundRect,0.250000X-0.250000X-0.475000X0.250000X-0.475000X0.250000X0.475000X-0.250000X0.475000X0*%
%TD*%
%TA.AperFunction,SMDPad,CuDef*%
%ADD16RoundRect,0.250000X0.262500X0.450000X-0.262500X0.450000X-0.262500X-0.450000X0.262500X-0.450000X0*%
%TD*%
%TA.AperFunction,SMDPad,CuDef*%
%ADD17RoundRect,0.250000X-0.262500X-0.450000X0.262500X-0.450000X0.262500X0.450000X-0.262500X0.450000X0*%
%TD*%
%TA.AperFunction,ViaPad*%
%ADD18C,0.800000*%
%TD*%
%TA.AperFunction,Conductor*%
%ADD19C,0.250000*%
%TD*%
%TA.AperFunction,Conductor*%
%ADD20C,0.500000*%
%TD*%
G04 APERTURE END LIST*
D10*
%TO.P,TP1,1,1*%
%TO.N,/SIG_IN_+*%
X73000000Y-91500000D03*
%TD*%
D11*
%TO.P,D1,1,K*%
%TO.N,GND*%
X68525000Y-96000000D03*
%TO.P,D1,2,A*%
%TO.N,Net-(D1-A)*%
X66475000Y-96000000D03*
%TD*%
D12*
%TO.P,J2,1,Pin_1*%
%TO.N,+5V*%
X80500000Y-96700000D03*
D13*
%TO.P,J2,2,Pin_2*%
%TO.N,GNDS*%
X80500000Y-99240000D03*
%TO.P,J2,3,Pin_3*%
%TO.N,/SIG_OUT_+*%
X80500000Y-101780000D03*
%TO.P,J2,4,Pin_4*%
%TO.N,GND*%
X80500000Y-104320000D03*
%TD*%
D10*
%TO.P,TP4,1,1*%
%TO.N,GNDS*%
X73000000Y-109500000D03*
%TD*%
D14*
%TO.P,U1,1,GAIN*%
%TO.N,Net-(R2-Pad1)*%
X67402450Y-98690000D03*
%TO.P,U1,2,-*%
%TO.N,GNDS*%
X67402450Y-99960000D03*
%TO.P,U1,3,+*%
%TO.N,/SIG_IN_+*%
X67402450Y-101230000D03*
%TO.P,U1,4,GND*%
%TO.N,GND*%
X67402450Y-102500000D03*
%TO.P,U1,5*%
%TO.N,Net-(C3-Pad1)*%
X72647550Y-102500000D03*
%TO.P,U1,6,V+*%
%TO.N,+5V*%
X72647550Y-101230000D03*
%TO.P,U1,7,BYPASS*%
%TO.N,Net-(U1-BYPASS)*%
X72647550Y-99960000D03*
%TO.P,U1,8,GAIN*%
%TO.N,Net-(C2-Pad1)*%
X72647550Y-98690000D03*
%TD*%
D10*
%TO.P,TP2,1,1*%
%TO.N,GNDS*%
X67500000Y-91500000D03*
%TD*%
%TO.P,TP3,1,1*%
%TO.N,/SIG_OUT_+*%
X67500000Y-109500000D03*
%TD*%
D12*
%TO.P,J1,1,Pin_1*%
%TO.N,+5V*%
X59500000Y-96700000D03*
D13*
%TO.P,J1,2,Pin_2*%
%TO.N,GNDS*%
X59500000Y-99240000D03*
%TO.P,J1,3,Pin_3*%
%TO.N,/SIG_IN_+*%
X59500000Y-101780000D03*
%TO.P,J1,4,Pin_4*%
%TO.N,GND*%
X59500000Y-104320000D03*
%TD*%
D15*
%TO.P,C2,1*%
%TO.N,Net-(C2-Pad1)*%
X75050000Y-98500000D03*
%TO.P,C2,2*%
%TO.N,Net-(C2-Pad2)*%
X76950000Y-98500000D03*
%TD*%
D16*
%TO.P,R2,2*%
%TO.N,Net-(C2-Pad2)*%
X70587500Y-96500000D03*
%TO.P,R2,1*%
%TO.N,Net-(R2-Pad1)*%
X72412500Y-96500000D03*
%TD*%
D15*
%TO.P,C3,1*%
%TO.N,Net-(C3-Pad1)*%
X75000000Y-102500000D03*
%TO.P,C3,2*%
%TO.N,/SIG_OUT_+*%
X76900000Y-102500000D03*
%TD*%
D17*
%TO.P,R1,1*%
%TO.N,+5V*%
X62587500Y-96000000D03*
%TO.P,R1,2*%
%TO.N,Net-(D1-A)*%
X64412500Y-96000000D03*
%TD*%
D15*
%TO.P,C1,2*%
%TO.N,GND*%
X76900000Y-100500000D03*
%TO.P,C1,1*%
%TO.N,Net-(U1-BYPASS)*%
X75000000Y-100500000D03*
%TD*%
D18*
%TO.N,Net-(R2-Pad1)*%
X72412500Y-96500000D03*
X67500000Y-98275500D03*
%TO.N,+5V*%
X62587500Y-96000000D03*
X72647550Y-101230000D03*
%TO.N,GNDS*%
X67550000Y-99960000D03*
%TO.N,/SIG_IN_+*%
X67550000Y-101230000D03*
%TD*%
D19*
%TO.N,/SIG_IN_+*%
X73000000Y-91500000D02*
X69425000Y-95075000D01*
X69425000Y-95075000D02*
X69425000Y-99355000D01*
X69425000Y-99355000D02*
X67550000Y-101230000D01*
%TO.N,Net-(R2-Pad1)*%
X67402450Y-98373050D02*
X67500000Y-98275500D01*
X67402450Y-98690000D02*
X67402450Y-98373050D01*
%TO.N,/SIG_OUT_+*%
X69900000Y-109500000D02*
X67500000Y-109500000D01*
X76900000Y-102500000D02*
X69900000Y-109500000D01*
D20*
%TO.N,+5V*%
X62587500Y-96000000D02*
X61887500Y-96700000D01*
X61887500Y-96700000D02*
X59500000Y-96700000D01*
D19*
%TO.N,/SIG_OUT_+*%
X77620000Y-101780000D02*
X80500000Y-101780000D01*
X76900000Y-102500000D02*
X77620000Y-101780000D01*
%TO.N,Net-(C3-Pad1)*%
X72647550Y-102500000D02*
X75000000Y-102500000D01*
%TO.N,Net-(U1-BYPASS)*%
X72647550Y-99960000D02*
X74460000Y-99960000D01*
X74460000Y-99960000D02*
X75000000Y-100500000D01*
%TO.N,Net-(C2-Pad2)*%
X71612500Y-95475000D02*
X70587500Y-96500000D01*
X73925000Y-95475000D02*
X71612500Y-95475000D01*
X76950000Y-98500000D02*
X73925000Y-95475000D01*
%TO.N,Net-(C2-Pad1)*%
X75050000Y-98500000D02*
X72837550Y-98500000D01*
X72837550Y-98500000D02*
X72647550Y-98690000D01*
%TO.N,Net-(D1-A)*%
X64412500Y-96000000D02*
X66475000Y-96000000D01*
%TO.N,Net-(C2-Pad1)*%
X72500000Y-98690000D02*
X72500000Y-98600000D01*
%TO.N,GNDS*%
X67550000Y-99960000D02*
X60220000Y-99960000D01*
X60220000Y-99960000D02*
X59500000Y-99240000D01*
%TD*%
%TA.AperFunction,Conductor*%
%TO.N,GND*%
G36*
X79001513Y-88000575D02*
G01*
X79067131Y-88003797D01*
X79152481Y-88007990D01*
X79346607Y-88018164D01*
X79352409Y-88018745D01*
X79521733Y-88043862D01*
X79697594Y-88071716D01*
X79702929Y-88072804D01*
X79872209Y-88115206D01*
X80041341Y-88160525D01*
X80046122Y-88162018D01*
X80211894Y-88221332D01*
X80374263Y-88283660D01*
X80378543Y-88285492D01*
X80464073Y-88325944D01*
X80538476Y-88361134D01*
X80692992Y-88439864D01*
X80696720Y-88441928D01*
X80848967Y-88533180D01*
X80994262Y-88627537D01*
X80997428Y-88629736D01*
X81140323Y-88735714D01*
X81274975Y-88844752D01*
X81277594Y-88846997D01*
X81408517Y-88965658D01*
X81410721Y-88967757D01*
X81532241Y-89089277D01*
X81534340Y-89091481D01*
X81653001Y-89222404D01*
X81655246Y-89225023D01*
X81764285Y-89359676D01*
X81870262Y-89502570D01*
X81872461Y-89505736D01*
X81966822Y-89651038D01*
X82058070Y-89803278D01*
X82060133Y-89807006D01*
X82138868Y-89961529D01*
X82214506Y-90121455D01*
X82216342Y-90125746D01*
X82278672Y-90288120D01*
X82289827Y-90319295D01*
X82337970Y-90453847D01*
X82339479Y-90458678D01*
X82384793Y-90627790D01*
X82427191Y-90797056D01*
X82428286Y-90802424D01*
X82456145Y-90978317D01*
X82481250Y-91147560D01*
X82481836Y-91153416D01*
X82492011Y-91347561D01*
X82499425Y-91498488D01*
X82499500Y-91501530D01*
X82499500Y-109498469D01*
X82499425Y-109501511D01*
X82492011Y-109652438D01*
X82481836Y-109846582D01*
X82481250Y-109852438D01*
X82456145Y-110021682D01*
X82428286Y-110197574D01*
X82427191Y-110202942D01*
X82384793Y-110372209D01*
X82339479Y-110541320D01*
X82337967Y-110546163D01*
X82278672Y-110711879D01*
X82216342Y-110874252D01*
X82214507Y-110878543D01*
X82138868Y-111038470D01*
X82060133Y-111192992D01*
X82058070Y-111196720D01*
X81966822Y-111348961D01*
X81872461Y-111494262D01*
X81870262Y-111497428D01*
X81764285Y-111640323D01*
X81655245Y-111774975D01*
X81653001Y-111777594D01*
X81534340Y-111908517D01*
X81532241Y-111910721D01*
X81410721Y-112032241D01*
X81408517Y-112034340D01*
X81277594Y-112153001D01*
X81274975Y-112155245D01*
X81140323Y-112264285D01*
X80997428Y-112370262D01*
X80994262Y-112372461D01*
X80848961Y-112466822D01*
X80696720Y-112558070D01*
X80692992Y-112560133D01*
X80538470Y-112638868D01*
X80378543Y-112714507D01*
X80374252Y-112716342D01*
X80211879Y-112778672D01*
X80046163Y-112837967D01*
X80041320Y-112839479D01*
X79872209Y-112884793D01*
X79702942Y-112927191D01*
X79697574Y-112928286D01*
X79521682Y-112956145D01*
X79352438Y-112981250D01*
X79346582Y-112981836D01*
X79152438Y-112992011D01*
X79001513Y-112999425D01*
X78998470Y-112999500D01*
X61001530Y-112999500D01*
X60998488Y-112999425D01*
X60847561Y-112992011D01*
X60653416Y-112981836D01*
X60647560Y-112981250D01*
X60478317Y-112956145D01*
X60302424Y-112928286D01*
X60297056Y-112927191D01*
X60127790Y-112884793D01*
X59958678Y-112839479D01*
X59953847Y-112837970D01*
X59847307Y-112799850D01*
X59788120Y-112778672D01*
X59625746Y-112716342D01*
X59621455Y-112714506D01*
X59461529Y-112638868D01*
X59307006Y-112560133D01*
X59303278Y-112558070D01*
X59151038Y-112466822D01*
X59005736Y-112372461D01*
X59002570Y-112370262D01*
X58859676Y-112264285D01*
X58725023Y-112155246D01*
X58722404Y-112153001D01*
X58591481Y-112034340D01*
X58589277Y-112032241D01*
X58467757Y-111910721D01*
X58465658Y-111908517D01*
X58346997Y-111777594D01*
X58344752Y-111774975D01*
X58235714Y-111640323D01*
X58129736Y-111497428D01*
X58127537Y-111494262D01*
X58033177Y-111348961D01*
X58020718Y-111328175D01*
X57963776Y-111233172D01*
X57941928Y-111196720D01*
X57939864Y-111192992D01*
X57861131Y-111038470D01*
X57785492Y-110878543D01*
X57783656Y-110874252D01*
X57735097Y-110747752D01*
X57721327Y-110711879D01*
X57662018Y-110546122D01*
X57660525Y-110541341D01*
X57615206Y-110372209D01*
X57572804Y-110202929D01*
X57571716Y-110197594D01*
X57543854Y-110021682D01*
X57518745Y-109852409D01*
X57518164Y-109846607D01*
X57507989Y-109652438D01*
X57506945Y-109631187D01*
X59249500Y-109631187D01*
X59269794Y-109765823D01*
X59288604Y-109890615D01*
X59288605Y-109890617D01*
X59288606Y-109890623D01*
X59365938Y-110141326D01*
X59479767Y-110377696D01*
X59479768Y-110377697D01*
X59479770Y-110377700D01*
X59479772Y-110377704D01*
X59583679Y-110530107D01*
X59627567Y-110594479D01*
X59806014Y-110786801D01*
X59806018Y-110786804D01*
X59806019Y-110786805D01*
X60011143Y-110950386D01*
X60238357Y-111081568D01*
X60482584Y-111177420D01*
X60738370Y-111235802D01*
X60738376Y-111235802D01*
X60738379Y-111235803D01*
X60934500Y-111250500D01*
X60934506Y-111250500D01*
X61065500Y-111250500D01*
X61261620Y-111235803D01*
X61261622Y-111235802D01*
X61261630Y-111235802D01*
X61517416Y-111177420D01*
X61761643Y-111081568D01*
X61988857Y-110950386D01*
X62193981Y-110786805D01*
X62372433Y-110594479D01*
X62520228Y-110377704D01*
X62634063Y-110141323D01*
X62711396Y-109890615D01*
X62750500Y-109631182D01*
X62750500Y-109368818D01*
X62711396Y-109109385D01*
X62634063Y-108858677D01*
X62602836Y-108793834D01*
X62520232Y-108622303D01*
X62520231Y-108622302D01*
X62520230Y-108622301D01*
X62520228Y-108622296D01*
X62372433Y-108405521D01*
X62362441Y-108394753D01*
X62193985Y-108213198D01*
X62154533Y-108181736D01*
X61988857Y-108049614D01*
X61761643Y-107918432D01*
X61517416Y-107822580D01*
X61517411Y-107822578D01*
X61517402Y-107822576D01*
X61273161Y-107766830D01*
X61261630Y-107764198D01*
X61261629Y-107764197D01*
X61261625Y-107764197D01*
X61261620Y-107764196D01*
X61065500Y-107749500D01*
X61065494Y-107749500D01*
X60934506Y-107749500D01*
X60934500Y-107749500D01*
X60738379Y-107764196D01*
X60738374Y-107764197D01*
X60482597Y-107822576D01*
X60482578Y-107822582D01*
X60238356Y-107918432D01*
X60011143Y-108049614D01*
X59806014Y-108213198D01*
X59627567Y-108405520D01*
X59479768Y-108622302D01*
X59479767Y-108622303D01*
X59365938Y-108858673D01*
X59288606Y-109109376D01*
X59288605Y-109109381D01*
X59288604Y-109109385D01*
X59281827Y-109154346D01*
X59249500Y-109368812D01*
X59249500Y-109631187D01*
X57506945Y-109631187D01*
X57503797Y-109567131D01*
X57500575Y-109501513D01*
X57500500Y-109498471D01*
X57500500Y-101780000D01*
X58144341Y-101780000D01*
X58164936Y-102015403D01*
X58164938Y-102015413D01*
X58226094Y-102243655D01*
X58226096Y-102243659D01*
X58226097Y-102243663D01*
X58301563Y-102405500D01*
X58325965Y-102457830D01*
X58325967Y-102457834D01*
X58434281Y-102612521D01*
X58461501Y-102651396D01*
X58461506Y-102651402D01*
X58628597Y-102818493D01*
X58628603Y-102818498D01*
X58814594Y-102948730D01*
X58858219Y-103003307D01*
X58865413Y-103072805D01*
X58833890Y-103135160D01*
X58814595Y-103151880D01*
X58628922Y-103281890D01*
X58628920Y-103281891D01*
X58461891Y-103448920D01*
X58461886Y-103448926D01*
X58326400Y-103642420D01*
X58326399Y-103642422D01*
X58226570Y-103856507D01*
X58226567Y-103856513D01*
X58169364Y-104069999D01*
X58169364Y-104070000D01*
X59066314Y-104070000D01*
X59040507Y-104110156D01*
X59000000Y-104248111D01*
X59000000Y-104391889D01*
X59040507Y-104529844D01*
X59066314Y-104570000D01*
X58169364Y-104570000D01*
X58226567Y-104783486D01*
X58226570Y-104783492D01*
X58326399Y-104997578D01*
X58461894Y-105191082D01*
X58628917Y-105358105D01*
X58822421Y-105493600D01*
X59036507Y-105593429D01*
X59036516Y-105593433D01*
X59249998Y-105650635D01*
X59249999Y-105650634D01*
X59249999Y-104755501D01*
X59357685Y-104804680D01*
X59464237Y-104820000D01*
X59535763Y-104820000D01*
X59642315Y-104804680D01*
X59750000Y-104755501D01*
X59750000Y-105650633D01*
X59963483Y-105593433D01*
X59963492Y-105593429D01*
X60177578Y-105493600D01*
X60371082Y-105358105D01*
X60538105Y-105191082D01*
X60673600Y-104997578D01*
X60773429Y-104783492D01*
X60773432Y-104783486D01*
X60830636Y-104570000D01*
X59933686Y-104570000D01*
X59959493Y-104529844D01*
X60000000Y-104391889D01*
X60000000Y-104248111D01*
X59959493Y-104110156D01*
X59933686Y-104070000D01*
X60830636Y-104070000D01*
X60830635Y-104069999D01*
X60773432Y-103856513D01*
X60773429Y-103856507D01*
X60673600Y-103642422D01*
X60673599Y-103642420D01*
X60538113Y-103448926D01*
X60538108Y-103448920D01*
X60371078Y-103281890D01*
X60185405Y-103151879D01*
X60141780Y-103097302D01*
X60134588Y-103027804D01*
X60166110Y-102965449D01*
X60185406Y-102948730D01*
X60371401Y-102818495D01*
X60439896Y-102750000D01*
X66273800Y-102750000D01*
X66273800Y-102801844D01*
X66280201Y-102861372D01*
X66280203Y-102861379D01*
X66330445Y-102996086D01*
X66330449Y-102996093D01*
X66416609Y-103111187D01*
X66416612Y-103111190D01*
X66531706Y-103197350D01*
X66531713Y-103197354D01*
X66666420Y-103247596D01*
X66666427Y-103247598D01*
X66725955Y-103253999D01*
X66725972Y-103254000D01*
X67152450Y-103254000D01*
X67152450Y-102750000D01*
X67652450Y-102750000D01*
X67652450Y-103254000D01*
X68078928Y-103254000D01*
X68078944Y-103253999D01*
X68138472Y-103247598D01*
X68138479Y-103247596D01*
X68273186Y-103197354D01*
X68273193Y-103197350D01*
X68388287Y-103111190D01*
X68388290Y-103111187D01*
X68474450Y-102996093D01*
X68474454Y-102996086D01*
X68524696Y-102861379D01*
X68524698Y-102861372D01*
X68531099Y-102801844D01*
X68531100Y-102801827D01*
X68531100Y-102750000D01*
X67652450Y-102750000D01*
X67152450Y-102750000D01*
X66273800Y-102750000D01*
X60439896Y-102750000D01*
X60538495Y-102651401D01*
X60674035Y-102457830D01*
X60773903Y-102243663D01*
X60835063Y-102015408D01*
X60855659Y-101780000D01*
X60835063Y-101544592D01*
X60773903Y-101316337D01*
X60674035Y-101102171D01*
X60673651Y-101101623D01*
X60538496Y-100908600D01*
X60498409Y-100868513D01*
X60427075Y-100797179D01*
X60393592Y-100735859D01*
X60398576Y-100666167D01*
X60440447Y-100610233D01*
X60505911Y-100585816D01*
X60514758Y-100585500D01*
X66206674Y-100585500D01*
X66273713Y-100605185D01*
X66319468Y-100657989D01*
X66329412Y-100727147D01*
X66322856Y-100752833D01*
X66279709Y-100868517D01*
X66273300Y-100928127D01*
X66273300Y-100928134D01*
X66273300Y-100928135D01*
X66273300Y-101531870D01*
X66273301Y-101531876D01*
X66279708Y-101591483D01*
X66330002Y-101726328D01*
X66330003Y-101726330D01*
X66330004Y-101726331D01*
X66378182Y-101790689D01*
X66378494Y-101791105D01*
X66402911Y-101856569D01*
X66388060Y-101924842D01*
X66378494Y-101939726D01*
X66330449Y-102003906D01*
X66330445Y-102003913D01*
X66280203Y-102138620D01*
X66280201Y-102138627D01*
X66273800Y-102198155D01*
X66273800Y-102250000D01*
X68531100Y-102250000D01*
X68531100Y-102198172D01*
X68531099Y-102198155D01*
X68524698Y-102138627D01*
X68524696Y-102138620D01*
X68474454Y-102003913D01*
X68474452Y-102003910D01*
X68426405Y-101939727D01*
X68401988Y-101874263D01*
X68416840Y-101805990D01*
X68426400Y-101791112D01*
X68474896Y-101726331D01*
X68525191Y-101591483D01*
X68531600Y-101531873D01*
X68531599Y-101184350D01*
X68551283Y-101117312D01*
X68567913Y-101096675D01*
X69808787Y-99855802D01*
X69821042Y-99845986D01*
X69820859Y-99845764D01*
X69826866Y-99840792D01*
X69826877Y-99840786D01*
X69857775Y-99807882D01*
X69874227Y-99790364D01*
X69884671Y-99779918D01*
X69895120Y-99769471D01*
X69899379Y-99763978D01*
X69903152Y-99759561D01*
X69935062Y-99725582D01*
X69944713Y-99708024D01*
X69955396Y-99691761D01*
X69967673Y-99675936D01*
X69986185Y-99633153D01*
X69988738Y-99627941D01*
X70011197Y-99587092D01*
X70016180Y-99567680D01*
X70022481Y-99549280D01*
X70030437Y-99530896D01*
X70037729Y-99484852D01*
X70038906Y-99479171D01*
X70050500Y-99434019D01*
X70050500Y-99413982D01*
X70052027Y-99394582D01*
X70055160Y-99374804D01*
X70050775Y-99328415D01*
X70050500Y-99322577D01*
X70050500Y-97814879D01*
X70070185Y-97747840D01*
X70122989Y-97702085D01*
X70187102Y-97691521D01*
X70274991Y-97700500D01*
X70900008Y-97700499D01*
X70900016Y-97700498D01*
X70900019Y-97700498D01*
X70956302Y-97694748D01*
X71002797Y-97689999D01*
X71169334Y-97634814D01*
X71318656Y-97542712D01*
X71412319Y-97449049D01*
X71473642Y-97415564D01*
X71543334Y-97420548D01*
X71587680Y-97449048D01*
X71681344Y-97542712D01*
X71830666Y-97634814D01*
X71997203Y-97689999D01*
X71997221Y-97690000D01*
X71998359Y-97690245D01*
X71999008Y-97690597D01*
X72003629Y-97692128D01*
X72003356Y-97692951D01*
X72059795Y-97723523D01*
X72093486Y-97784733D01*
X72088737Y-97854441D01*
X72047055Y-97910516D01*
X71981674Y-97935153D01*
X71972436Y-97935500D01*
X71971042Y-97935500D01*
X71971023Y-97935501D01*
X71911416Y-97941908D01*
X71776571Y-97992202D01*
X71776564Y-97992206D01*
X71661355Y-98078452D01*
X71661352Y-98078455D01*
X71575106Y-98193664D01*
X71575102Y-98193671D01*
X71524810Y-98328513D01*
X71524809Y-98328517D01*
X71518400Y-98388127D01*
X71518400Y-98388134D01*
X71518400Y-98388135D01*
X71518400Y-98991870D01*
X71518401Y-98991876D01*
X71524808Y-99051483D01*
X71575102Y-99186328D01*
X71575104Y-99186331D01*
X71623282Y-99250689D01*
X71647699Y-99316154D01*
X71632847Y-99384427D01*
X71623282Y-99399311D01*
X71575104Y-99463668D01*
X71575102Y-99463671D01*
X71529070Y-99587092D01*
X71524809Y-99598517D01*
X71518400Y-99658127D01*
X71518400Y-99658134D01*
X71518400Y-99658135D01*
X71518400Y-100261870D01*
X71518401Y-100261876D01*
X71524808Y-100321483D01*
X71575102Y-100456328D01*
X71575104Y-100456331D01*
X71623282Y-100520689D01*
X71647699Y-100586154D01*
X71632847Y-100654427D01*
X71623282Y-100669311D01*
X71575104Y-100733668D01*
X71575102Y-100733671D01*
X71524810Y-100868513D01*
X71524809Y-100868517D01*
X71518400Y-100928127D01*
X71518400Y-100928134D01*
X71518400Y-100928135D01*
X71518400Y-101531870D01*
X71518401Y-101531876D01*
X71524808Y-101591483D01*
X71575102Y-101726328D01*
X71575104Y-101726331D01*
X71623282Y-101790689D01*
X71647699Y-101856154D01*
X71632847Y-101924427D01*
X71623282Y-101939311D01*
X71575104Y-102003668D01*
X71575102Y-102003671D01*
X71527799Y-102130500D01*
X71524809Y-102138517D01*
X71518400Y-102198127D01*
X71518400Y-102198134D01*
X71518400Y-102198135D01*
X71518400Y-102801870D01*
X71518401Y-102801876D01*
X71524808Y-102861483D01*
X71575102Y-102996328D01*
X71575106Y-102996335D01*
X71661352Y-103111544D01*
X71661355Y-103111547D01*
X71776564Y-103197793D01*
X71776571Y-103197797D01*
X71911417Y-103248091D01*
X71911416Y-103248091D01*
X71918344Y-103248835D01*
X71971027Y-103254500D01*
X73324072Y-103254499D01*
X73383683Y-103248091D01*
X73518531Y-103197796D01*
X73582066Y-103150233D01*
X73647531Y-103125816D01*
X73656378Y-103125500D01*
X73919699Y-103125500D01*
X73986738Y-103145185D01*
X74032493Y-103197989D01*
X74037403Y-103210492D01*
X74065186Y-103294334D01*
X74157288Y-103443656D01*
X74281344Y-103567712D01*
X74430666Y-103659814D01*
X74559005Y-103702341D01*
X74616448Y-103742112D01*
X74643271Y-103806628D01*
X74630956Y-103875404D01*
X74607680Y-103907727D01*
X69677228Y-108838181D01*
X69615905Y-108871666D01*
X69589547Y-108874500D01*
X69381187Y-108874500D01*
X69314148Y-108854815D01*
X69268393Y-108802011D01*
X69265006Y-108793834D01*
X69233174Y-108708493D01*
X69233169Y-108708481D01*
X69102890Y-108469892D01*
X69102889Y-108469891D01*
X69102887Y-108469887D01*
X68939971Y-108252258D01*
X68939966Y-108252253D01*
X68939961Y-108252247D01*
X68747752Y-108060038D01*
X68747746Y-108060033D01*
X68747742Y-108060029D01*
X68530113Y-107897113D01*
X68530108Y-107897110D01*
X68530107Y-107897109D01*
X68291518Y-107766830D01*
X68291519Y-107766830D01*
X68241920Y-107748330D01*
X68036801Y-107671825D01*
X68036794Y-107671823D01*
X68036793Y-107671823D01*
X67771167Y-107614040D01*
X67771160Y-107614039D01*
X67500001Y-107594645D01*
X67499999Y-107594645D01*
X67228839Y-107614039D01*
X67228832Y-107614040D01*
X66963206Y-107671823D01*
X66963202Y-107671824D01*
X66963199Y-107671825D01*
X66835842Y-107719326D01*
X66708480Y-107766830D01*
X66469892Y-107897109D01*
X66469891Y-107897110D01*
X66252259Y-108060028D01*
X66252247Y-108060038D01*
X66060038Y-108252247D01*
X66060028Y-108252259D01*
X65897110Y-108469891D01*
X65897109Y-108469892D01*
X65766830Y-108708480D01*
X65734995Y-108793834D01*
X65671825Y-108963199D01*
X65671824Y-108963202D01*
X65671823Y-108963206D01*
X65614040Y-109228832D01*
X65614039Y-109228839D01*
X65594645Y-109499998D01*
X65594645Y-109500001D01*
X65614039Y-109771160D01*
X65614040Y-109771167D01*
X65663421Y-109998170D01*
X65671825Y-110036801D01*
X65731798Y-110197594D01*
X65766830Y-110291519D01*
X65897109Y-110530107D01*
X65897110Y-110530108D01*
X65897113Y-110530113D01*
X66060029Y-110747742D01*
X66060033Y-110747746D01*
X66060038Y-110747752D01*
X66252247Y-110939961D01*
X66252253Y-110939966D01*
X66252258Y-110939971D01*
X66469887Y-111102887D01*
X66469891Y-111102889D01*
X66469892Y-111102890D01*
X66708481Y-111233169D01*
X66708480Y-111233169D01*
X66708484Y-111233170D01*
X66708487Y-111233172D01*
X66963199Y-111328175D01*
X67228840Y-111385961D01*
X67480604Y-111403967D01*
X67499999Y-111405355D01*
X67500000Y-111405355D01*
X67500001Y-111405355D01*
X67518100Y-111404060D01*
X67771160Y-111385961D01*
X68036801Y-111328175D01*
X68291513Y-111233172D01*
X68291517Y-111233169D01*
X68291519Y-111233169D01*
X68444467Y-111149653D01*
X68530113Y-111102887D01*
X68747742Y-110939971D01*
X68939971Y-110747742D01*
X69102887Y-110530113D01*
X69233172Y-110291513D01*
X69244998Y-110259805D01*
X69265006Y-110206166D01*
X69306877Y-110150232D01*
X69372342Y-110125816D01*
X69381187Y-110125500D01*
X69817257Y-110125500D01*
X69832877Y-110127224D01*
X69832904Y-110126939D01*
X69840660Y-110127671D01*
X69840667Y-110127673D01*
X69909814Y-110125500D01*
X69939350Y-110125500D01*
X69946228Y-110124630D01*
X69952041Y-110124172D01*
X69998627Y-110122709D01*
X70017869Y-110117117D01*
X70036912Y-110113174D01*
X70056792Y-110110664D01*
X70100122Y-110093507D01*
X70105646Y-110091617D01*
X70109396Y-110090527D01*
X70150390Y-110078618D01*
X70167629Y-110068422D01*
X70185103Y-110059862D01*
X70203727Y-110052488D01*
X70203727Y-110052487D01*
X70203732Y-110052486D01*
X70241449Y-110025082D01*
X70246305Y-110021892D01*
X70286420Y-109998170D01*
X70300589Y-109983999D01*
X70315379Y-109971368D01*
X70331587Y-109959594D01*
X70361299Y-109923676D01*
X70365212Y-109919376D01*
X70883448Y-109401140D01*
X70944769Y-109367657D01*
X71014461Y-109372641D01*
X71070394Y-109414513D01*
X71094811Y-109479977D01*
X71094812Y-109497658D01*
X71094645Y-109499996D01*
X71094645Y-109500001D01*
X71114039Y-109771160D01*
X71114040Y-109771167D01*
X71163421Y-109998170D01*
X71171825Y-110036801D01*
X71231798Y-110197594D01*
X71266830Y-110291519D01*
X71397109Y-110530107D01*
X71397110Y-110530108D01*
X71397113Y-110530113D01*
X71560029Y-110747742D01*
X71560033Y-110747746D01*
X71560038Y-110747752D01*
X71752247Y-110939961D01*
X71752253Y-110939966D01*
X71752258Y-110939971D01*
X71969887Y-111102887D01*
X71969891Y-111102889D01*
X71969892Y-111102890D01*
X72208481Y-111233169D01*
X72208480Y-111233169D01*
X72208484Y-111233170D01*
X72208487Y-111233172D01*
X72463199Y-111328175D01*
X72728840Y-111385961D01*
X72980605Y-111403967D01*
X72999999Y-111405355D01*
X73000000Y-111405355D01*
X73000001Y-111405355D01*
X73018100Y-111404060D01*
X73271160Y-111385961D01*
X73536801Y-111328175D01*
X73791513Y-111233172D01*
X73791517Y-111233169D01*
X73791519Y-111233169D01*
X73944467Y-111149653D01*
X74030113Y-111102887D01*
X74247742Y-110939971D01*
X74439971Y-110747742D01*
X74602887Y-110530113D01*
X74689109Y-110372209D01*
X74733169Y-110291519D01*
X74733169Y-110291517D01*
X74733172Y-110291513D01*
X74828175Y-110036801D01*
X74885961Y-109771160D01*
X74895972Y-109631187D01*
X77249500Y-109631187D01*
X77269794Y-109765823D01*
X77288604Y-109890615D01*
X77288605Y-109890617D01*
X77288606Y-109890623D01*
X77365938Y-110141326D01*
X77479767Y-110377696D01*
X77479768Y-110377697D01*
X77479770Y-110377700D01*
X77479772Y-110377704D01*
X77583679Y-110530107D01*
X77627567Y-110594479D01*
X77806014Y-110786801D01*
X77806018Y-110786804D01*
X77806019Y-110786805D01*
X78011143Y-110950386D01*
X78238357Y-111081568D01*
X78482584Y-111177420D01*
X78738370Y-111235802D01*
X78738376Y-111235802D01*
X78738379Y-111235803D01*
X78934500Y-111250500D01*
X78934506Y-111250500D01*
X79065500Y-111250500D01*
X79261620Y-111235803D01*
X79261622Y-111235802D01*
X79261630Y-111235802D01*
X79517416Y-111177420D01*
X79761643Y-111081568D01*
X79988857Y-110950386D01*
X80193981Y-110786805D01*
X80372433Y-110594479D01*
X80520228Y-110377704D01*
X80634063Y-110141323D01*
X80711396Y-109890615D01*
X80750500Y-109631182D01*
X80750500Y-109368818D01*
X80711396Y-109109385D01*
X80634063Y-108858677D01*
X80602836Y-108793834D01*
X80520232Y-108622303D01*
X80520231Y-108622302D01*
X80520230Y-108622301D01*
X80520228Y-108622296D01*
X80372433Y-108405521D01*
X80362441Y-108394753D01*
X80193985Y-108213198D01*
X80154533Y-108181736D01*
X79988857Y-108049614D01*
X79761643Y-107918432D01*
X79517416Y-107822580D01*
X79517411Y-107822578D01*
X79517402Y-107822576D01*
X79273161Y-107766830D01*
X79261630Y-107764198D01*
X79261629Y-107764197D01*
X79261625Y-107764197D01*
X79261620Y-107764196D01*
X79065500Y-107749500D01*
X79065494Y-107749500D01*
X78934506Y-107749500D01*
X78934500Y-107749500D01*
X78738379Y-107764196D01*
X78738374Y-107764197D01*
X78482597Y-107822576D01*
X78482578Y-107822582D01*
X78238356Y-107918432D01*
X78011143Y-108049614D01*
X77806014Y-108213198D01*
X77627567Y-108405520D01*
X77479768Y-108622302D01*
X77479767Y-108622303D01*
X77365938Y-108858673D01*
X77288606Y-109109376D01*
X77288605Y-109109381D01*
X77288604Y-109109385D01*
X77281827Y-109154346D01*
X77249500Y-109368812D01*
X77249500Y-109631187D01*
X74895972Y-109631187D01*
X74905355Y-109500000D01*
X74905245Y-109498469D01*
X74896246Y-109372641D01*
X74885961Y-109228840D01*
X74828175Y-108963199D01*
X74733172Y-108708487D01*
X74733169Y-108708481D01*
X74733169Y-108708480D01*
X74602890Y-108469892D01*
X74602889Y-108469891D01*
X74602887Y-108469887D01*
X74439971Y-108252258D01*
X74439966Y-108252253D01*
X74439961Y-108252247D01*
X74247752Y-108060038D01*
X74247746Y-108060033D01*
X74247742Y-108060029D01*
X74030113Y-107897113D01*
X74030108Y-107897110D01*
X74030107Y-107897109D01*
X73791518Y-107766830D01*
X73791519Y-107766830D01*
X73741920Y-107748330D01*
X73536801Y-107671825D01*
X73536794Y-107671823D01*
X73536793Y-107671823D01*
X73271167Y-107614040D01*
X73271160Y-107614039D01*
X73000001Y-107594645D01*
X72999996Y-107594645D01*
X72997658Y-107594812D01*
X72996891Y-107594645D01*
X72995571Y-107594645D01*
X72995571Y-107594357D01*
X72929386Y-107579954D01*
X72879985Y-107530544D01*
X72865140Y-107462270D01*
X72889563Y-107396807D01*
X72901135Y-107383453D01*
X76522773Y-103761816D01*
X76584094Y-103728333D01*
X76610442Y-103725499D01*
X77200008Y-103725499D01*
X77200016Y-103725498D01*
X77200019Y-103725498D01*
X77256302Y-103719748D01*
X77302797Y-103714999D01*
X77469334Y-103659814D01*
X77618656Y-103567712D01*
X77742712Y-103443656D01*
X77834814Y-103294334D01*
X77889999Y-103127797D01*
X77900500Y-103025009D01*
X77900499Y-102529499D01*
X77920183Y-102462461D01*
X77972987Y-102416706D01*
X78024499Y-102405500D01*
X79224773Y-102405500D01*
X79291812Y-102425185D01*
X79326348Y-102458377D01*
X79461501Y-102651396D01*
X79461506Y-102651402D01*
X79628597Y-102818493D01*
X79628603Y-102818498D01*
X79814594Y-102948730D01*
X79858219Y-103003307D01*
X79865413Y-103072805D01*
X79833890Y-103135160D01*
X79814595Y-103151880D01*
X79628922Y-103281890D01*
X79628920Y-103281891D01*
X79461891Y-103448920D01*
X79461886Y-103448926D01*
X79326400Y-103642420D01*
X79326399Y-103642422D01*
X79226570Y-103856507D01*
X79226567Y-103856513D01*
X79169364Y-104069999D01*
X79169364Y-104070000D01*
X80066314Y-104070000D01*
X80040507Y-104110156D01*
X80000000Y-104248111D01*
X80000000Y-104391889D01*
X80040507Y-104529844D01*
X80066314Y-104570000D01*
X79169364Y-104570000D01*
X79226567Y-104783486D01*
X79226570Y-104783492D01*
X79326399Y-104997578D01*
X79461894Y-105191082D01*
X79628917Y-105358105D01*
X79822421Y-105493600D01*
X80036507Y-105593429D01*
X80036516Y-105593433D01*
X80250000Y-105650634D01*
X80250000Y-104755501D01*
X80357685Y-104804680D01*
X80464237Y-104820000D01*
X80535763Y-104820000D01*
X80642315Y-104804680D01*
X80750000Y-104755501D01*
X80750000Y-105650633D01*
X80963483Y-105593433D01*
X80963492Y-105593429D01*
X81177578Y-105493600D01*
X81371082Y-105358105D01*
X81538105Y-105191082D01*
X81673600Y-104997578D01*
X81773429Y-104783492D01*
X81773432Y-104783486D01*
X81830636Y-104570000D01*
X80933686Y-104570000D01*
X80959493Y-104529844D01*
X81000000Y-104391889D01*
X81000000Y-104248111D01*
X80959493Y-104110156D01*
X80933686Y-104070000D01*
X81830636Y-104070000D01*
X81830635Y-104069999D01*
X81773432Y-103856513D01*
X81773429Y-103856507D01*
X81673600Y-103642422D01*
X81673599Y-103642420D01*
X81538113Y-103448926D01*
X81538108Y-103448920D01*
X81371078Y-103281890D01*
X81185405Y-103151879D01*
X81141780Y-103097302D01*
X81134588Y-103027804D01*
X81166110Y-102965449D01*
X81185406Y-102948730D01*
X81371401Y-102818495D01*
X81538495Y-102651401D01*
X81674035Y-102457830D01*
X81773903Y-102243663D01*
X81835063Y-102015408D01*
X81855659Y-101780000D01*
X81835063Y-101544592D01*
X81773903Y-101316337D01*
X81674035Y-101102171D01*
X81673652Y-101101623D01*
X81538494Y-100908597D01*
X81371402Y-100741506D01*
X81371401Y-100741505D01*
X81206443Y-100626000D01*
X81185841Y-100611574D01*
X81142216Y-100556997D01*
X81135024Y-100487498D01*
X81166546Y-100425144D01*
X81185836Y-100408428D01*
X81371401Y-100278495D01*
X81538495Y-100111401D01*
X81674035Y-99917830D01*
X81773903Y-99703663D01*
X81835063Y-99475408D01*
X81855659Y-99240000D01*
X81835063Y-99004592D01*
X81773903Y-98776337D01*
X81674035Y-98562171D01*
X81552174Y-98388135D01*
X81538496Y-98368600D01*
X81498409Y-98328513D01*
X81416567Y-98246671D01*
X81383084Y-98185351D01*
X81388068Y-98115659D01*
X81429939Y-98059725D01*
X81460915Y-98042810D01*
X81592331Y-97993796D01*
X81707546Y-97907546D01*
X81793796Y-97792331D01*
X81844091Y-97657483D01*
X81850500Y-97597873D01*
X81850499Y-95802128D01*
X81844091Y-95742517D01*
X81793796Y-95607669D01*
X81793795Y-95607668D01*
X81793793Y-95607664D01*
X81707547Y-95492455D01*
X81707544Y-95492452D01*
X81592335Y-95406206D01*
X81592328Y-95406202D01*
X81457482Y-95355908D01*
X81457483Y-95355908D01*
X81397883Y-95349501D01*
X81397881Y-95349500D01*
X81397873Y-95349500D01*
X81397864Y-95349500D01*
X79602129Y-95349500D01*
X79602123Y-95349501D01*
X79542516Y-95355908D01*
X79407671Y-95406202D01*
X79407664Y-95406206D01*
X79292455Y-95492452D01*
X79292452Y-95492455D01*
X79206206Y-95607664D01*
X79206202Y-95607671D01*
X79155908Y-95742517D01*
X79149501Y-95802116D01*
X79149501Y-95802123D01*
X79149500Y-95802135D01*
X79149500Y-97597870D01*
X79149501Y-97597876D01*
X79155908Y-97657483D01*
X79206202Y-97792328D01*
X79206206Y-97792335D01*
X79292452Y-97907544D01*
X79292455Y-97907547D01*
X79407664Y-97993793D01*
X79407671Y-97993797D01*
X79539081Y-98042810D01*
X79595015Y-98084681D01*
X79619432Y-98150145D01*
X79604580Y-98218418D01*
X79583430Y-98246673D01*
X79461503Y-98368600D01*
X79325965Y-98562169D01*
X79325964Y-98562171D01*
X79226098Y-98776335D01*
X79226094Y-98776344D01*
X79164938Y-99004586D01*
X79164936Y-99004596D01*
X79144341Y-99239999D01*
X79144341Y-99240000D01*
X79164936Y-99475403D01*
X79164938Y-99475413D01*
X79226094Y-99703655D01*
X79226096Y-99703659D01*
X79226097Y-99703663D01*
X79297043Y-99855806D01*
X79325965Y-99917830D01*
X79325967Y-99917834D01*
X79461501Y-100111395D01*
X79461506Y-100111402D01*
X79628597Y-100278493D01*
X79628603Y-100278498D01*
X79814158Y-100408425D01*
X79857783Y-100463002D01*
X79864977Y-100532500D01*
X79833454Y-100594855D01*
X79814158Y-100611575D01*
X79628597Y-100741505D01*
X79461505Y-100908597D01*
X79326348Y-101101623D01*
X79271771Y-101145248D01*
X79224773Y-101154500D01*
X78023880Y-101154500D01*
X77956841Y-101134815D01*
X77911086Y-101082011D01*
X77900789Y-101028136D01*
X77900000Y-101028136D01*
X77900000Y-100750000D01*
X76774000Y-100750000D01*
X76706961Y-100730315D01*
X76661206Y-100677511D01*
X76650000Y-100626000D01*
X76650000Y-100374000D01*
X76669685Y-100306961D01*
X76722489Y-100261206D01*
X76774000Y-100250000D01*
X77899999Y-100250000D01*
X77899999Y-99975028D01*
X77899998Y-99975013D01*
X77889505Y-99872302D01*
X77834358Y-99705880D01*
X77834353Y-99705869D01*
X77769905Y-99601383D01*
X77751464Y-99533991D01*
X77772386Y-99467327D01*
X77787760Y-99448607D01*
X77792712Y-99443656D01*
X77884814Y-99294334D01*
X77939999Y-99127797D01*
X77950500Y-99025009D01*
X77950499Y-97974992D01*
X77949367Y-97963914D01*
X77939999Y-97872203D01*
X77939998Y-97872200D01*
X77931631Y-97846949D01*
X77884814Y-97705666D01*
X77792712Y-97556344D01*
X77668656Y-97432288D01*
X77519334Y-97340186D01*
X77352797Y-97285001D01*
X77352795Y-97285000D01*
X77250016Y-97274500D01*
X76660453Y-97274500D01*
X76593414Y-97254815D01*
X76572772Y-97238181D01*
X74425803Y-95091212D01*
X74415980Y-95078950D01*
X74415759Y-95079134D01*
X74410786Y-95073123D01*
X74391696Y-95055196D01*
X74360364Y-95025773D01*
X74349919Y-95015328D01*
X74339475Y-95004883D01*
X74333986Y-95000625D01*
X74329561Y-94996847D01*
X74295582Y-94964938D01*
X74295580Y-94964936D01*
X74295577Y-94964935D01*
X74278029Y-94955288D01*
X74261763Y-94944604D01*
X74245933Y-94932325D01*
X74203168Y-94913818D01*
X74197922Y-94911248D01*
X74157093Y-94888803D01*
X74157092Y-94888802D01*
X74137693Y-94883822D01*
X74119281Y-94877518D01*
X74100898Y-94869562D01*
X74100892Y-94869560D01*
X74054874Y-94862272D01*
X74049152Y-94861087D01*
X74004021Y-94849500D01*
X74004019Y-94849500D01*
X73983984Y-94849500D01*
X73964586Y-94847973D01*
X73957162Y-94846797D01*
X73944805Y-94844840D01*
X73944804Y-94844840D01*
X73898416Y-94849225D01*
X73892578Y-94849500D01*
X71695243Y-94849500D01*
X71679622Y-94847775D01*
X71679596Y-94848061D01*
X71671834Y-94847327D01*
X71671833Y-94847327D01*
X71602686Y-94849500D01*
X71573149Y-94849500D01*
X71566266Y-94850369D01*
X71560449Y-94850826D01*
X71513873Y-94852290D01*
X71494629Y-94857881D01*
X71475579Y-94861825D01*
X71455711Y-94864334D01*
X71412384Y-94881488D01*
X71406858Y-94883379D01*
X71362114Y-94896379D01*
X71362110Y-94896381D01*
X71344866Y-94906579D01*
X71327405Y-94915133D01*
X71308774Y-94922510D01*
X71308762Y-94922517D01*
X71271070Y-94949902D01*
X71266187Y-94953109D01*
X71226080Y-94976829D01*
X71211914Y-94990995D01*
X71197124Y-95003627D01*
X71180914Y-95015404D01*
X71180911Y-95015407D01*
X71151210Y-95051309D01*
X71147277Y-95055631D01*
X70939727Y-95263181D01*
X70878404Y-95296666D01*
X70852046Y-95299500D01*
X70384451Y-95299500D01*
X70317412Y-95279815D01*
X70271657Y-95227011D01*
X70261713Y-95157853D01*
X70290738Y-95094297D01*
X70296756Y-95087833D01*
X72110573Y-93274016D01*
X72171894Y-93240533D01*
X72241585Y-93245517D01*
X72463199Y-93328175D01*
X72463202Y-93328175D01*
X72463203Y-93328176D01*
X72551745Y-93347436D01*
X72728840Y-93385961D01*
X72980605Y-93403967D01*
X72999999Y-93405355D01*
X73000000Y-93405355D01*
X73000001Y-93405355D01*
X73018100Y-93404060D01*
X73271160Y-93385961D01*
X73536801Y-93328175D01*
X73791513Y-93233172D01*
X73791517Y-93233169D01*
X73791519Y-93233169D01*
X73910812Y-93168029D01*
X74030113Y-93102887D01*
X74247742Y-92939971D01*
X74439971Y-92747742D01*
X74602887Y-92530113D01*
X74713017Y-92328425D01*
X74733169Y-92291519D01*
X74733169Y-92291517D01*
X74733172Y-92291513D01*
X74828175Y-92036801D01*
X74885961Y-91771160D01*
X74895972Y-91631187D01*
X77249500Y-91631187D01*
X77269794Y-91765823D01*
X77288604Y-91890615D01*
X77288605Y-91890617D01*
X77288606Y-91890623D01*
X77365938Y-92141326D01*
X77479767Y-92377696D01*
X77479768Y-92377697D01*
X77479770Y-92377700D01*
X77479772Y-92377704D01*
X77583679Y-92530107D01*
X77627567Y-92594479D01*
X77806014Y-92786801D01*
X77806018Y-92786804D01*
X77806019Y-92786805D01*
X78011143Y-92950386D01*
X78238357Y-93081568D01*
X78482584Y-93177420D01*
X78738370Y-93235802D01*
X78738376Y-93235802D01*
X78738379Y-93235803D01*
X78934500Y-93250500D01*
X78934506Y-93250500D01*
X79065500Y-93250500D01*
X79261620Y-93235803D01*
X79261622Y-93235802D01*
X79261630Y-93235802D01*
X79517416Y-93177420D01*
X79761643Y-93081568D01*
X79988857Y-92950386D01*
X80193981Y-92786805D01*
X80372433Y-92594479D01*
X80520228Y-92377704D01*
X80634063Y-92141323D01*
X80711396Y-91890615D01*
X80750500Y-91631182D01*
X80750500Y-91368818D01*
X80711396Y-91109385D01*
X80634063Y-90858677D01*
X80604388Y-90797056D01*
X80520232Y-90622303D01*
X80520231Y-90622302D01*
X80520230Y-90622301D01*
X80520228Y-90622296D01*
X80372433Y-90405521D01*
X80362441Y-90394753D01*
X80193985Y-90213198D01*
X80154533Y-90181736D01*
X79988857Y-90049614D01*
X79761643Y-89918432D01*
X79517416Y-89822580D01*
X79517411Y-89822578D01*
X79517402Y-89822576D01*
X79273161Y-89766830D01*
X79261630Y-89764198D01*
X79261629Y-89764197D01*
X79261625Y-89764197D01*
X79261620Y-89764196D01*
X79065500Y-89749500D01*
X79065494Y-89749500D01*
X78934506Y-89749500D01*
X78934500Y-89749500D01*
X78738379Y-89764196D01*
X78738374Y-89764197D01*
X78482597Y-89822576D01*
X78482578Y-89822582D01*
X78238356Y-89918432D01*
X78011143Y-90049614D01*
X77806014Y-90213198D01*
X77627567Y-90405520D01*
X77479768Y-90622302D01*
X77479767Y-90622303D01*
X77365938Y-90858673D01*
X77288606Y-91109376D01*
X77288605Y-91109381D01*
X77288604Y-91109385D01*
X77281429Y-91156989D01*
X77249500Y-91368812D01*
X77249500Y-91631187D01*
X74895972Y-91631187D01*
X74905355Y-91500000D01*
X74885961Y-91228840D01*
X74828175Y-90963199D01*
X74733172Y-90708487D01*
X74733170Y-90708484D01*
X74733169Y-90708480D01*
X74602890Y-90469892D01*
X74602889Y-90469891D01*
X74602887Y-90469887D01*
X74439971Y-90252258D01*
X74439966Y-90252253D01*
X74439961Y-90252247D01*
X74247752Y-90060038D01*
X74247746Y-90060033D01*
X74247742Y-90060029D01*
X74030113Y-89897113D01*
X74030108Y-89897110D01*
X74030107Y-89897109D01*
X73791518Y-89766830D01*
X73791519Y-89766830D01*
X73741920Y-89748330D01*
X73536801Y-89671825D01*
X73536794Y-89671823D01*
X73536793Y-89671823D01*
X73271167Y-89614040D01*
X73271160Y-89614039D01*
X73000001Y-89594645D01*
X72999999Y-89594645D01*
X72728839Y-89614039D01*
X72728832Y-89614040D01*
X72463206Y-89671823D01*
X72463202Y-89671824D01*
X72463199Y-89671825D01*
X72335842Y-89719326D01*
X72208480Y-89766830D01*
X71969892Y-89897109D01*
X71969891Y-89897110D01*
X71752259Y-90060028D01*
X71752247Y-90060038D01*
X71560038Y-90252247D01*
X71560028Y-90252259D01*
X71397110Y-90469891D01*
X71397109Y-90469892D01*
X71266830Y-90708480D01*
X71231791Y-90802424D01*
X71171825Y-90963199D01*
X71171824Y-90963202D01*
X71171823Y-90963206D01*
X71114040Y-91228832D01*
X71114039Y-91228839D01*
X71094645Y-91499998D01*
X71094645Y-91500001D01*
X71114039Y-91771160D01*
X71114040Y-91771167D01*
X71140025Y-91890617D01*
X71171825Y-92036801D01*
X71254482Y-92258411D01*
X71259466Y-92328103D01*
X71225981Y-92389426D01*
X69041208Y-94574199D01*
X69028951Y-94584020D01*
X69029134Y-94584241D01*
X69023123Y-94589213D01*
X68975772Y-94639636D01*
X68954889Y-94660519D01*
X68954877Y-94660532D01*
X68950621Y-94666017D01*
X68946837Y-94670447D01*
X68914937Y-94704418D01*
X68914936Y-94704420D01*
X68905284Y-94721976D01*
X68894614Y-94738221D01*
X68887345Y-94747593D01*
X68883936Y-94751989D01*
X68827300Y-94792902D01*
X68785949Y-94800000D01*
X68775000Y-94800000D01*
X68775000Y-97209824D01*
X68796666Y-97249503D01*
X68799500Y-97275861D01*
X68799500Y-99044545D01*
X68779815Y-99111584D01*
X68763181Y-99132226D01*
X68735338Y-99160069D01*
X68674015Y-99193554D01*
X68604323Y-99188570D01*
X68548390Y-99146698D01*
X68523973Y-99081234D01*
X68524368Y-99059132D01*
X68525190Y-99051485D01*
X68525191Y-99051483D01*
X68531600Y-98991873D01*
X68531599Y-98388128D01*
X68525191Y-98328517D01*
X68474896Y-98193669D01*
X68390662Y-98081147D01*
X68371998Y-98045154D01*
X68327181Y-97907221D01*
X68327178Y-97907215D01*
X68309901Y-97877290D01*
X68232533Y-97743284D01*
X68105871Y-97602612D01*
X68099362Y-97597883D01*
X67952734Y-97491351D01*
X67952729Y-97491348D01*
X67779807Y-97414357D01*
X67779802Y-97414355D01*
X67626713Y-97381816D01*
X67594646Y-97375000D01*
X67405354Y-97375000D01*
X67386460Y-97379016D01*
X67220197Y-97414355D01*
X67220192Y-97414357D01*
X67047270Y-97491348D01*
X67047265Y-97491351D01*
X66894129Y-97602611D01*
X66767465Y-97743285D01*
X66671367Y-97909733D01*
X66620800Y-97957949D01*
X66607315Y-97963914D01*
X66531467Y-97992204D01*
X66531465Y-97992205D01*
X66416255Y-98078452D01*
X66416252Y-98078455D01*
X66330006Y-98193664D01*
X66330002Y-98193671D01*
X66279710Y-98328513D01*
X66279709Y-98328517D01*
X66273300Y-98388127D01*
X66273300Y-98388134D01*
X66273300Y-98388135D01*
X66273300Y-98991870D01*
X66273301Y-98991876D01*
X66279708Y-99051483D01*
X66322856Y-99167167D01*
X66327840Y-99236859D01*
X66294355Y-99298182D01*
X66233031Y-99331666D01*
X66206674Y-99334500D01*
X60977552Y-99334500D01*
X60910513Y-99314815D01*
X60864758Y-99262011D01*
X60854024Y-99221308D01*
X60839835Y-99059132D01*
X60835063Y-99004592D01*
X60773903Y-98776337D01*
X60674035Y-98562171D01*
X60552174Y-98388135D01*
X60538496Y-98368600D01*
X60498409Y-98328513D01*
X60416567Y-98246671D01*
X60383084Y-98185351D01*
X60388068Y-98115659D01*
X60429939Y-98059725D01*
X60460915Y-98042810D01*
X60592331Y-97993796D01*
X60707546Y-97907546D01*
X60793796Y-97792331D01*
X60844091Y-97657483D01*
X60850500Y-97597873D01*
X60850500Y-97574500D01*
X60870185Y-97507461D01*
X60922989Y-97461706D01*
X60974500Y-97450500D01*
X61823795Y-97450500D01*
X61841765Y-97451809D01*
X61865523Y-97455289D01*
X61917568Y-97450735D01*
X61922970Y-97450500D01*
X61931204Y-97450500D01*
X61931209Y-97450500D01*
X61943621Y-97449049D01*
X61963776Y-97446693D01*
X61976528Y-97445577D01*
X62040297Y-97439999D01*
X62040305Y-97439996D01*
X62047366Y-97438539D01*
X62047378Y-97438598D01*
X62054743Y-97436965D01*
X62054729Y-97436906D01*
X62061746Y-97435241D01*
X62061755Y-97435241D01*
X62133923Y-97408974D01*
X62206834Y-97384814D01*
X62206843Y-97384807D01*
X62213382Y-97381760D01*
X62213408Y-97381816D01*
X62220190Y-97378532D01*
X62220163Y-97378478D01*
X62226606Y-97375240D01*
X62226617Y-97375237D01*
X62290783Y-97333034D01*
X62356156Y-97292712D01*
X62356162Y-97292705D01*
X62361825Y-97288229D01*
X62361862Y-97288277D01*
X62367704Y-97283518D01*
X62367664Y-97283471D01*
X62373186Y-97278836D01*
X62373196Y-97278830D01*
X62395853Y-97254815D01*
X62410391Y-97239406D01*
X62470714Y-97204151D01*
X62500586Y-97200499D01*
X62900002Y-97200499D01*
X62900008Y-97200499D01*
X63002797Y-97189999D01*
X63169334Y-97134814D01*
X63318656Y-97042712D01*
X63412321Y-96949046D01*
X63473640Y-96915564D01*
X63543332Y-96920548D01*
X63587680Y-96949048D01*
X63681344Y-97042712D01*
X63830666Y-97134814D01*
X63997203Y-97189999D01*
X64099991Y-97200500D01*
X64725008Y-97200499D01*
X64725016Y-97200498D01*
X64725019Y-97200498D01*
X64781302Y-97194748D01*
X64827797Y-97189999D01*
X64994334Y-97134814D01*
X65143656Y-97042712D01*
X65267712Y-96918656D01*
X65306960Y-96855023D01*
X65358909Y-96808298D01*
X65427871Y-96797075D01*
X65491954Y-96824919D01*
X65518039Y-96855023D01*
X65557288Y-96918656D01*
X65681344Y-97042712D01*
X65830666Y-97134814D01*
X65997203Y-97189999D01*
X66099991Y-97200500D01*
X66850008Y-97200499D01*
X66850016Y-97200498D01*
X66850019Y-97200498D01*
X66906302Y-97194748D01*
X66952797Y-97189999D01*
X67119334Y-97134814D01*
X67268656Y-97042712D01*
X67392712Y-96918656D01*
X67394752Y-96915347D01*
X67396745Y-96913555D01*
X67397193Y-96912989D01*
X67397289Y-96913065D01*
X67446694Y-96868623D01*
X67515656Y-96857395D01*
X67579740Y-96885234D01*
X67605829Y-96915339D01*
X67607681Y-96918341D01*
X67607683Y-96918344D01*
X67731654Y-97042315D01*
X67880875Y-97134356D01*
X67880880Y-97134358D01*
X68047302Y-97189505D01*
X68047309Y-97189506D01*
X68150019Y-97199999D01*
X68274999Y-97199999D01*
X68275000Y-97199998D01*
X68275000Y-94800000D01*
X68150027Y-94800000D01*
X68150012Y-94800001D01*
X68047302Y-94810494D01*
X67880880Y-94865641D01*
X67880875Y-94865643D01*
X67731654Y-94957684D01*
X67607683Y-95081655D01*
X67607679Y-95081660D01*
X67605826Y-95084665D01*
X67604018Y-95086290D01*
X67603202Y-95087323D01*
X67603025Y-95087183D01*
X67553874Y-95131385D01*
X67484911Y-95142601D01*
X67420831Y-95114752D01*
X67394753Y-95084653D01*
X67394619Y-95084436D01*
X67392712Y-95081344D01*
X67268656Y-94957288D01*
X67169906Y-94896379D01*
X67119336Y-94865187D01*
X67119331Y-94865185D01*
X67097289Y-94857881D01*
X66952797Y-94810001D01*
X66952795Y-94810000D01*
X66850010Y-94799500D01*
X66099998Y-94799500D01*
X66099980Y-94799501D01*
X65997203Y-94810000D01*
X65997200Y-94810001D01*
X65830668Y-94865185D01*
X65830663Y-94865187D01*
X65681342Y-94957289D01*
X65557288Y-95081343D01*
X65557285Y-95081347D01*
X65518038Y-95144977D01*
X65466090Y-95191702D01*
X65397128Y-95202923D01*
X65333046Y-95175080D01*
X65306962Y-95144977D01*
X65267714Y-95081347D01*
X65267713Y-95081345D01*
X65267712Y-95081344D01*
X65143656Y-94957288D01*
X65044906Y-94896379D01*
X64994336Y-94865187D01*
X64994331Y-94865185D01*
X64972289Y-94857881D01*
X64827797Y-94810001D01*
X64827795Y-94810000D01*
X64725010Y-94799500D01*
X64099998Y-94799500D01*
X64099980Y-94799501D01*
X63997203Y-94810000D01*
X63997200Y-94810001D01*
X63830668Y-94865185D01*
X63830663Y-94865187D01*
X63681345Y-94957287D01*
X63587680Y-95050952D01*
X63526356Y-95084436D01*
X63456665Y-95079452D01*
X63412322Y-95050954D01*
X63318656Y-94957288D01*
X63219911Y-94896382D01*
X63169336Y-94865187D01*
X63169331Y-94865185D01*
X63147289Y-94857881D01*
X63002797Y-94810001D01*
X63002795Y-94810000D01*
X62900010Y-94799500D01*
X62274998Y-94799500D01*
X62274980Y-94799501D01*
X62172203Y-94810000D01*
X62172200Y-94810001D01*
X62005668Y-94865185D01*
X62005663Y-94865187D01*
X61856342Y-94957289D01*
X61732289Y-95081342D01*
X61640187Y-95230663D01*
X61640185Y-95230668D01*
X61618316Y-95296666D01*
X61585001Y-95397203D01*
X61585001Y-95397204D01*
X61585000Y-95397204D01*
X61574500Y-95499983D01*
X61574500Y-95825500D01*
X61554815Y-95892539D01*
X61502011Y-95938294D01*
X61450500Y-95949500D01*
X60974499Y-95949500D01*
X60907460Y-95929815D01*
X60861705Y-95877011D01*
X60850499Y-95825500D01*
X60850499Y-95802129D01*
X60850498Y-95802123D01*
X60850497Y-95802116D01*
X60844091Y-95742517D01*
X60793796Y-95607669D01*
X60793795Y-95607668D01*
X60793793Y-95607664D01*
X60707547Y-95492455D01*
X60707544Y-95492452D01*
X60592335Y-95406206D01*
X60592328Y-95406202D01*
X60457482Y-95355908D01*
X60457483Y-95355908D01*
X60397883Y-95349501D01*
X60397881Y-95349500D01*
X60397873Y-95349500D01*
X60397864Y-95349500D01*
X58602129Y-95349500D01*
X58602123Y-95349501D01*
X58542516Y-95355908D01*
X58407671Y-95406202D01*
X58407664Y-95406206D01*
X58292455Y-95492452D01*
X58292452Y-95492455D01*
X58206206Y-95607664D01*
X58206202Y-95607671D01*
X58155908Y-95742517D01*
X58149501Y-95802116D01*
X58149501Y-95802123D01*
X58149500Y-95802135D01*
X58149500Y-97597870D01*
X58149501Y-97597876D01*
X58155908Y-97657483D01*
X58206202Y-97792328D01*
X58206206Y-97792335D01*
X58292452Y-97907544D01*
X58292455Y-97907547D01*
X58407664Y-97993793D01*
X58407671Y-97993797D01*
X58539081Y-98042810D01*
X58595015Y-98084681D01*
X58619432Y-98150145D01*
X58604580Y-98218418D01*
X58583430Y-98246673D01*
X58461503Y-98368600D01*
X58325965Y-98562169D01*
X58325964Y-98562171D01*
X58226098Y-98776335D01*
X58226094Y-98776344D01*
X58164938Y-99004586D01*
X58164936Y-99004596D01*
X58144341Y-99239999D01*
X58144341Y-99240000D01*
X58164936Y-99475403D01*
X58164938Y-99475413D01*
X58226094Y-99703655D01*
X58226096Y-99703659D01*
X58226097Y-99703663D01*
X58297043Y-99855806D01*
X58325965Y-99917830D01*
X58325967Y-99917834D01*
X58461501Y-100111395D01*
X58461506Y-100111402D01*
X58628597Y-100278493D01*
X58628603Y-100278498D01*
X58814158Y-100408425D01*
X58857783Y-100463002D01*
X58864977Y-100532500D01*
X58833454Y-100594855D01*
X58814158Y-100611575D01*
X58628597Y-100741505D01*
X58461505Y-100908597D01*
X58325965Y-101102169D01*
X58325964Y-101102171D01*
X58226098Y-101316335D01*
X58226094Y-101316344D01*
X58164938Y-101544586D01*
X58164936Y-101544596D01*
X58144341Y-101779999D01*
X58144341Y-101780000D01*
X57500500Y-101780000D01*
X57500500Y-91631187D01*
X59249500Y-91631187D01*
X59269794Y-91765823D01*
X59288604Y-91890615D01*
X59288605Y-91890617D01*
X59288606Y-91890623D01*
X59365938Y-92141326D01*
X59479767Y-92377696D01*
X59479768Y-92377697D01*
X59479770Y-92377700D01*
X59479772Y-92377704D01*
X59583679Y-92530107D01*
X59627567Y-92594479D01*
X59806014Y-92786801D01*
X59806018Y-92786804D01*
X59806019Y-92786805D01*
X60011143Y-92950386D01*
X60238357Y-93081568D01*
X60482584Y-93177420D01*
X60738370Y-93235802D01*
X60738376Y-93235802D01*
X60738379Y-93235803D01*
X60934500Y-93250500D01*
X60934506Y-93250500D01*
X61065500Y-93250500D01*
X61261620Y-93235803D01*
X61261622Y-93235802D01*
X61261630Y-93235802D01*
X61517416Y-93177420D01*
X61761643Y-93081568D01*
X61988857Y-92950386D01*
X62193981Y-92786805D01*
X62372433Y-92594479D01*
X62520228Y-92377704D01*
X62634063Y-92141323D01*
X62711396Y-91890615D01*
X62750500Y-91631182D01*
X62750500Y-91500001D01*
X65594645Y-91500001D01*
X65614039Y-91771160D01*
X65614040Y-91771167D01*
X65640025Y-91890617D01*
X65671825Y-92036801D01*
X65710810Y-92141323D01*
X65766830Y-92291519D01*
X65897109Y-92530107D01*
X65897110Y-92530108D01*
X65897113Y-92530113D01*
X66060029Y-92747742D01*
X66060033Y-92747746D01*
X66060038Y-92747752D01*
X66252247Y-92939961D01*
X66252253Y-92939966D01*
X66252258Y-92939971D01*
X66469887Y-93102887D01*
X66469891Y-93102889D01*
X66469892Y-93102890D01*
X66708481Y-93233169D01*
X66708480Y-93233169D01*
X66708484Y-93233170D01*
X66708487Y-93233172D01*
X66963199Y-93328175D01*
X67228840Y-93385961D01*
X67480604Y-93403967D01*
X67499999Y-93405355D01*
X67500000Y-93405355D01*
X67500001Y-93405355D01*
X67518100Y-93404060D01*
X67771160Y-93385961D01*
X68036801Y-93328175D01*
X68291513Y-93233172D01*
X68291517Y-93233169D01*
X68291519Y-93233169D01*
X68410812Y-93168029D01*
X68530113Y-93102887D01*
X68747742Y-92939971D01*
X68939971Y-92747742D01*
X69102887Y-92530113D01*
X69213017Y-92328425D01*
X69233169Y-92291519D01*
X69233169Y-92291517D01*
X69233172Y-92291513D01*
X69328175Y-92036801D01*
X69385961Y-91771160D01*
X69405355Y-91500000D01*
X69385961Y-91228840D01*
X69328175Y-90963199D01*
X69233172Y-90708487D01*
X69233170Y-90708484D01*
X69233169Y-90708480D01*
X69102890Y-90469892D01*
X69102889Y-90469891D01*
X69102887Y-90469887D01*
X68939971Y-90252258D01*
X68939966Y-90252253D01*
X68939961Y-90252247D01*
X68747752Y-90060038D01*
X68747746Y-90060033D01*
X68747742Y-90060029D01*
X68530113Y-89897113D01*
X68530108Y-89897110D01*
X68530107Y-89897109D01*
X68291518Y-89766830D01*
X68291519Y-89766830D01*
X68241920Y-89748330D01*
X68036801Y-89671825D01*
X68036794Y-89671823D01*
X68036793Y-89671823D01*
X67771167Y-89614040D01*
X67771160Y-89614039D01*
X67500001Y-89594645D01*
X67499999Y-89594645D01*
X67228839Y-89614039D01*
X67228832Y-89614040D01*
X66963206Y-89671823D01*
X66963202Y-89671824D01*
X66963199Y-89671825D01*
X66835842Y-89719326D01*
X66708480Y-89766830D01*
X66469892Y-89897109D01*
X66469891Y-89897110D01*
X66252259Y-90060028D01*
X66252247Y-90060038D01*
X66060038Y-90252247D01*
X66060028Y-90252259D01*
X65897110Y-90469891D01*
X65897109Y-90469892D01*
X65766830Y-90708480D01*
X65731791Y-90802424D01*
X65671825Y-90963199D01*
X65671824Y-90963202D01*
X65671823Y-90963206D01*
X65614040Y-91228832D01*
X65614039Y-91228839D01*
X65594645Y-91499998D01*
X65594645Y-91500001D01*
X62750500Y-91500001D01*
X62750500Y-91368818D01*
X62711396Y-91109385D01*
X62634063Y-90858677D01*
X62604388Y-90797056D01*
X62520232Y-90622303D01*
X62520231Y-90622302D01*
X62520230Y-90622301D01*
X62520228Y-90622296D01*
X62372433Y-90405521D01*
X62362441Y-90394753D01*
X62193985Y-90213198D01*
X62154533Y-90181736D01*
X61988857Y-90049614D01*
X61761643Y-89918432D01*
X61517416Y-89822580D01*
X61517411Y-89822578D01*
X61517402Y-89822576D01*
X61273161Y-89766830D01*
X61261630Y-89764198D01*
X61261629Y-89764197D01*
X61261625Y-89764197D01*
X61261620Y-89764196D01*
X61065500Y-89749500D01*
X61065494Y-89749500D01*
X60934506Y-89749500D01*
X60934500Y-89749500D01*
X60738379Y-89764196D01*
X60738374Y-89764197D01*
X60482597Y-89822576D01*
X60482578Y-89822582D01*
X60238356Y-89918432D01*
X60011143Y-90049614D01*
X59806014Y-90213198D01*
X59627567Y-90405520D01*
X59479768Y-90622302D01*
X59479767Y-90622303D01*
X59365938Y-90858673D01*
X59288606Y-91109376D01*
X59288605Y-91109381D01*
X59288604Y-91109385D01*
X59281429Y-91156989D01*
X59249500Y-91368812D01*
X59249500Y-91631187D01*
X57500500Y-91631187D01*
X57500500Y-91501528D01*
X57500575Y-91498486D01*
X57503058Y-91447916D01*
X57507995Y-91347421D01*
X57518164Y-91153388D01*
X57518744Y-91147594D01*
X57543858Y-90978287D01*
X57571717Y-90802396D01*
X57572801Y-90797083D01*
X57615210Y-90627776D01*
X57660529Y-90458644D01*
X57662013Y-90453891D01*
X57721338Y-90288089D01*
X57783668Y-90125717D01*
X57785492Y-90121455D01*
X57814540Y-90060038D01*
X57861145Y-89961499D01*
X57939877Y-89806982D01*
X57941915Y-89803299D01*
X58033192Y-89651013D01*
X58127560Y-89505701D01*
X58129724Y-89502586D01*
X58235718Y-89359670D01*
X58344785Y-89224983D01*
X58346970Y-89222434D01*
X58465703Y-89091433D01*
X58467717Y-89089318D01*
X58589318Y-88967717D01*
X58591433Y-88965703D01*
X58722434Y-88846970D01*
X58724983Y-88844785D01*
X58859656Y-88735728D01*
X59002586Y-88629724D01*
X59005701Y-88627560D01*
X59151013Y-88533192D01*
X59303299Y-88441915D01*
X59306982Y-88439877D01*
X59461499Y-88361145D01*
X59621462Y-88285488D01*
X59625717Y-88283668D01*
X59788089Y-88221338D01*
X59953891Y-88162013D01*
X59958644Y-88160529D01*
X60127776Y-88115210D01*
X60297083Y-88072801D01*
X60302396Y-88071717D01*
X60478287Y-88043858D01*
X60647594Y-88018744D01*
X60653388Y-88018164D01*
X60847421Y-88007995D01*
X60945332Y-88003185D01*
X60998487Y-88000575D01*
X61001529Y-88000500D01*
X78998471Y-88000500D01*
X79001513Y-88000575D01*
G37*
%TD.AperFunction*%
%TD*%
M02*
